%TF.GenerationSoftware,KiCad,Pcbnew,(6.0.1)*%
%TF.CreationDate,2022-02-12T14:12:32-06:00*%
%TF.ProjectId,sawsetter_buttons,73617773-6574-4746-9572-5f627574746f,rev?*%
%TF.SameCoordinates,Original*%
%TF.FileFunction,Copper,L2,Bot*%
%TF.FilePolarity,Positive*%
%FSLAX46Y46*%
G04 Gerber Fmt 4.6, Leading zero omitted, Abs format (unit mm)*
G04 Created by KiCad (PCBNEW (6.0.1)) date 2022-02-12 14:12:32*
%MOMM*%
%LPD*%
G01*
G04 APERTURE LIST*
G04 Aperture macros list*
%AMRoundRect*
0 Rectangle with rounded corners*
0 $1 Rounding radius*
0 $2 $3 $4 $5 $6 $7 $8 $9 X,Y pos of 4 corners*
0 Add a 4 corners polygon primitive as box body*
4,1,4,$2,$3,$4,$5,$6,$7,$8,$9,$2,$3,0*
0 Add four circle primitives for the rounded corners*
1,1,$1+$1,$2,$3*
1,1,$1+$1,$4,$5*
1,1,$1+$1,$6,$7*
1,1,$1+$1,$8,$9*
0 Add four rect primitives between the rounded corners*
20,1,$1+$1,$2,$3,$4,$5,0*
20,1,$1+$1,$4,$5,$6,$7,0*
20,1,$1+$1,$6,$7,$8,$9,0*
20,1,$1+$1,$8,$9,$2,$3,0*%
G04 Aperture macros list end*
%TA.AperFunction,ComponentPad*%
%ADD10O,3.000000X2.500000*%
%TD*%
%TA.AperFunction,ComponentPad*%
%ADD11RoundRect,0.250000X0.600000X-0.600000X0.600000X0.600000X-0.600000X0.600000X-0.600000X-0.600000X0*%
%TD*%
%TA.AperFunction,ComponentPad*%
%ADD12C,1.700000*%
%TD*%
%TA.AperFunction,ComponentPad*%
%ADD13R,1.700000X1.700000*%
%TD*%
%TA.AperFunction,ComponentPad*%
%ADD14O,1.700000X1.700000*%
%TD*%
%TA.AperFunction,ViaPad*%
%ADD15C,0.800000*%
%TD*%
%TA.AperFunction,Conductor*%
%ADD16C,0.250000*%
%TD*%
G04 APERTURE END LIST*
D10*
%TO.P,SW2,1,1*%
%TO.N,/GO*%
X185520000Y-111800000D03*
X198020000Y-111800000D03*
%TO.P,SW2,2,2*%
%TO.N,GND*%
X185520000Y-116800000D03*
X198020000Y-116800000D03*
%TD*%
%TO.P,SW3,1,1*%
%TO.N,/LEFT*%
X121385000Y-111800000D03*
X133885000Y-111800000D03*
%TO.P,SW3,2,2*%
%TO.N,GND*%
X121385000Y-116800000D03*
X133885000Y-116800000D03*
%TD*%
%TO.P,SW1,1,1*%
%TO.N,/RIGHT*%
X160755000Y-111800000D03*
X173255000Y-111800000D03*
%TO.P,SW1,2,2*%
%TO.N,GND*%
X160755000Y-116800000D03*
X173255000Y-116800000D03*
%TD*%
%TO.P,SW4,1,1*%
%TO.N,/UP*%
X141070000Y-91480000D03*
X153570000Y-91480000D03*
%TO.P,SW4,2,2*%
%TO.N,GND*%
X141070000Y-96480000D03*
X153570000Y-96480000D03*
%TD*%
%TO.P,SW5,1,1*%
%TO.N,/DOWN*%
X153570000Y-130850000D03*
X141070000Y-130850000D03*
%TO.P,SW5,2,2*%
%TO.N,GND*%
X153570000Y-135850000D03*
X141070000Y-135850000D03*
%TD*%
D11*
%TO.P,J1,1,Pin_1*%
%TO.N,GND*%
X187960000Y-91440000D03*
D12*
%TO.P,J1,2,Pin_2*%
%TO.N,+5V*%
X187960000Y-88900000D03*
%TO.P,J1,3,Pin_3*%
%TO.N,/SCL*%
X185420000Y-91440000D03*
%TO.P,J1,4,Pin_4*%
%TO.N,/SDA*%
X185420000Y-88900000D03*
%TO.P,J1,5,Pin_5*%
%TO.N,/RIGHT*%
X182880000Y-91440000D03*
%TO.P,J1,6,Pin_6*%
%TO.N,/UP*%
X182880000Y-88900000D03*
%TO.P,J1,7,Pin_7*%
%TO.N,/GO*%
X180340000Y-91440000D03*
%TO.P,J1,8,Pin_8*%
%TO.N,/DOWN*%
X180340000Y-88900000D03*
%TO.P,J1,9,Pin_9*%
%TO.N,/LEFT*%
X177800000Y-91440000D03*
%TO.P,J1,10,Pin_10*%
%TO.N,unconnected-(J1-Pad10)*%
X177800000Y-88900000D03*
%TD*%
D13*
%TO.P,J2,1,Pin_1*%
%TO.N,GND*%
X126295000Y-95260000D03*
D14*
%TO.P,J2,2,Pin_2*%
%TO.N,+5V*%
X126295000Y-97800000D03*
%TO.P,J2,3,Pin_3*%
%TO.N,/SDA*%
X126295000Y-100340000D03*
%TO.P,J2,4,Pin_4*%
%TO.N,/SCL*%
X126295000Y-102880000D03*
%TD*%
D15*
%TO.N,/RIGHT*%
X182880000Y-96520000D03*
%TD*%
D16*
%TO.N,/RIGHT*%
X182880000Y-96520000D02*
X182880000Y-91440000D01*
%TD*%
%TA.AperFunction,Conductor*%
%TO.N,GND*%
G36*
X194252121Y-82570002D02*
G01*
X194298614Y-82623658D01*
X194310000Y-82676000D01*
X194310000Y-92710000D01*
X204344000Y-92710000D01*
X204412121Y-92730002D01*
X204458614Y-92783658D01*
X204470000Y-92836000D01*
X204470000Y-130684000D01*
X204449998Y-130752121D01*
X204396342Y-130798614D01*
X204344000Y-130810000D01*
X194310000Y-130810000D01*
X194310000Y-140844000D01*
X194289998Y-140912121D01*
X194236342Y-140958614D01*
X194184000Y-140970000D01*
X125856000Y-140970000D01*
X125787879Y-140949998D01*
X125741386Y-140896342D01*
X125730000Y-140844000D01*
X125730000Y-136121710D01*
X139082689Y-136121710D01*
X139094964Y-136211904D01*
X139096902Y-136221022D01*
X139167404Y-136462902D01*
X139170667Y-136471633D01*
X139276151Y-136700442D01*
X139280670Y-136708594D01*
X139418808Y-136919291D01*
X139424491Y-136926696D01*
X139592249Y-137114654D01*
X139598965Y-137121139D01*
X139792666Y-137282239D01*
X139800258Y-137287654D01*
X140015646Y-137418354D01*
X140023963Y-137422592D01*
X140256299Y-137520019D01*
X140265149Y-137522980D01*
X140509331Y-137584994D01*
X140518528Y-137586616D01*
X140727753Y-137607684D01*
X140734045Y-137608000D01*
X140797885Y-137608000D01*
X140813124Y-137603525D01*
X140814329Y-137602135D01*
X140816000Y-137594452D01*
X140816000Y-137589885D01*
X141324000Y-137589885D01*
X141328475Y-137605124D01*
X141329865Y-137606329D01*
X141337548Y-137608000D01*
X141383998Y-137608000D01*
X141388673Y-137607827D01*
X141575926Y-137593912D01*
X141585132Y-137592536D01*
X141830874Y-137536929D01*
X141839785Y-137534205D01*
X142074608Y-137442888D01*
X142083017Y-137438877D01*
X142301760Y-137313854D01*
X142309486Y-137308643D01*
X142507350Y-137152659D01*
X142514218Y-137146366D01*
X142686848Y-136962856D01*
X142692722Y-136955602D01*
X142836327Y-136748597D01*
X142841060Y-136740562D01*
X142952495Y-136514593D01*
X142955983Y-136505960D01*
X143032793Y-136266006D01*
X143034973Y-136256924D01*
X143056967Y-136121880D01*
X143056946Y-136121710D01*
X151582689Y-136121710D01*
X151594964Y-136211904D01*
X151596902Y-136221022D01*
X151667404Y-136462902D01*
X151670667Y-136471633D01*
X151776151Y-136700442D01*
X151780670Y-136708594D01*
X151918808Y-136919291D01*
X151924491Y-136926696D01*
X152092249Y-137114654D01*
X152098965Y-137121139D01*
X152292666Y-137282239D01*
X152300258Y-137287654D01*
X152515646Y-137418354D01*
X152523963Y-137422592D01*
X152756299Y-137520019D01*
X152765149Y-137522980D01*
X153009331Y-137584994D01*
X153018528Y-137586616D01*
X153227753Y-137607684D01*
X153234045Y-137608000D01*
X153297885Y-137608000D01*
X153313124Y-137603525D01*
X153314329Y-137602135D01*
X153316000Y-137594452D01*
X153316000Y-137589885D01*
X153824000Y-137589885D01*
X153828475Y-137605124D01*
X153829865Y-137606329D01*
X153837548Y-137608000D01*
X153883998Y-137608000D01*
X153888673Y-137607827D01*
X154075926Y-137593912D01*
X154085132Y-137592536D01*
X154330874Y-137536929D01*
X154339785Y-137534205D01*
X154574608Y-137442888D01*
X154583017Y-137438877D01*
X154801760Y-137313854D01*
X154809486Y-137308643D01*
X155007350Y-137152659D01*
X155014218Y-137146366D01*
X155186848Y-136962856D01*
X155192722Y-136955602D01*
X155336327Y-136748597D01*
X155341060Y-136740562D01*
X155452495Y-136514593D01*
X155455983Y-136505960D01*
X155532793Y-136266006D01*
X155534973Y-136256924D01*
X155556967Y-136121880D01*
X155555271Y-136108286D01*
X155541161Y-136104000D01*
X153842115Y-136104000D01*
X153826876Y-136108475D01*
X153825671Y-136109865D01*
X153824000Y-136117548D01*
X153824000Y-137589885D01*
X153316000Y-137589885D01*
X153316000Y-136122115D01*
X153311525Y-136106876D01*
X153310135Y-136105671D01*
X153302452Y-136104000D01*
X151598394Y-136104000D01*
X151584710Y-136108018D01*
X151582689Y-136121710D01*
X143056946Y-136121710D01*
X143055271Y-136108286D01*
X143041161Y-136104000D01*
X141342115Y-136104000D01*
X141326876Y-136108475D01*
X141325671Y-136109865D01*
X141324000Y-136117548D01*
X141324000Y-137589885D01*
X140816000Y-137589885D01*
X140816000Y-136122115D01*
X140811525Y-136106876D01*
X140810135Y-136105671D01*
X140802452Y-136104000D01*
X139098394Y-136104000D01*
X139084710Y-136108018D01*
X139082689Y-136121710D01*
X125730000Y-136121710D01*
X125730000Y-135578120D01*
X139083033Y-135578120D01*
X139084729Y-135591714D01*
X139098839Y-135596000D01*
X140797885Y-135596000D01*
X140813124Y-135591525D01*
X140814329Y-135590135D01*
X140816000Y-135582452D01*
X140816000Y-135577885D01*
X141324000Y-135577885D01*
X141328475Y-135593124D01*
X141329865Y-135594329D01*
X141337548Y-135596000D01*
X143041606Y-135596000D01*
X143055290Y-135591982D01*
X143057311Y-135578290D01*
X143057288Y-135578120D01*
X151583033Y-135578120D01*
X151584729Y-135591714D01*
X151598839Y-135596000D01*
X153297885Y-135596000D01*
X153313124Y-135591525D01*
X153314329Y-135590135D01*
X153316000Y-135582452D01*
X153316000Y-135577885D01*
X153824000Y-135577885D01*
X153828475Y-135593124D01*
X153829865Y-135594329D01*
X153837548Y-135596000D01*
X155541606Y-135596000D01*
X155555290Y-135591982D01*
X155557311Y-135578290D01*
X155545036Y-135488096D01*
X155543098Y-135478978D01*
X155472596Y-135237098D01*
X155469333Y-135228367D01*
X155363849Y-134999558D01*
X155359330Y-134991406D01*
X155221192Y-134780709D01*
X155215509Y-134773304D01*
X155047751Y-134585346D01*
X155041035Y-134578861D01*
X154847334Y-134417761D01*
X154839742Y-134412346D01*
X154624354Y-134281646D01*
X154616037Y-134277408D01*
X154383701Y-134179981D01*
X154374851Y-134177020D01*
X154130669Y-134115006D01*
X154121472Y-134113384D01*
X153912247Y-134092316D01*
X153905955Y-134092000D01*
X153842115Y-134092000D01*
X153826876Y-134096475D01*
X153825671Y-134097865D01*
X153824000Y-134105548D01*
X153824000Y-135577885D01*
X153316000Y-135577885D01*
X153316000Y-134110115D01*
X153311525Y-134094876D01*
X153310135Y-134093671D01*
X153302452Y-134092000D01*
X153256002Y-134092000D01*
X153251327Y-134092173D01*
X153064074Y-134106088D01*
X153054868Y-134107464D01*
X152809126Y-134163071D01*
X152800215Y-134165795D01*
X152565392Y-134257112D01*
X152556983Y-134261123D01*
X152338240Y-134386146D01*
X152330514Y-134391357D01*
X152132650Y-134547341D01*
X152125782Y-134553634D01*
X151953152Y-134737144D01*
X151947278Y-134744398D01*
X151803673Y-134951403D01*
X151798940Y-134959438D01*
X151687505Y-135185407D01*
X151684017Y-135194040D01*
X151607207Y-135433994D01*
X151605027Y-135443076D01*
X151583033Y-135578120D01*
X143057288Y-135578120D01*
X143045036Y-135488096D01*
X143043098Y-135478978D01*
X142972596Y-135237098D01*
X142969333Y-135228367D01*
X142863849Y-134999558D01*
X142859330Y-134991406D01*
X142721192Y-134780709D01*
X142715509Y-134773304D01*
X142547751Y-134585346D01*
X142541035Y-134578861D01*
X142347334Y-134417761D01*
X142339742Y-134412346D01*
X142124354Y-134281646D01*
X142116037Y-134277408D01*
X141883701Y-134179981D01*
X141874851Y-134177020D01*
X141630669Y-134115006D01*
X141621472Y-134113384D01*
X141412247Y-134092316D01*
X141405955Y-134092000D01*
X141342115Y-134092000D01*
X141326876Y-134096475D01*
X141325671Y-134097865D01*
X141324000Y-134105548D01*
X141324000Y-135577885D01*
X140816000Y-135577885D01*
X140816000Y-134110115D01*
X140811525Y-134094876D01*
X140810135Y-134093671D01*
X140802452Y-134092000D01*
X140756002Y-134092000D01*
X140751327Y-134092173D01*
X140564074Y-134106088D01*
X140554868Y-134107464D01*
X140309126Y-134163071D01*
X140300215Y-134165795D01*
X140065392Y-134257112D01*
X140056983Y-134261123D01*
X139838240Y-134386146D01*
X139830514Y-134391357D01*
X139632650Y-134547341D01*
X139625782Y-134553634D01*
X139453152Y-134737144D01*
X139447278Y-134744398D01*
X139303673Y-134951403D01*
X139298940Y-134959438D01*
X139187505Y-135185407D01*
X139184017Y-135194040D01*
X139107207Y-135433994D01*
X139105027Y-135443076D01*
X139083033Y-135578120D01*
X125730000Y-135578120D01*
X125730000Y-130957655D01*
X139059858Y-130957655D01*
X139095104Y-131216638D01*
X139096412Y-131221124D01*
X139096412Y-131221126D01*
X139116098Y-131288664D01*
X139168243Y-131467567D01*
X139277668Y-131704928D01*
X139280231Y-131708837D01*
X139418410Y-131919596D01*
X139418414Y-131919601D01*
X139420976Y-131923509D01*
X139595018Y-132118506D01*
X139795970Y-132285637D01*
X139799973Y-132288066D01*
X140015422Y-132418804D01*
X140015426Y-132418806D01*
X140019419Y-132421229D01*
X140260455Y-132522303D01*
X140513783Y-132586641D01*
X140518434Y-132587109D01*
X140518438Y-132587110D01*
X140711308Y-132606531D01*
X140730867Y-132608500D01*
X141386354Y-132608500D01*
X141388679Y-132608327D01*
X141388685Y-132608327D01*
X141576000Y-132594407D01*
X141576004Y-132594406D01*
X141580652Y-132594061D01*
X141585200Y-132593032D01*
X141585206Y-132593031D01*
X141771601Y-132550853D01*
X141835577Y-132536377D01*
X141871769Y-132522303D01*
X142074824Y-132443340D01*
X142074827Y-132443339D01*
X142079177Y-132441647D01*
X142306098Y-132311951D01*
X142511357Y-132150138D01*
X142690443Y-131959763D01*
X142839424Y-131745009D01*
X142955025Y-131510593D01*
X143034707Y-131261665D01*
X143076721Y-131003693D01*
X143077324Y-130957655D01*
X151559858Y-130957655D01*
X151595104Y-131216638D01*
X151596412Y-131221124D01*
X151596412Y-131221126D01*
X151616098Y-131288664D01*
X151668243Y-131467567D01*
X151777668Y-131704928D01*
X151780231Y-131708837D01*
X151918410Y-131919596D01*
X151918414Y-131919601D01*
X151920976Y-131923509D01*
X152095018Y-132118506D01*
X152295970Y-132285637D01*
X152299973Y-132288066D01*
X152515422Y-132418804D01*
X152515426Y-132418806D01*
X152519419Y-132421229D01*
X152760455Y-132522303D01*
X153013783Y-132586641D01*
X153018434Y-132587109D01*
X153018438Y-132587110D01*
X153211308Y-132606531D01*
X153230867Y-132608500D01*
X153886354Y-132608500D01*
X153888679Y-132608327D01*
X153888685Y-132608327D01*
X154076000Y-132594407D01*
X154076004Y-132594406D01*
X154080652Y-132594061D01*
X154085200Y-132593032D01*
X154085206Y-132593031D01*
X154271601Y-132550853D01*
X154335577Y-132536377D01*
X154371769Y-132522303D01*
X154574824Y-132443340D01*
X154574827Y-132443339D01*
X154579177Y-132441647D01*
X154806098Y-132311951D01*
X155011357Y-132150138D01*
X155190443Y-131959763D01*
X155339424Y-131745009D01*
X155455025Y-131510593D01*
X155534707Y-131261665D01*
X155576721Y-131003693D01*
X155579235Y-130811671D01*
X155580081Y-130747022D01*
X155580081Y-130747019D01*
X155580142Y-130742345D01*
X155544896Y-130483362D01*
X155530473Y-130433877D01*
X155473068Y-130236932D01*
X155471757Y-130232433D01*
X155362332Y-129995072D01*
X155329519Y-129945024D01*
X155221590Y-129780404D01*
X155221586Y-129780399D01*
X155219024Y-129776491D01*
X155044982Y-129581494D01*
X154844030Y-129414363D01*
X154796844Y-129385730D01*
X154624578Y-129281196D01*
X154624574Y-129281194D01*
X154620581Y-129278771D01*
X154379545Y-129177697D01*
X154126217Y-129113359D01*
X154121566Y-129112891D01*
X154121562Y-129112890D01*
X153912271Y-129091816D01*
X153909133Y-129091500D01*
X153253646Y-129091500D01*
X153251321Y-129091673D01*
X153251315Y-129091673D01*
X153064000Y-129105593D01*
X153063996Y-129105594D01*
X153059348Y-129105939D01*
X153054800Y-129106968D01*
X153054794Y-129106969D01*
X152868399Y-129149147D01*
X152804423Y-129163623D01*
X152800071Y-129165315D01*
X152800069Y-129165316D01*
X152565176Y-129256660D01*
X152565173Y-129256661D01*
X152560823Y-129258353D01*
X152333902Y-129388049D01*
X152128643Y-129549862D01*
X151949557Y-129740237D01*
X151800576Y-129954991D01*
X151684975Y-130189407D01*
X151605293Y-130438335D01*
X151563279Y-130696307D01*
X151559858Y-130957655D01*
X143077324Y-130957655D01*
X143079235Y-130811671D01*
X143080081Y-130747022D01*
X143080081Y-130747019D01*
X143080142Y-130742345D01*
X143044896Y-130483362D01*
X143030473Y-130433877D01*
X142973068Y-130236932D01*
X142971757Y-130232433D01*
X142862332Y-129995072D01*
X142829519Y-129945024D01*
X142721590Y-129780404D01*
X142721586Y-129780399D01*
X142719024Y-129776491D01*
X142544982Y-129581494D01*
X142344030Y-129414363D01*
X142296844Y-129385730D01*
X142124578Y-129281196D01*
X142124574Y-129281194D01*
X142120581Y-129278771D01*
X141879545Y-129177697D01*
X141626217Y-129113359D01*
X141621566Y-129112891D01*
X141621562Y-129112890D01*
X141412271Y-129091816D01*
X141409133Y-129091500D01*
X140753646Y-129091500D01*
X140751321Y-129091673D01*
X140751315Y-129091673D01*
X140564000Y-129105593D01*
X140563996Y-129105594D01*
X140559348Y-129105939D01*
X140554800Y-129106968D01*
X140554794Y-129106969D01*
X140368399Y-129149147D01*
X140304423Y-129163623D01*
X140300071Y-129165315D01*
X140300069Y-129165316D01*
X140065176Y-129256660D01*
X140065173Y-129256661D01*
X140060823Y-129258353D01*
X139833902Y-129388049D01*
X139628643Y-129549862D01*
X139449557Y-129740237D01*
X139300576Y-129954991D01*
X139184975Y-130189407D01*
X139105293Y-130438335D01*
X139063279Y-130696307D01*
X139059858Y-130957655D01*
X125730000Y-130957655D01*
X125730000Y-130810000D01*
X115696000Y-130810000D01*
X115627879Y-130789998D01*
X115581386Y-130736342D01*
X115570000Y-130684000D01*
X115570000Y-117071710D01*
X119397689Y-117071710D01*
X119409964Y-117161904D01*
X119411902Y-117171022D01*
X119482404Y-117412902D01*
X119485667Y-117421633D01*
X119591151Y-117650442D01*
X119595670Y-117658594D01*
X119733808Y-117869291D01*
X119739491Y-117876696D01*
X119907249Y-118064654D01*
X119913965Y-118071139D01*
X120107666Y-118232239D01*
X120115258Y-118237654D01*
X120330646Y-118368354D01*
X120338963Y-118372592D01*
X120571299Y-118470019D01*
X120580149Y-118472980D01*
X120824331Y-118534994D01*
X120833528Y-118536616D01*
X121042753Y-118557684D01*
X121049045Y-118558000D01*
X121112885Y-118558000D01*
X121128124Y-118553525D01*
X121129329Y-118552135D01*
X121131000Y-118544452D01*
X121131000Y-118539885D01*
X121639000Y-118539885D01*
X121643475Y-118555124D01*
X121644865Y-118556329D01*
X121652548Y-118558000D01*
X121698998Y-118558000D01*
X121703673Y-118557827D01*
X121890926Y-118543912D01*
X121900132Y-118542536D01*
X122145874Y-118486929D01*
X122154785Y-118484205D01*
X122389608Y-118392888D01*
X122398017Y-118388877D01*
X122616760Y-118263854D01*
X122624486Y-118258643D01*
X122822350Y-118102659D01*
X122829218Y-118096366D01*
X123001848Y-117912856D01*
X123007722Y-117905602D01*
X123151327Y-117698597D01*
X123156060Y-117690562D01*
X123267495Y-117464593D01*
X123270983Y-117455960D01*
X123347793Y-117216006D01*
X123349973Y-117206924D01*
X123371967Y-117071880D01*
X123371946Y-117071710D01*
X131897689Y-117071710D01*
X131909964Y-117161904D01*
X131911902Y-117171022D01*
X131982404Y-117412902D01*
X131985667Y-117421633D01*
X132091151Y-117650442D01*
X132095670Y-117658594D01*
X132233808Y-117869291D01*
X132239491Y-117876696D01*
X132407249Y-118064654D01*
X132413965Y-118071139D01*
X132607666Y-118232239D01*
X132615258Y-118237654D01*
X132830646Y-118368354D01*
X132838963Y-118372592D01*
X133071299Y-118470019D01*
X133080149Y-118472980D01*
X133324331Y-118534994D01*
X133333528Y-118536616D01*
X133542753Y-118557684D01*
X133549045Y-118558000D01*
X133612885Y-118558000D01*
X133628124Y-118553525D01*
X133629329Y-118552135D01*
X133631000Y-118544452D01*
X133631000Y-118539885D01*
X134139000Y-118539885D01*
X134143475Y-118555124D01*
X134144865Y-118556329D01*
X134152548Y-118558000D01*
X134198998Y-118558000D01*
X134203673Y-118557827D01*
X134390926Y-118543912D01*
X134400132Y-118542536D01*
X134645874Y-118486929D01*
X134654785Y-118484205D01*
X134889608Y-118392888D01*
X134898017Y-118388877D01*
X135116760Y-118263854D01*
X135124486Y-118258643D01*
X135322350Y-118102659D01*
X135329218Y-118096366D01*
X135501848Y-117912856D01*
X135507722Y-117905602D01*
X135651327Y-117698597D01*
X135656060Y-117690562D01*
X135767495Y-117464593D01*
X135770983Y-117455960D01*
X135847793Y-117216006D01*
X135849973Y-117206924D01*
X135871967Y-117071880D01*
X135871946Y-117071710D01*
X158767689Y-117071710D01*
X158779964Y-117161904D01*
X158781902Y-117171022D01*
X158852404Y-117412902D01*
X158855667Y-117421633D01*
X158961151Y-117650442D01*
X158965670Y-117658594D01*
X159103808Y-117869291D01*
X159109491Y-117876696D01*
X159277249Y-118064654D01*
X159283965Y-118071139D01*
X159477666Y-118232239D01*
X159485258Y-118237654D01*
X159700646Y-118368354D01*
X159708963Y-118372592D01*
X159941299Y-118470019D01*
X159950149Y-118472980D01*
X160194331Y-118534994D01*
X160203528Y-118536616D01*
X160412753Y-118557684D01*
X160419045Y-118558000D01*
X160482885Y-118558000D01*
X160498124Y-118553525D01*
X160499329Y-118552135D01*
X160501000Y-118544452D01*
X160501000Y-118539885D01*
X161009000Y-118539885D01*
X161013475Y-118555124D01*
X161014865Y-118556329D01*
X161022548Y-118558000D01*
X161068998Y-118558000D01*
X161073673Y-118557827D01*
X161260926Y-118543912D01*
X161270132Y-118542536D01*
X161515874Y-118486929D01*
X161524785Y-118484205D01*
X161759608Y-118392888D01*
X161768017Y-118388877D01*
X161986760Y-118263854D01*
X161994486Y-118258643D01*
X162192350Y-118102659D01*
X162199218Y-118096366D01*
X162371848Y-117912856D01*
X162377722Y-117905602D01*
X162521327Y-117698597D01*
X162526060Y-117690562D01*
X162637495Y-117464593D01*
X162640983Y-117455960D01*
X162717793Y-117216006D01*
X162719973Y-117206924D01*
X162741967Y-117071880D01*
X162741946Y-117071710D01*
X171267689Y-117071710D01*
X171279964Y-117161904D01*
X171281902Y-117171022D01*
X171352404Y-117412902D01*
X171355667Y-117421633D01*
X171461151Y-117650442D01*
X171465670Y-117658594D01*
X171603808Y-117869291D01*
X171609491Y-117876696D01*
X171777249Y-118064654D01*
X171783965Y-118071139D01*
X171977666Y-118232239D01*
X171985258Y-118237654D01*
X172200646Y-118368354D01*
X172208963Y-118372592D01*
X172441299Y-118470019D01*
X172450149Y-118472980D01*
X172694331Y-118534994D01*
X172703528Y-118536616D01*
X172912753Y-118557684D01*
X172919045Y-118558000D01*
X172982885Y-118558000D01*
X172998124Y-118553525D01*
X172999329Y-118552135D01*
X173001000Y-118544452D01*
X173001000Y-118539885D01*
X173509000Y-118539885D01*
X173513475Y-118555124D01*
X173514865Y-118556329D01*
X173522548Y-118558000D01*
X173568998Y-118558000D01*
X173573673Y-118557827D01*
X173760926Y-118543912D01*
X173770132Y-118542536D01*
X174015874Y-118486929D01*
X174024785Y-118484205D01*
X174259608Y-118392888D01*
X174268017Y-118388877D01*
X174486760Y-118263854D01*
X174494486Y-118258643D01*
X174692350Y-118102659D01*
X174699218Y-118096366D01*
X174871848Y-117912856D01*
X174877722Y-117905602D01*
X175021327Y-117698597D01*
X175026060Y-117690562D01*
X175137495Y-117464593D01*
X175140983Y-117455960D01*
X175217793Y-117216006D01*
X175219973Y-117206924D01*
X175241967Y-117071880D01*
X175241946Y-117071710D01*
X183532689Y-117071710D01*
X183544964Y-117161904D01*
X183546902Y-117171022D01*
X183617404Y-117412902D01*
X183620667Y-117421633D01*
X183726151Y-117650442D01*
X183730670Y-117658594D01*
X183868808Y-117869291D01*
X183874491Y-117876696D01*
X184042249Y-118064654D01*
X184048965Y-118071139D01*
X184242666Y-118232239D01*
X184250258Y-118237654D01*
X184465646Y-118368354D01*
X184473963Y-118372592D01*
X184706299Y-118470019D01*
X184715149Y-118472980D01*
X184959331Y-118534994D01*
X184968528Y-118536616D01*
X185177753Y-118557684D01*
X185184045Y-118558000D01*
X185247885Y-118558000D01*
X185263124Y-118553525D01*
X185264329Y-118552135D01*
X185266000Y-118544452D01*
X185266000Y-118539885D01*
X185774000Y-118539885D01*
X185778475Y-118555124D01*
X185779865Y-118556329D01*
X185787548Y-118558000D01*
X185833998Y-118558000D01*
X185838673Y-118557827D01*
X186025926Y-118543912D01*
X186035132Y-118542536D01*
X186280874Y-118486929D01*
X186289785Y-118484205D01*
X186524608Y-118392888D01*
X186533017Y-118388877D01*
X186751760Y-118263854D01*
X186759486Y-118258643D01*
X186957350Y-118102659D01*
X186964218Y-118096366D01*
X187136848Y-117912856D01*
X187142722Y-117905602D01*
X187286327Y-117698597D01*
X187291060Y-117690562D01*
X187402495Y-117464593D01*
X187405983Y-117455960D01*
X187482793Y-117216006D01*
X187484973Y-117206924D01*
X187506967Y-117071880D01*
X187506946Y-117071710D01*
X196032689Y-117071710D01*
X196044964Y-117161904D01*
X196046902Y-117171022D01*
X196117404Y-117412902D01*
X196120667Y-117421633D01*
X196226151Y-117650442D01*
X196230670Y-117658594D01*
X196368808Y-117869291D01*
X196374491Y-117876696D01*
X196542249Y-118064654D01*
X196548965Y-118071139D01*
X196742666Y-118232239D01*
X196750258Y-118237654D01*
X196965646Y-118368354D01*
X196973963Y-118372592D01*
X197206299Y-118470019D01*
X197215149Y-118472980D01*
X197459331Y-118534994D01*
X197468528Y-118536616D01*
X197677753Y-118557684D01*
X197684045Y-118558000D01*
X197747885Y-118558000D01*
X197763124Y-118553525D01*
X197764329Y-118552135D01*
X197766000Y-118544452D01*
X197766000Y-118539885D01*
X198274000Y-118539885D01*
X198278475Y-118555124D01*
X198279865Y-118556329D01*
X198287548Y-118558000D01*
X198333998Y-118558000D01*
X198338673Y-118557827D01*
X198525926Y-118543912D01*
X198535132Y-118542536D01*
X198780874Y-118486929D01*
X198789785Y-118484205D01*
X199024608Y-118392888D01*
X199033017Y-118388877D01*
X199251760Y-118263854D01*
X199259486Y-118258643D01*
X199457350Y-118102659D01*
X199464218Y-118096366D01*
X199636848Y-117912856D01*
X199642722Y-117905602D01*
X199786327Y-117698597D01*
X199791060Y-117690562D01*
X199902495Y-117464593D01*
X199905983Y-117455960D01*
X199982793Y-117216006D01*
X199984973Y-117206924D01*
X200006967Y-117071880D01*
X200005271Y-117058286D01*
X199991161Y-117054000D01*
X198292115Y-117054000D01*
X198276876Y-117058475D01*
X198275671Y-117059865D01*
X198274000Y-117067548D01*
X198274000Y-118539885D01*
X197766000Y-118539885D01*
X197766000Y-117072115D01*
X197761525Y-117056876D01*
X197760135Y-117055671D01*
X197752452Y-117054000D01*
X196048394Y-117054000D01*
X196034710Y-117058018D01*
X196032689Y-117071710D01*
X187506946Y-117071710D01*
X187505271Y-117058286D01*
X187491161Y-117054000D01*
X185792115Y-117054000D01*
X185776876Y-117058475D01*
X185775671Y-117059865D01*
X185774000Y-117067548D01*
X185774000Y-118539885D01*
X185266000Y-118539885D01*
X185266000Y-117072115D01*
X185261525Y-117056876D01*
X185260135Y-117055671D01*
X185252452Y-117054000D01*
X183548394Y-117054000D01*
X183534710Y-117058018D01*
X183532689Y-117071710D01*
X175241946Y-117071710D01*
X175240271Y-117058286D01*
X175226161Y-117054000D01*
X173527115Y-117054000D01*
X173511876Y-117058475D01*
X173510671Y-117059865D01*
X173509000Y-117067548D01*
X173509000Y-118539885D01*
X173001000Y-118539885D01*
X173001000Y-117072115D01*
X172996525Y-117056876D01*
X172995135Y-117055671D01*
X172987452Y-117054000D01*
X171283394Y-117054000D01*
X171269710Y-117058018D01*
X171267689Y-117071710D01*
X162741946Y-117071710D01*
X162740271Y-117058286D01*
X162726161Y-117054000D01*
X161027115Y-117054000D01*
X161011876Y-117058475D01*
X161010671Y-117059865D01*
X161009000Y-117067548D01*
X161009000Y-118539885D01*
X160501000Y-118539885D01*
X160501000Y-117072115D01*
X160496525Y-117056876D01*
X160495135Y-117055671D01*
X160487452Y-117054000D01*
X158783394Y-117054000D01*
X158769710Y-117058018D01*
X158767689Y-117071710D01*
X135871946Y-117071710D01*
X135870271Y-117058286D01*
X135856161Y-117054000D01*
X134157115Y-117054000D01*
X134141876Y-117058475D01*
X134140671Y-117059865D01*
X134139000Y-117067548D01*
X134139000Y-118539885D01*
X133631000Y-118539885D01*
X133631000Y-117072115D01*
X133626525Y-117056876D01*
X133625135Y-117055671D01*
X133617452Y-117054000D01*
X131913394Y-117054000D01*
X131899710Y-117058018D01*
X131897689Y-117071710D01*
X123371946Y-117071710D01*
X123370271Y-117058286D01*
X123356161Y-117054000D01*
X121657115Y-117054000D01*
X121641876Y-117058475D01*
X121640671Y-117059865D01*
X121639000Y-117067548D01*
X121639000Y-118539885D01*
X121131000Y-118539885D01*
X121131000Y-117072115D01*
X121126525Y-117056876D01*
X121125135Y-117055671D01*
X121117452Y-117054000D01*
X119413394Y-117054000D01*
X119399710Y-117058018D01*
X119397689Y-117071710D01*
X115570000Y-117071710D01*
X115570000Y-116528120D01*
X119398033Y-116528120D01*
X119399729Y-116541714D01*
X119413839Y-116546000D01*
X121112885Y-116546000D01*
X121128124Y-116541525D01*
X121129329Y-116540135D01*
X121131000Y-116532452D01*
X121131000Y-116527885D01*
X121639000Y-116527885D01*
X121643475Y-116543124D01*
X121644865Y-116544329D01*
X121652548Y-116546000D01*
X123356606Y-116546000D01*
X123370290Y-116541982D01*
X123372311Y-116528290D01*
X123372288Y-116528120D01*
X131898033Y-116528120D01*
X131899729Y-116541714D01*
X131913839Y-116546000D01*
X133612885Y-116546000D01*
X133628124Y-116541525D01*
X133629329Y-116540135D01*
X133631000Y-116532452D01*
X133631000Y-116527885D01*
X134139000Y-116527885D01*
X134143475Y-116543124D01*
X134144865Y-116544329D01*
X134152548Y-116546000D01*
X135856606Y-116546000D01*
X135870290Y-116541982D01*
X135872311Y-116528290D01*
X135872288Y-116528120D01*
X158768033Y-116528120D01*
X158769729Y-116541714D01*
X158783839Y-116546000D01*
X160482885Y-116546000D01*
X160498124Y-116541525D01*
X160499329Y-116540135D01*
X160501000Y-116532452D01*
X160501000Y-116527885D01*
X161009000Y-116527885D01*
X161013475Y-116543124D01*
X161014865Y-116544329D01*
X161022548Y-116546000D01*
X162726606Y-116546000D01*
X162740290Y-116541982D01*
X162742311Y-116528290D01*
X162742288Y-116528120D01*
X171268033Y-116528120D01*
X171269729Y-116541714D01*
X171283839Y-116546000D01*
X172982885Y-116546000D01*
X172998124Y-116541525D01*
X172999329Y-116540135D01*
X173001000Y-116532452D01*
X173001000Y-116527885D01*
X173509000Y-116527885D01*
X173513475Y-116543124D01*
X173514865Y-116544329D01*
X173522548Y-116546000D01*
X175226606Y-116546000D01*
X175240290Y-116541982D01*
X175242311Y-116528290D01*
X175242288Y-116528120D01*
X183533033Y-116528120D01*
X183534729Y-116541714D01*
X183548839Y-116546000D01*
X185247885Y-116546000D01*
X185263124Y-116541525D01*
X185264329Y-116540135D01*
X185266000Y-116532452D01*
X185266000Y-116527885D01*
X185774000Y-116527885D01*
X185778475Y-116543124D01*
X185779865Y-116544329D01*
X185787548Y-116546000D01*
X187491606Y-116546000D01*
X187505290Y-116541982D01*
X187507311Y-116528290D01*
X187507288Y-116528120D01*
X196033033Y-116528120D01*
X196034729Y-116541714D01*
X196048839Y-116546000D01*
X197747885Y-116546000D01*
X197763124Y-116541525D01*
X197764329Y-116540135D01*
X197766000Y-116532452D01*
X197766000Y-116527885D01*
X198274000Y-116527885D01*
X198278475Y-116543124D01*
X198279865Y-116544329D01*
X198287548Y-116546000D01*
X199991606Y-116546000D01*
X200005290Y-116541982D01*
X200007311Y-116528290D01*
X199995036Y-116438096D01*
X199993098Y-116428978D01*
X199922596Y-116187098D01*
X199919333Y-116178367D01*
X199813849Y-115949558D01*
X199809330Y-115941406D01*
X199671192Y-115730709D01*
X199665509Y-115723304D01*
X199497751Y-115535346D01*
X199491035Y-115528861D01*
X199297334Y-115367761D01*
X199289742Y-115362346D01*
X199074354Y-115231646D01*
X199066037Y-115227408D01*
X198833701Y-115129981D01*
X198824851Y-115127020D01*
X198580669Y-115065006D01*
X198571472Y-115063384D01*
X198362247Y-115042316D01*
X198355955Y-115042000D01*
X198292115Y-115042000D01*
X198276876Y-115046475D01*
X198275671Y-115047865D01*
X198274000Y-115055548D01*
X198274000Y-116527885D01*
X197766000Y-116527885D01*
X197766000Y-115060115D01*
X197761525Y-115044876D01*
X197760135Y-115043671D01*
X197752452Y-115042000D01*
X197706002Y-115042000D01*
X197701327Y-115042173D01*
X197514074Y-115056088D01*
X197504868Y-115057464D01*
X197259126Y-115113071D01*
X197250215Y-115115795D01*
X197015392Y-115207112D01*
X197006983Y-115211123D01*
X196788240Y-115336146D01*
X196780514Y-115341357D01*
X196582650Y-115497341D01*
X196575782Y-115503634D01*
X196403152Y-115687144D01*
X196397278Y-115694398D01*
X196253673Y-115901403D01*
X196248940Y-115909438D01*
X196137505Y-116135407D01*
X196134017Y-116144040D01*
X196057207Y-116383994D01*
X196055027Y-116393076D01*
X196033033Y-116528120D01*
X187507288Y-116528120D01*
X187495036Y-116438096D01*
X187493098Y-116428978D01*
X187422596Y-116187098D01*
X187419333Y-116178367D01*
X187313849Y-115949558D01*
X187309330Y-115941406D01*
X187171192Y-115730709D01*
X187165509Y-115723304D01*
X186997751Y-115535346D01*
X186991035Y-115528861D01*
X186797334Y-115367761D01*
X186789742Y-115362346D01*
X186574354Y-115231646D01*
X186566037Y-115227408D01*
X186333701Y-115129981D01*
X186324851Y-115127020D01*
X186080669Y-115065006D01*
X186071472Y-115063384D01*
X185862247Y-115042316D01*
X185855955Y-115042000D01*
X185792115Y-115042000D01*
X185776876Y-115046475D01*
X185775671Y-115047865D01*
X185774000Y-115055548D01*
X185774000Y-116527885D01*
X185266000Y-116527885D01*
X185266000Y-115060115D01*
X185261525Y-115044876D01*
X185260135Y-115043671D01*
X185252452Y-115042000D01*
X185206002Y-115042000D01*
X185201327Y-115042173D01*
X185014074Y-115056088D01*
X185004868Y-115057464D01*
X184759126Y-115113071D01*
X184750215Y-115115795D01*
X184515392Y-115207112D01*
X184506983Y-115211123D01*
X184288240Y-115336146D01*
X184280514Y-115341357D01*
X184082650Y-115497341D01*
X184075782Y-115503634D01*
X183903152Y-115687144D01*
X183897278Y-115694398D01*
X183753673Y-115901403D01*
X183748940Y-115909438D01*
X183637505Y-116135407D01*
X183634017Y-116144040D01*
X183557207Y-116383994D01*
X183555027Y-116393076D01*
X183533033Y-116528120D01*
X175242288Y-116528120D01*
X175230036Y-116438096D01*
X175228098Y-116428978D01*
X175157596Y-116187098D01*
X175154333Y-116178367D01*
X175048849Y-115949558D01*
X175044330Y-115941406D01*
X174906192Y-115730709D01*
X174900509Y-115723304D01*
X174732751Y-115535346D01*
X174726035Y-115528861D01*
X174532334Y-115367761D01*
X174524742Y-115362346D01*
X174309354Y-115231646D01*
X174301037Y-115227408D01*
X174068701Y-115129981D01*
X174059851Y-115127020D01*
X173815669Y-115065006D01*
X173806472Y-115063384D01*
X173597247Y-115042316D01*
X173590955Y-115042000D01*
X173527115Y-115042000D01*
X173511876Y-115046475D01*
X173510671Y-115047865D01*
X173509000Y-115055548D01*
X173509000Y-116527885D01*
X173001000Y-116527885D01*
X173001000Y-115060115D01*
X172996525Y-115044876D01*
X172995135Y-115043671D01*
X172987452Y-115042000D01*
X172941002Y-115042000D01*
X172936327Y-115042173D01*
X172749074Y-115056088D01*
X172739868Y-115057464D01*
X172494126Y-115113071D01*
X172485215Y-115115795D01*
X172250392Y-115207112D01*
X172241983Y-115211123D01*
X172023240Y-115336146D01*
X172015514Y-115341357D01*
X171817650Y-115497341D01*
X171810782Y-115503634D01*
X171638152Y-115687144D01*
X171632278Y-115694398D01*
X171488673Y-115901403D01*
X171483940Y-115909438D01*
X171372505Y-116135407D01*
X171369017Y-116144040D01*
X171292207Y-116383994D01*
X171290027Y-116393076D01*
X171268033Y-116528120D01*
X162742288Y-116528120D01*
X162730036Y-116438096D01*
X162728098Y-116428978D01*
X162657596Y-116187098D01*
X162654333Y-116178367D01*
X162548849Y-115949558D01*
X162544330Y-115941406D01*
X162406192Y-115730709D01*
X162400509Y-115723304D01*
X162232751Y-115535346D01*
X162226035Y-115528861D01*
X162032334Y-115367761D01*
X162024742Y-115362346D01*
X161809354Y-115231646D01*
X161801037Y-115227408D01*
X161568701Y-115129981D01*
X161559851Y-115127020D01*
X161315669Y-115065006D01*
X161306472Y-115063384D01*
X161097247Y-115042316D01*
X161090955Y-115042000D01*
X161027115Y-115042000D01*
X161011876Y-115046475D01*
X161010671Y-115047865D01*
X161009000Y-115055548D01*
X161009000Y-116527885D01*
X160501000Y-116527885D01*
X160501000Y-115060115D01*
X160496525Y-115044876D01*
X160495135Y-115043671D01*
X160487452Y-115042000D01*
X160441002Y-115042000D01*
X160436327Y-115042173D01*
X160249074Y-115056088D01*
X160239868Y-115057464D01*
X159994126Y-115113071D01*
X159985215Y-115115795D01*
X159750392Y-115207112D01*
X159741983Y-115211123D01*
X159523240Y-115336146D01*
X159515514Y-115341357D01*
X159317650Y-115497341D01*
X159310782Y-115503634D01*
X159138152Y-115687144D01*
X159132278Y-115694398D01*
X158988673Y-115901403D01*
X158983940Y-115909438D01*
X158872505Y-116135407D01*
X158869017Y-116144040D01*
X158792207Y-116383994D01*
X158790027Y-116393076D01*
X158768033Y-116528120D01*
X135872288Y-116528120D01*
X135860036Y-116438096D01*
X135858098Y-116428978D01*
X135787596Y-116187098D01*
X135784333Y-116178367D01*
X135678849Y-115949558D01*
X135674330Y-115941406D01*
X135536192Y-115730709D01*
X135530509Y-115723304D01*
X135362751Y-115535346D01*
X135356035Y-115528861D01*
X135162334Y-115367761D01*
X135154742Y-115362346D01*
X134939354Y-115231646D01*
X134931037Y-115227408D01*
X134698701Y-115129981D01*
X134689851Y-115127020D01*
X134445669Y-115065006D01*
X134436472Y-115063384D01*
X134227247Y-115042316D01*
X134220955Y-115042000D01*
X134157115Y-115042000D01*
X134141876Y-115046475D01*
X134140671Y-115047865D01*
X134139000Y-115055548D01*
X134139000Y-116527885D01*
X133631000Y-116527885D01*
X133631000Y-115060115D01*
X133626525Y-115044876D01*
X133625135Y-115043671D01*
X133617452Y-115042000D01*
X133571002Y-115042000D01*
X133566327Y-115042173D01*
X133379074Y-115056088D01*
X133369868Y-115057464D01*
X133124126Y-115113071D01*
X133115215Y-115115795D01*
X132880392Y-115207112D01*
X132871983Y-115211123D01*
X132653240Y-115336146D01*
X132645514Y-115341357D01*
X132447650Y-115497341D01*
X132440782Y-115503634D01*
X132268152Y-115687144D01*
X132262278Y-115694398D01*
X132118673Y-115901403D01*
X132113940Y-115909438D01*
X132002505Y-116135407D01*
X131999017Y-116144040D01*
X131922207Y-116383994D01*
X131920027Y-116393076D01*
X131898033Y-116528120D01*
X123372288Y-116528120D01*
X123360036Y-116438096D01*
X123358098Y-116428978D01*
X123287596Y-116187098D01*
X123284333Y-116178367D01*
X123178849Y-115949558D01*
X123174330Y-115941406D01*
X123036192Y-115730709D01*
X123030509Y-115723304D01*
X122862751Y-115535346D01*
X122856035Y-115528861D01*
X122662334Y-115367761D01*
X122654742Y-115362346D01*
X122439354Y-115231646D01*
X122431037Y-115227408D01*
X122198701Y-115129981D01*
X122189851Y-115127020D01*
X121945669Y-115065006D01*
X121936472Y-115063384D01*
X121727247Y-115042316D01*
X121720955Y-115042000D01*
X121657115Y-115042000D01*
X121641876Y-115046475D01*
X121640671Y-115047865D01*
X121639000Y-115055548D01*
X121639000Y-116527885D01*
X121131000Y-116527885D01*
X121131000Y-115060115D01*
X121126525Y-115044876D01*
X121125135Y-115043671D01*
X121117452Y-115042000D01*
X121071002Y-115042000D01*
X121066327Y-115042173D01*
X120879074Y-115056088D01*
X120869868Y-115057464D01*
X120624126Y-115113071D01*
X120615215Y-115115795D01*
X120380392Y-115207112D01*
X120371983Y-115211123D01*
X120153240Y-115336146D01*
X120145514Y-115341357D01*
X119947650Y-115497341D01*
X119940782Y-115503634D01*
X119768152Y-115687144D01*
X119762278Y-115694398D01*
X119618673Y-115901403D01*
X119613940Y-115909438D01*
X119502505Y-116135407D01*
X119499017Y-116144040D01*
X119422207Y-116383994D01*
X119420027Y-116393076D01*
X119398033Y-116528120D01*
X115570000Y-116528120D01*
X115570000Y-111907655D01*
X119374858Y-111907655D01*
X119410104Y-112166638D01*
X119411412Y-112171124D01*
X119411412Y-112171126D01*
X119431098Y-112238664D01*
X119483243Y-112417567D01*
X119592668Y-112654928D01*
X119595231Y-112658837D01*
X119733410Y-112869596D01*
X119733414Y-112869601D01*
X119735976Y-112873509D01*
X119910018Y-113068506D01*
X120110970Y-113235637D01*
X120114973Y-113238066D01*
X120330422Y-113368804D01*
X120330426Y-113368806D01*
X120334419Y-113371229D01*
X120575455Y-113472303D01*
X120828783Y-113536641D01*
X120833434Y-113537109D01*
X120833438Y-113537110D01*
X121026308Y-113556531D01*
X121045867Y-113558500D01*
X121701354Y-113558500D01*
X121703679Y-113558327D01*
X121703685Y-113558327D01*
X121891000Y-113544407D01*
X121891004Y-113544406D01*
X121895652Y-113544061D01*
X121900200Y-113543032D01*
X121900206Y-113543031D01*
X122086601Y-113500853D01*
X122150577Y-113486377D01*
X122186769Y-113472303D01*
X122389824Y-113393340D01*
X122389827Y-113393339D01*
X122394177Y-113391647D01*
X122621098Y-113261951D01*
X122826357Y-113100138D01*
X123005443Y-112909763D01*
X123154424Y-112695009D01*
X123270025Y-112460593D01*
X123349707Y-112211665D01*
X123391721Y-111953693D01*
X123392324Y-111907655D01*
X131874858Y-111907655D01*
X131910104Y-112166638D01*
X131911412Y-112171124D01*
X131911412Y-112171126D01*
X131931098Y-112238664D01*
X131983243Y-112417567D01*
X132092668Y-112654928D01*
X132095231Y-112658837D01*
X132233410Y-112869596D01*
X132233414Y-112869601D01*
X132235976Y-112873509D01*
X132410018Y-113068506D01*
X132610970Y-113235637D01*
X132614973Y-113238066D01*
X132830422Y-113368804D01*
X132830426Y-113368806D01*
X132834419Y-113371229D01*
X133075455Y-113472303D01*
X133328783Y-113536641D01*
X133333434Y-113537109D01*
X133333438Y-113537110D01*
X133526308Y-113556531D01*
X133545867Y-113558500D01*
X134201354Y-113558500D01*
X134203679Y-113558327D01*
X134203685Y-113558327D01*
X134391000Y-113544407D01*
X134391004Y-113544406D01*
X134395652Y-113544061D01*
X134400200Y-113543032D01*
X134400206Y-113543031D01*
X134586601Y-113500853D01*
X134650577Y-113486377D01*
X134686769Y-113472303D01*
X134889824Y-113393340D01*
X134889827Y-113393339D01*
X134894177Y-113391647D01*
X135121098Y-113261951D01*
X135326357Y-113100138D01*
X135505443Y-112909763D01*
X135654424Y-112695009D01*
X135770025Y-112460593D01*
X135849707Y-112211665D01*
X135891721Y-111953693D01*
X135892324Y-111907655D01*
X158744858Y-111907655D01*
X158780104Y-112166638D01*
X158781412Y-112171124D01*
X158781412Y-112171126D01*
X158801098Y-112238664D01*
X158853243Y-112417567D01*
X158962668Y-112654928D01*
X158965231Y-112658837D01*
X159103410Y-112869596D01*
X159103414Y-112869601D01*
X159105976Y-112873509D01*
X159280018Y-113068506D01*
X159480970Y-113235637D01*
X159484973Y-113238066D01*
X159700422Y-113368804D01*
X159700426Y-113368806D01*
X159704419Y-113371229D01*
X159945455Y-113472303D01*
X160198783Y-113536641D01*
X160203434Y-113537109D01*
X160203438Y-113537110D01*
X160396308Y-113556531D01*
X160415867Y-113558500D01*
X161071354Y-113558500D01*
X161073679Y-113558327D01*
X161073685Y-113558327D01*
X161261000Y-113544407D01*
X161261004Y-113544406D01*
X161265652Y-113544061D01*
X161270200Y-113543032D01*
X161270206Y-113543031D01*
X161456601Y-113500853D01*
X161520577Y-113486377D01*
X161556769Y-113472303D01*
X161759824Y-113393340D01*
X161759827Y-113393339D01*
X161764177Y-113391647D01*
X161991098Y-113261951D01*
X162196357Y-113100138D01*
X162375443Y-112909763D01*
X162524424Y-112695009D01*
X162640025Y-112460593D01*
X162719707Y-112211665D01*
X162761721Y-111953693D01*
X162762324Y-111907655D01*
X171244858Y-111907655D01*
X171280104Y-112166638D01*
X171281412Y-112171124D01*
X171281412Y-112171126D01*
X171301098Y-112238664D01*
X171353243Y-112417567D01*
X171462668Y-112654928D01*
X171465231Y-112658837D01*
X171603410Y-112869596D01*
X171603414Y-112869601D01*
X171605976Y-112873509D01*
X171780018Y-113068506D01*
X171980970Y-113235637D01*
X171984973Y-113238066D01*
X172200422Y-113368804D01*
X172200426Y-113368806D01*
X172204419Y-113371229D01*
X172445455Y-113472303D01*
X172698783Y-113536641D01*
X172703434Y-113537109D01*
X172703438Y-113537110D01*
X172896308Y-113556531D01*
X172915867Y-113558500D01*
X173571354Y-113558500D01*
X173573679Y-113558327D01*
X173573685Y-113558327D01*
X173761000Y-113544407D01*
X173761004Y-113544406D01*
X173765652Y-113544061D01*
X173770200Y-113543032D01*
X173770206Y-113543031D01*
X173956601Y-113500853D01*
X174020577Y-113486377D01*
X174056769Y-113472303D01*
X174259824Y-113393340D01*
X174259827Y-113393339D01*
X174264177Y-113391647D01*
X174491098Y-113261951D01*
X174696357Y-113100138D01*
X174875443Y-112909763D01*
X175024424Y-112695009D01*
X175140025Y-112460593D01*
X175219707Y-112211665D01*
X175261721Y-111953693D01*
X175262324Y-111907655D01*
X183509858Y-111907655D01*
X183545104Y-112166638D01*
X183546412Y-112171124D01*
X183546412Y-112171126D01*
X183566098Y-112238664D01*
X183618243Y-112417567D01*
X183727668Y-112654928D01*
X183730231Y-112658837D01*
X183868410Y-112869596D01*
X183868414Y-112869601D01*
X183870976Y-112873509D01*
X184045018Y-113068506D01*
X184245970Y-113235637D01*
X184249973Y-113238066D01*
X184465422Y-113368804D01*
X184465426Y-113368806D01*
X184469419Y-113371229D01*
X184710455Y-113472303D01*
X184963783Y-113536641D01*
X184968434Y-113537109D01*
X184968438Y-113537110D01*
X185161308Y-113556531D01*
X185180867Y-113558500D01*
X185836354Y-113558500D01*
X185838679Y-113558327D01*
X185838685Y-113558327D01*
X186026000Y-113544407D01*
X186026004Y-113544406D01*
X186030652Y-113544061D01*
X186035200Y-113543032D01*
X186035206Y-113543031D01*
X186221601Y-113500853D01*
X186285577Y-113486377D01*
X186321769Y-113472303D01*
X186524824Y-113393340D01*
X186524827Y-113393339D01*
X186529177Y-113391647D01*
X186756098Y-113261951D01*
X186961357Y-113100138D01*
X187140443Y-112909763D01*
X187289424Y-112695009D01*
X187405025Y-112460593D01*
X187484707Y-112211665D01*
X187526721Y-111953693D01*
X187527324Y-111907655D01*
X196009858Y-111907655D01*
X196045104Y-112166638D01*
X196046412Y-112171124D01*
X196046412Y-112171126D01*
X196066098Y-112238664D01*
X196118243Y-112417567D01*
X196227668Y-112654928D01*
X196230231Y-112658837D01*
X196368410Y-112869596D01*
X196368414Y-112869601D01*
X196370976Y-112873509D01*
X196545018Y-113068506D01*
X196745970Y-113235637D01*
X196749973Y-113238066D01*
X196965422Y-113368804D01*
X196965426Y-113368806D01*
X196969419Y-113371229D01*
X197210455Y-113472303D01*
X197463783Y-113536641D01*
X197468434Y-113537109D01*
X197468438Y-113537110D01*
X197661308Y-113556531D01*
X197680867Y-113558500D01*
X198336354Y-113558500D01*
X198338679Y-113558327D01*
X198338685Y-113558327D01*
X198526000Y-113544407D01*
X198526004Y-113544406D01*
X198530652Y-113544061D01*
X198535200Y-113543032D01*
X198535206Y-113543031D01*
X198721601Y-113500853D01*
X198785577Y-113486377D01*
X198821769Y-113472303D01*
X199024824Y-113393340D01*
X199024827Y-113393339D01*
X199029177Y-113391647D01*
X199256098Y-113261951D01*
X199461357Y-113100138D01*
X199640443Y-112909763D01*
X199789424Y-112695009D01*
X199905025Y-112460593D01*
X199984707Y-112211665D01*
X200026721Y-111953693D01*
X200030142Y-111692345D01*
X199994896Y-111433362D01*
X199980473Y-111383877D01*
X199923068Y-111186932D01*
X199921757Y-111182433D01*
X199812332Y-110945072D01*
X199779519Y-110895024D01*
X199671590Y-110730404D01*
X199671586Y-110730399D01*
X199669024Y-110726491D01*
X199494982Y-110531494D01*
X199294030Y-110364363D01*
X199246844Y-110335730D01*
X199074578Y-110231196D01*
X199074574Y-110231194D01*
X199070581Y-110228771D01*
X198829545Y-110127697D01*
X198576217Y-110063359D01*
X198571566Y-110062891D01*
X198571562Y-110062890D01*
X198362271Y-110041816D01*
X198359133Y-110041500D01*
X197703646Y-110041500D01*
X197701321Y-110041673D01*
X197701315Y-110041673D01*
X197514000Y-110055593D01*
X197513996Y-110055594D01*
X197509348Y-110055939D01*
X197504800Y-110056968D01*
X197504794Y-110056969D01*
X197318399Y-110099147D01*
X197254423Y-110113623D01*
X197250071Y-110115315D01*
X197250069Y-110115316D01*
X197015176Y-110206660D01*
X197015173Y-110206661D01*
X197010823Y-110208353D01*
X196783902Y-110338049D01*
X196578643Y-110499862D01*
X196399557Y-110690237D01*
X196250576Y-110904991D01*
X196134975Y-111139407D01*
X196055293Y-111388335D01*
X196013279Y-111646307D01*
X196009858Y-111907655D01*
X187527324Y-111907655D01*
X187530142Y-111692345D01*
X187494896Y-111433362D01*
X187480473Y-111383877D01*
X187423068Y-111186932D01*
X187421757Y-111182433D01*
X187312332Y-110945072D01*
X187279519Y-110895024D01*
X187171590Y-110730404D01*
X187171586Y-110730399D01*
X187169024Y-110726491D01*
X186994982Y-110531494D01*
X186794030Y-110364363D01*
X186746844Y-110335730D01*
X186574578Y-110231196D01*
X186574574Y-110231194D01*
X186570581Y-110228771D01*
X186329545Y-110127697D01*
X186076217Y-110063359D01*
X186071566Y-110062891D01*
X186071562Y-110062890D01*
X185862271Y-110041816D01*
X185859133Y-110041500D01*
X185203646Y-110041500D01*
X185201321Y-110041673D01*
X185201315Y-110041673D01*
X185014000Y-110055593D01*
X185013996Y-110055594D01*
X185009348Y-110055939D01*
X185004800Y-110056968D01*
X185004794Y-110056969D01*
X184818399Y-110099147D01*
X184754423Y-110113623D01*
X184750071Y-110115315D01*
X184750069Y-110115316D01*
X184515176Y-110206660D01*
X184515173Y-110206661D01*
X184510823Y-110208353D01*
X184283902Y-110338049D01*
X184078643Y-110499862D01*
X183899557Y-110690237D01*
X183750576Y-110904991D01*
X183634975Y-111139407D01*
X183555293Y-111388335D01*
X183513279Y-111646307D01*
X183509858Y-111907655D01*
X175262324Y-111907655D01*
X175265142Y-111692345D01*
X175229896Y-111433362D01*
X175215473Y-111383877D01*
X175158068Y-111186932D01*
X175156757Y-111182433D01*
X175047332Y-110945072D01*
X175014519Y-110895024D01*
X174906590Y-110730404D01*
X174906586Y-110730399D01*
X174904024Y-110726491D01*
X174729982Y-110531494D01*
X174529030Y-110364363D01*
X174481844Y-110335730D01*
X174309578Y-110231196D01*
X174309574Y-110231194D01*
X174305581Y-110228771D01*
X174064545Y-110127697D01*
X173811217Y-110063359D01*
X173806566Y-110062891D01*
X173806562Y-110062890D01*
X173597271Y-110041816D01*
X173594133Y-110041500D01*
X172938646Y-110041500D01*
X172936321Y-110041673D01*
X172936315Y-110041673D01*
X172749000Y-110055593D01*
X172748996Y-110055594D01*
X172744348Y-110055939D01*
X172739800Y-110056968D01*
X172739794Y-110056969D01*
X172553399Y-110099147D01*
X172489423Y-110113623D01*
X172485071Y-110115315D01*
X172485069Y-110115316D01*
X172250176Y-110206660D01*
X172250173Y-110206661D01*
X172245823Y-110208353D01*
X172018902Y-110338049D01*
X171813643Y-110499862D01*
X171634557Y-110690237D01*
X171485576Y-110904991D01*
X171369975Y-111139407D01*
X171290293Y-111388335D01*
X171248279Y-111646307D01*
X171244858Y-111907655D01*
X162762324Y-111907655D01*
X162765142Y-111692345D01*
X162729896Y-111433362D01*
X162715473Y-111383877D01*
X162658068Y-111186932D01*
X162656757Y-111182433D01*
X162547332Y-110945072D01*
X162514519Y-110895024D01*
X162406590Y-110730404D01*
X162406586Y-110730399D01*
X162404024Y-110726491D01*
X162229982Y-110531494D01*
X162029030Y-110364363D01*
X161981844Y-110335730D01*
X161809578Y-110231196D01*
X161809574Y-110231194D01*
X161805581Y-110228771D01*
X161564545Y-110127697D01*
X161311217Y-110063359D01*
X161306566Y-110062891D01*
X161306562Y-110062890D01*
X161097271Y-110041816D01*
X161094133Y-110041500D01*
X160438646Y-110041500D01*
X160436321Y-110041673D01*
X160436315Y-110041673D01*
X160249000Y-110055593D01*
X160248996Y-110055594D01*
X160244348Y-110055939D01*
X160239800Y-110056968D01*
X160239794Y-110056969D01*
X160053399Y-110099147D01*
X159989423Y-110113623D01*
X159985071Y-110115315D01*
X159985069Y-110115316D01*
X159750176Y-110206660D01*
X159750173Y-110206661D01*
X159745823Y-110208353D01*
X159518902Y-110338049D01*
X159313643Y-110499862D01*
X159134557Y-110690237D01*
X158985576Y-110904991D01*
X158869975Y-111139407D01*
X158790293Y-111388335D01*
X158748279Y-111646307D01*
X158744858Y-111907655D01*
X135892324Y-111907655D01*
X135895142Y-111692345D01*
X135859896Y-111433362D01*
X135845473Y-111383877D01*
X135788068Y-111186932D01*
X135786757Y-111182433D01*
X135677332Y-110945072D01*
X135644519Y-110895024D01*
X135536590Y-110730404D01*
X135536586Y-110730399D01*
X135534024Y-110726491D01*
X135359982Y-110531494D01*
X135159030Y-110364363D01*
X135111844Y-110335730D01*
X134939578Y-110231196D01*
X134939574Y-110231194D01*
X134935581Y-110228771D01*
X134694545Y-110127697D01*
X134441217Y-110063359D01*
X134436566Y-110062891D01*
X134436562Y-110062890D01*
X134227271Y-110041816D01*
X134224133Y-110041500D01*
X133568646Y-110041500D01*
X133566321Y-110041673D01*
X133566315Y-110041673D01*
X133379000Y-110055593D01*
X133378996Y-110055594D01*
X133374348Y-110055939D01*
X133369800Y-110056968D01*
X133369794Y-110056969D01*
X133183399Y-110099147D01*
X133119423Y-110113623D01*
X133115071Y-110115315D01*
X133115069Y-110115316D01*
X132880176Y-110206660D01*
X132880173Y-110206661D01*
X132875823Y-110208353D01*
X132648902Y-110338049D01*
X132443643Y-110499862D01*
X132264557Y-110690237D01*
X132115576Y-110904991D01*
X131999975Y-111139407D01*
X131920293Y-111388335D01*
X131878279Y-111646307D01*
X131874858Y-111907655D01*
X123392324Y-111907655D01*
X123395142Y-111692345D01*
X123359896Y-111433362D01*
X123345473Y-111383877D01*
X123288068Y-111186932D01*
X123286757Y-111182433D01*
X123177332Y-110945072D01*
X123144519Y-110895024D01*
X123036590Y-110730404D01*
X123036586Y-110730399D01*
X123034024Y-110726491D01*
X122859982Y-110531494D01*
X122659030Y-110364363D01*
X122611844Y-110335730D01*
X122439578Y-110231196D01*
X122439574Y-110231194D01*
X122435581Y-110228771D01*
X122194545Y-110127697D01*
X121941217Y-110063359D01*
X121936566Y-110062891D01*
X121936562Y-110062890D01*
X121727271Y-110041816D01*
X121724133Y-110041500D01*
X121068646Y-110041500D01*
X121066321Y-110041673D01*
X121066315Y-110041673D01*
X120879000Y-110055593D01*
X120878996Y-110055594D01*
X120874348Y-110055939D01*
X120869800Y-110056968D01*
X120869794Y-110056969D01*
X120683399Y-110099147D01*
X120619423Y-110113623D01*
X120615071Y-110115315D01*
X120615069Y-110115316D01*
X120380176Y-110206660D01*
X120380173Y-110206661D01*
X120375823Y-110208353D01*
X120148902Y-110338049D01*
X119943643Y-110499862D01*
X119764557Y-110690237D01*
X119615576Y-110904991D01*
X119499975Y-111139407D01*
X119420293Y-111388335D01*
X119378279Y-111646307D01*
X119374858Y-111907655D01*
X115570000Y-111907655D01*
X115570000Y-102846695D01*
X124932251Y-102846695D01*
X124932548Y-102851848D01*
X124932548Y-102851851D01*
X124938011Y-102946590D01*
X124945110Y-103069715D01*
X124946247Y-103074761D01*
X124946248Y-103074767D01*
X124966119Y-103162939D01*
X124994222Y-103287639D01*
X125078266Y-103494616D01*
X125194987Y-103685088D01*
X125341250Y-103853938D01*
X125513126Y-103996632D01*
X125706000Y-104109338D01*
X125914692Y-104189030D01*
X125919760Y-104190061D01*
X125919763Y-104190062D01*
X126027017Y-104211883D01*
X126133597Y-104233567D01*
X126138772Y-104233757D01*
X126138774Y-104233757D01*
X126351673Y-104241564D01*
X126351677Y-104241564D01*
X126356837Y-104241753D01*
X126361957Y-104241097D01*
X126361959Y-104241097D01*
X126573288Y-104214025D01*
X126573289Y-104214025D01*
X126578416Y-104213368D01*
X126583366Y-104211883D01*
X126787429Y-104150661D01*
X126787434Y-104150659D01*
X126792384Y-104149174D01*
X126992994Y-104050896D01*
X127174860Y-103921173D01*
X127333096Y-103763489D01*
X127392594Y-103680689D01*
X127460435Y-103586277D01*
X127463453Y-103582077D01*
X127562430Y-103381811D01*
X127627370Y-103168069D01*
X127656529Y-102946590D01*
X127658156Y-102880000D01*
X127639852Y-102657361D01*
X127585431Y-102440702D01*
X127496354Y-102235840D01*
X127375014Y-102048277D01*
X127224670Y-101883051D01*
X127220619Y-101879852D01*
X127220615Y-101879848D01*
X127053414Y-101747800D01*
X127053410Y-101747798D01*
X127049359Y-101744598D01*
X127008053Y-101721796D01*
X126958084Y-101671364D01*
X126943312Y-101601921D01*
X126968428Y-101535516D01*
X126995780Y-101508909D01*
X127039603Y-101477650D01*
X127174860Y-101381173D01*
X127333096Y-101223489D01*
X127392594Y-101140689D01*
X127460435Y-101046277D01*
X127463453Y-101042077D01*
X127562430Y-100841811D01*
X127627370Y-100628069D01*
X127656529Y-100406590D01*
X127658156Y-100340000D01*
X127639852Y-100117361D01*
X127585431Y-99900702D01*
X127496354Y-99695840D01*
X127375014Y-99508277D01*
X127224670Y-99343051D01*
X127220619Y-99339852D01*
X127220615Y-99339848D01*
X127053414Y-99207800D01*
X127053410Y-99207798D01*
X127049359Y-99204598D01*
X127008053Y-99181796D01*
X126958084Y-99131364D01*
X126943312Y-99061921D01*
X126968428Y-98995516D01*
X126995780Y-98968909D01*
X127039603Y-98937650D01*
X127174860Y-98841173D01*
X127333096Y-98683489D01*
X127392594Y-98600689D01*
X127460435Y-98506277D01*
X127463453Y-98502077D01*
X127562430Y-98301811D01*
X127604238Y-98164205D01*
X127625865Y-98093023D01*
X127625865Y-98093021D01*
X127627370Y-98088069D01*
X127656529Y-97866590D01*
X127658156Y-97800000D01*
X127639852Y-97577361D01*
X127585431Y-97360702D01*
X127496354Y-97155840D01*
X127375014Y-96968277D01*
X127371540Y-96964459D01*
X127371533Y-96964450D01*
X127227435Y-96806088D01*
X127200988Y-96751710D01*
X139082689Y-96751710D01*
X139094964Y-96841904D01*
X139096902Y-96851022D01*
X139167404Y-97092902D01*
X139170667Y-97101633D01*
X139276151Y-97330442D01*
X139280670Y-97338594D01*
X139418808Y-97549291D01*
X139424491Y-97556696D01*
X139592249Y-97744654D01*
X139598965Y-97751139D01*
X139792666Y-97912239D01*
X139800258Y-97917654D01*
X140015646Y-98048354D01*
X140023963Y-98052592D01*
X140256299Y-98150019D01*
X140265149Y-98152980D01*
X140509331Y-98214994D01*
X140518528Y-98216616D01*
X140727753Y-98237684D01*
X140734045Y-98238000D01*
X140797885Y-98238000D01*
X140813124Y-98233525D01*
X140814329Y-98232135D01*
X140816000Y-98224452D01*
X140816000Y-98219885D01*
X141324000Y-98219885D01*
X141328475Y-98235124D01*
X141329865Y-98236329D01*
X141337548Y-98238000D01*
X141383998Y-98238000D01*
X141388673Y-98237827D01*
X141575926Y-98223912D01*
X141585132Y-98222536D01*
X141830874Y-98166929D01*
X141839785Y-98164205D01*
X142074608Y-98072888D01*
X142083017Y-98068877D01*
X142301760Y-97943854D01*
X142309486Y-97938643D01*
X142507350Y-97782659D01*
X142514218Y-97776366D01*
X142686848Y-97592856D01*
X142692722Y-97585602D01*
X142836327Y-97378597D01*
X142841060Y-97370562D01*
X142952495Y-97144593D01*
X142955983Y-97135960D01*
X143032793Y-96896006D01*
X143034973Y-96886924D01*
X143056967Y-96751880D01*
X143056946Y-96751710D01*
X151582689Y-96751710D01*
X151594964Y-96841904D01*
X151596902Y-96851022D01*
X151667404Y-97092902D01*
X151670667Y-97101633D01*
X151776151Y-97330442D01*
X151780670Y-97338594D01*
X151918808Y-97549291D01*
X151924491Y-97556696D01*
X152092249Y-97744654D01*
X152098965Y-97751139D01*
X152292666Y-97912239D01*
X152300258Y-97917654D01*
X152515646Y-98048354D01*
X152523963Y-98052592D01*
X152756299Y-98150019D01*
X152765149Y-98152980D01*
X153009331Y-98214994D01*
X153018528Y-98216616D01*
X153227753Y-98237684D01*
X153234045Y-98238000D01*
X153297885Y-98238000D01*
X153313124Y-98233525D01*
X153314329Y-98232135D01*
X153316000Y-98224452D01*
X153316000Y-98219885D01*
X153824000Y-98219885D01*
X153828475Y-98235124D01*
X153829865Y-98236329D01*
X153837548Y-98238000D01*
X153883998Y-98238000D01*
X153888673Y-98237827D01*
X154075926Y-98223912D01*
X154085132Y-98222536D01*
X154330874Y-98166929D01*
X154339785Y-98164205D01*
X154574608Y-98072888D01*
X154583017Y-98068877D01*
X154801760Y-97943854D01*
X154809486Y-97938643D01*
X155007350Y-97782659D01*
X155014218Y-97776366D01*
X155186848Y-97592856D01*
X155192722Y-97585602D01*
X155336327Y-97378597D01*
X155341060Y-97370562D01*
X155452495Y-97144593D01*
X155455983Y-97135960D01*
X155532793Y-96896006D01*
X155534973Y-96886924D01*
X155556967Y-96751880D01*
X155555271Y-96738286D01*
X155541161Y-96734000D01*
X153842115Y-96734000D01*
X153826876Y-96738475D01*
X153825671Y-96739865D01*
X153824000Y-96747548D01*
X153824000Y-98219885D01*
X153316000Y-98219885D01*
X153316000Y-96752115D01*
X153311525Y-96736876D01*
X153310135Y-96735671D01*
X153302452Y-96734000D01*
X151598394Y-96734000D01*
X151584710Y-96738018D01*
X151582689Y-96751710D01*
X143056946Y-96751710D01*
X143055271Y-96738286D01*
X143041161Y-96734000D01*
X141342115Y-96734000D01*
X141326876Y-96738475D01*
X141325671Y-96739865D01*
X141324000Y-96747548D01*
X141324000Y-98219885D01*
X140816000Y-98219885D01*
X140816000Y-96752115D01*
X140811525Y-96736876D01*
X140810135Y-96735671D01*
X140802452Y-96734000D01*
X139098394Y-96734000D01*
X139084710Y-96738018D01*
X139082689Y-96751710D01*
X127200988Y-96751710D01*
X127196383Y-96742242D01*
X127204779Y-96671744D01*
X127249956Y-96616976D01*
X127276400Y-96603307D01*
X127383052Y-96563325D01*
X127398649Y-96554786D01*
X127500724Y-96478285D01*
X127513285Y-96465724D01*
X127589786Y-96363649D01*
X127598324Y-96348054D01*
X127643478Y-96227606D01*
X127647105Y-96212351D01*
X127647565Y-96208120D01*
X139083033Y-96208120D01*
X139084729Y-96221714D01*
X139098839Y-96226000D01*
X140797885Y-96226000D01*
X140813124Y-96221525D01*
X140814329Y-96220135D01*
X140816000Y-96212452D01*
X140816000Y-96207885D01*
X141324000Y-96207885D01*
X141328475Y-96223124D01*
X141329865Y-96224329D01*
X141337548Y-96226000D01*
X143041606Y-96226000D01*
X143055290Y-96221982D01*
X143057311Y-96208290D01*
X143057288Y-96208120D01*
X151583033Y-96208120D01*
X151584729Y-96221714D01*
X151598839Y-96226000D01*
X153297885Y-96226000D01*
X153313124Y-96221525D01*
X153314329Y-96220135D01*
X153316000Y-96212452D01*
X153316000Y-96207885D01*
X153824000Y-96207885D01*
X153828475Y-96223124D01*
X153829865Y-96224329D01*
X153837548Y-96226000D01*
X155541606Y-96226000D01*
X155555290Y-96221982D01*
X155557311Y-96208290D01*
X155545036Y-96118096D01*
X155543098Y-96108978D01*
X155472596Y-95867098D01*
X155469333Y-95858367D01*
X155363849Y-95629558D01*
X155359330Y-95621406D01*
X155221192Y-95410709D01*
X155215509Y-95403304D01*
X155047751Y-95215346D01*
X155041035Y-95208861D01*
X154847334Y-95047761D01*
X154839742Y-95042346D01*
X154624354Y-94911646D01*
X154616037Y-94907408D01*
X154383701Y-94809981D01*
X154374851Y-94807020D01*
X154130669Y-94745006D01*
X154121472Y-94743384D01*
X153912247Y-94722316D01*
X153905955Y-94722000D01*
X153842115Y-94722000D01*
X153826876Y-94726475D01*
X153825671Y-94727865D01*
X153824000Y-94735548D01*
X153824000Y-96207885D01*
X153316000Y-96207885D01*
X153316000Y-94740115D01*
X153311525Y-94724876D01*
X153310135Y-94723671D01*
X153302452Y-94722000D01*
X153256002Y-94722000D01*
X153251327Y-94722173D01*
X153064074Y-94736088D01*
X153054868Y-94737464D01*
X152809126Y-94793071D01*
X152800215Y-94795795D01*
X152565392Y-94887112D01*
X152556983Y-94891123D01*
X152338240Y-95016146D01*
X152330514Y-95021357D01*
X152132650Y-95177341D01*
X152125782Y-95183634D01*
X151953152Y-95367144D01*
X151947278Y-95374398D01*
X151803673Y-95581403D01*
X151798940Y-95589438D01*
X151687505Y-95815407D01*
X151684017Y-95824040D01*
X151607207Y-96063994D01*
X151605027Y-96073076D01*
X151583033Y-96208120D01*
X143057288Y-96208120D01*
X143045036Y-96118096D01*
X143043098Y-96108978D01*
X142972596Y-95867098D01*
X142969333Y-95858367D01*
X142863849Y-95629558D01*
X142859330Y-95621406D01*
X142721192Y-95410709D01*
X142715509Y-95403304D01*
X142547751Y-95215346D01*
X142541035Y-95208861D01*
X142347334Y-95047761D01*
X142339742Y-95042346D01*
X142124354Y-94911646D01*
X142116037Y-94907408D01*
X141883701Y-94809981D01*
X141874851Y-94807020D01*
X141630669Y-94745006D01*
X141621472Y-94743384D01*
X141412247Y-94722316D01*
X141405955Y-94722000D01*
X141342115Y-94722000D01*
X141326876Y-94726475D01*
X141325671Y-94727865D01*
X141324000Y-94735548D01*
X141324000Y-96207885D01*
X140816000Y-96207885D01*
X140816000Y-94740115D01*
X140811525Y-94724876D01*
X140810135Y-94723671D01*
X140802452Y-94722000D01*
X140756002Y-94722000D01*
X140751327Y-94722173D01*
X140564074Y-94736088D01*
X140554868Y-94737464D01*
X140309126Y-94793071D01*
X140300215Y-94795795D01*
X140065392Y-94887112D01*
X140056983Y-94891123D01*
X139838240Y-95016146D01*
X139830514Y-95021357D01*
X139632650Y-95177341D01*
X139625782Y-95183634D01*
X139453152Y-95367144D01*
X139447278Y-95374398D01*
X139303673Y-95581403D01*
X139298940Y-95589438D01*
X139187505Y-95815407D01*
X139184017Y-95824040D01*
X139107207Y-96063994D01*
X139105027Y-96073076D01*
X139083033Y-96208120D01*
X127647565Y-96208120D01*
X127652631Y-96161486D01*
X127653000Y-96154672D01*
X127653000Y-95532115D01*
X127648525Y-95516876D01*
X127647135Y-95515671D01*
X127639452Y-95514000D01*
X124955116Y-95514000D01*
X124939877Y-95518475D01*
X124938672Y-95519865D01*
X124937001Y-95527548D01*
X124937001Y-96154669D01*
X124937371Y-96161490D01*
X124942895Y-96212352D01*
X124946521Y-96227604D01*
X124991676Y-96348054D01*
X125000214Y-96363649D01*
X125076715Y-96465724D01*
X125089276Y-96478285D01*
X125191351Y-96554786D01*
X125206946Y-96563324D01*
X125315827Y-96604142D01*
X125372591Y-96646784D01*
X125397291Y-96713345D01*
X125382083Y-96782694D01*
X125362691Y-96809175D01*
X125283966Y-96891556D01*
X125235629Y-96942138D01*
X125109743Y-97126680D01*
X125094003Y-97160590D01*
X125022884Y-97313803D01*
X125015688Y-97329305D01*
X124955989Y-97544570D01*
X124932251Y-97766695D01*
X124932548Y-97771848D01*
X124932548Y-97771851D01*
X124938011Y-97866590D01*
X124945110Y-97989715D01*
X124946247Y-97994761D01*
X124946248Y-97994767D01*
X124958325Y-98048354D01*
X124994222Y-98207639D01*
X125078266Y-98414616D01*
X125194987Y-98605088D01*
X125341250Y-98773938D01*
X125513126Y-98916632D01*
X125583595Y-98957811D01*
X125586445Y-98959476D01*
X125635169Y-99011114D01*
X125648240Y-99080897D01*
X125621509Y-99146669D01*
X125581055Y-99180027D01*
X125568607Y-99186507D01*
X125564474Y-99189610D01*
X125564471Y-99189612D01*
X125540247Y-99207800D01*
X125389965Y-99320635D01*
X125235629Y-99482138D01*
X125109743Y-99666680D01*
X125015688Y-99869305D01*
X124955989Y-100084570D01*
X124932251Y-100306695D01*
X124932548Y-100311848D01*
X124932548Y-100311851D01*
X124938011Y-100406590D01*
X124945110Y-100529715D01*
X124946247Y-100534761D01*
X124946248Y-100534767D01*
X124966119Y-100622939D01*
X124994222Y-100747639D01*
X125078266Y-100954616D01*
X125194987Y-101145088D01*
X125341250Y-101313938D01*
X125513126Y-101456632D01*
X125583595Y-101497811D01*
X125586445Y-101499476D01*
X125635169Y-101551114D01*
X125648240Y-101620897D01*
X125621509Y-101686669D01*
X125581055Y-101720027D01*
X125568607Y-101726507D01*
X125564474Y-101729610D01*
X125564471Y-101729612D01*
X125540247Y-101747800D01*
X125389965Y-101860635D01*
X125235629Y-102022138D01*
X125109743Y-102206680D01*
X125015688Y-102409305D01*
X124955989Y-102624570D01*
X124932251Y-102846695D01*
X115570000Y-102846695D01*
X115570000Y-94987885D01*
X124937000Y-94987885D01*
X124941475Y-95003124D01*
X124942865Y-95004329D01*
X124950548Y-95006000D01*
X126022885Y-95006000D01*
X126038124Y-95001525D01*
X126039329Y-95000135D01*
X126041000Y-94992452D01*
X126041000Y-94987885D01*
X126549000Y-94987885D01*
X126553475Y-95003124D01*
X126554865Y-95004329D01*
X126562548Y-95006000D01*
X127634884Y-95006000D01*
X127650123Y-95001525D01*
X127651328Y-95000135D01*
X127652999Y-94992452D01*
X127652999Y-94365331D01*
X127652629Y-94358510D01*
X127647105Y-94307648D01*
X127643479Y-94292396D01*
X127598324Y-94171946D01*
X127589786Y-94156351D01*
X127513285Y-94054276D01*
X127500724Y-94041715D01*
X127398649Y-93965214D01*
X127383054Y-93956676D01*
X127262606Y-93911522D01*
X127247351Y-93907895D01*
X127196486Y-93902369D01*
X127189672Y-93902000D01*
X126567115Y-93902000D01*
X126551876Y-93906475D01*
X126550671Y-93907865D01*
X126549000Y-93915548D01*
X126549000Y-94987885D01*
X126041000Y-94987885D01*
X126041000Y-93920116D01*
X126036525Y-93904877D01*
X126035135Y-93903672D01*
X126027452Y-93902001D01*
X125400331Y-93902001D01*
X125393510Y-93902371D01*
X125342648Y-93907895D01*
X125327396Y-93911521D01*
X125206946Y-93956676D01*
X125191351Y-93965214D01*
X125089276Y-94041715D01*
X125076715Y-94054276D01*
X125000214Y-94156351D01*
X124991676Y-94171946D01*
X124946522Y-94292394D01*
X124942895Y-94307649D01*
X124937369Y-94358514D01*
X124937000Y-94365328D01*
X124937000Y-94987885D01*
X115570000Y-94987885D01*
X115570000Y-92836000D01*
X115590002Y-92767879D01*
X115643658Y-92721386D01*
X115696000Y-92710000D01*
X125730000Y-92710000D01*
X125730000Y-91587655D01*
X139059858Y-91587655D01*
X139095104Y-91846638D01*
X139096412Y-91851124D01*
X139096412Y-91851126D01*
X139116098Y-91918664D01*
X139168243Y-92097567D01*
X139277668Y-92334928D01*
X139299847Y-92368757D01*
X139418410Y-92549596D01*
X139418414Y-92549601D01*
X139420976Y-92553509D01*
X139595018Y-92748506D01*
X139795970Y-92915637D01*
X139799973Y-92918066D01*
X140015422Y-93048804D01*
X140015426Y-93048806D01*
X140019419Y-93051229D01*
X140260455Y-93152303D01*
X140513783Y-93216641D01*
X140518434Y-93217109D01*
X140518438Y-93217110D01*
X140711308Y-93236531D01*
X140730867Y-93238500D01*
X141386354Y-93238500D01*
X141388679Y-93238327D01*
X141388685Y-93238327D01*
X141576000Y-93224407D01*
X141576004Y-93224406D01*
X141580652Y-93224061D01*
X141585200Y-93223032D01*
X141585206Y-93223031D01*
X141771601Y-93180853D01*
X141835577Y-93166377D01*
X141871769Y-93152303D01*
X142074824Y-93073340D01*
X142074827Y-93073339D01*
X142079177Y-93071647D01*
X142306098Y-92941951D01*
X142511357Y-92780138D01*
X142690443Y-92589763D01*
X142839424Y-92375009D01*
X142842507Y-92368757D01*
X142952960Y-92144781D01*
X142952961Y-92144778D01*
X142955025Y-92140593D01*
X142972134Y-92087146D01*
X143033280Y-91896123D01*
X143034707Y-91891665D01*
X143076721Y-91633693D01*
X143077324Y-91587655D01*
X151559858Y-91587655D01*
X151595104Y-91846638D01*
X151596412Y-91851124D01*
X151596412Y-91851126D01*
X151616098Y-91918664D01*
X151668243Y-92097567D01*
X151777668Y-92334928D01*
X151799847Y-92368757D01*
X151918410Y-92549596D01*
X151918414Y-92549601D01*
X151920976Y-92553509D01*
X152095018Y-92748506D01*
X152295970Y-92915637D01*
X152299973Y-92918066D01*
X152515422Y-93048804D01*
X152515426Y-93048806D01*
X152519419Y-93051229D01*
X152760455Y-93152303D01*
X153013783Y-93216641D01*
X153018434Y-93217109D01*
X153018438Y-93217110D01*
X153211308Y-93236531D01*
X153230867Y-93238500D01*
X153886354Y-93238500D01*
X153888679Y-93238327D01*
X153888685Y-93238327D01*
X154076000Y-93224407D01*
X154076004Y-93224406D01*
X154080652Y-93224061D01*
X154085200Y-93223032D01*
X154085206Y-93223031D01*
X154271601Y-93180853D01*
X154335577Y-93166377D01*
X154371769Y-93152303D01*
X154574824Y-93073340D01*
X154574827Y-93073339D01*
X154579177Y-93071647D01*
X154806098Y-92941951D01*
X155011357Y-92780138D01*
X155190443Y-92589763D01*
X155339424Y-92375009D01*
X155342507Y-92368757D01*
X155452960Y-92144781D01*
X155452961Y-92144778D01*
X155455025Y-92140593D01*
X155472134Y-92087146D01*
X155533280Y-91896123D01*
X155534707Y-91891665D01*
X155576721Y-91633693D01*
X155578385Y-91506590D01*
X155579693Y-91406695D01*
X176437251Y-91406695D01*
X176450110Y-91629715D01*
X176451247Y-91634761D01*
X176451248Y-91634767D01*
X176465606Y-91698475D01*
X176499222Y-91847639D01*
X176583266Y-92054616D01*
X176633229Y-92136148D01*
X176697291Y-92240688D01*
X176699987Y-92245088D01*
X176846250Y-92413938D01*
X177018126Y-92556632D01*
X177211000Y-92669338D01*
X177215825Y-92671180D01*
X177215826Y-92671181D01*
X177282004Y-92696452D01*
X177419692Y-92749030D01*
X177424760Y-92750061D01*
X177424763Y-92750062D01*
X177512337Y-92767879D01*
X177638597Y-92793567D01*
X177643772Y-92793757D01*
X177643774Y-92793757D01*
X177856673Y-92801564D01*
X177856677Y-92801564D01*
X177861837Y-92801753D01*
X177866957Y-92801097D01*
X177866959Y-92801097D01*
X178078288Y-92774025D01*
X178078289Y-92774025D01*
X178083416Y-92773368D01*
X178101712Y-92767879D01*
X178292429Y-92710661D01*
X178292434Y-92710659D01*
X178297384Y-92709174D01*
X178497994Y-92610896D01*
X178679860Y-92481173D01*
X178838096Y-92323489D01*
X178897594Y-92240689D01*
X178968453Y-92142077D01*
X178969776Y-92143028D01*
X179016645Y-92099857D01*
X179086580Y-92087625D01*
X179152026Y-92115144D01*
X179179875Y-92146994D01*
X179239987Y-92245088D01*
X179386250Y-92413938D01*
X179558126Y-92556632D01*
X179751000Y-92669338D01*
X179755825Y-92671180D01*
X179755826Y-92671181D01*
X179822004Y-92696452D01*
X179959692Y-92749030D01*
X179964760Y-92750061D01*
X179964763Y-92750062D01*
X180052337Y-92767879D01*
X180178597Y-92793567D01*
X180183772Y-92793757D01*
X180183774Y-92793757D01*
X180396673Y-92801564D01*
X180396677Y-92801564D01*
X180401837Y-92801753D01*
X180406957Y-92801097D01*
X180406959Y-92801097D01*
X180618288Y-92774025D01*
X180618289Y-92774025D01*
X180623416Y-92773368D01*
X180641712Y-92767879D01*
X180832429Y-92710661D01*
X180832434Y-92710659D01*
X180837384Y-92709174D01*
X181037994Y-92610896D01*
X181219860Y-92481173D01*
X181378096Y-92323489D01*
X181437594Y-92240689D01*
X181508453Y-92142077D01*
X181509776Y-92143028D01*
X181556645Y-92099857D01*
X181626580Y-92087625D01*
X181692026Y-92115144D01*
X181719875Y-92146994D01*
X181779987Y-92245088D01*
X181926250Y-92413938D01*
X182098126Y-92556632D01*
X182160656Y-92593171D01*
X182184070Y-92606853D01*
X182232794Y-92658491D01*
X182246500Y-92715641D01*
X182246500Y-95817476D01*
X182226498Y-95885597D01*
X182214142Y-95901779D01*
X182140960Y-95983056D01*
X182045473Y-96148444D01*
X181986458Y-96330072D01*
X181966496Y-96520000D01*
X181967186Y-96526565D01*
X181975340Y-96604142D01*
X181986458Y-96709928D01*
X182045473Y-96891556D01*
X182140960Y-97056944D01*
X182145378Y-97061851D01*
X182145379Y-97061852D01*
X182207978Y-97131375D01*
X182268747Y-97198866D01*
X182423248Y-97311118D01*
X182429276Y-97313802D01*
X182429278Y-97313803D01*
X182556762Y-97370562D01*
X182597712Y-97388794D01*
X182691112Y-97408647D01*
X182778056Y-97427128D01*
X182778061Y-97427128D01*
X182784513Y-97428500D01*
X182975487Y-97428500D01*
X182981939Y-97427128D01*
X182981944Y-97427128D01*
X183068888Y-97408647D01*
X183162288Y-97388794D01*
X183203238Y-97370562D01*
X183330722Y-97313803D01*
X183330724Y-97313802D01*
X183336752Y-97311118D01*
X183491253Y-97198866D01*
X183552022Y-97131375D01*
X183614621Y-97061852D01*
X183614622Y-97061851D01*
X183619040Y-97056944D01*
X183714527Y-96891556D01*
X183773542Y-96709928D01*
X183784661Y-96604142D01*
X183792814Y-96526565D01*
X183793504Y-96520000D01*
X183773542Y-96330072D01*
X183714527Y-96148444D01*
X183619040Y-95983056D01*
X183545863Y-95901785D01*
X183515147Y-95837779D01*
X183513500Y-95817476D01*
X183513500Y-92720427D01*
X183533502Y-92652306D01*
X183574618Y-92612550D01*
X183577994Y-92610896D01*
X183759860Y-92481173D01*
X183918096Y-92323489D01*
X183977594Y-92240689D01*
X184048453Y-92142077D01*
X184049776Y-92143028D01*
X184096645Y-92099857D01*
X184166580Y-92087625D01*
X184232026Y-92115144D01*
X184259875Y-92146994D01*
X184319987Y-92245088D01*
X184466250Y-92413938D01*
X184638126Y-92556632D01*
X184831000Y-92669338D01*
X184835825Y-92671180D01*
X184835826Y-92671181D01*
X184902004Y-92696452D01*
X185039692Y-92749030D01*
X185044760Y-92750061D01*
X185044763Y-92750062D01*
X185132337Y-92767879D01*
X185258597Y-92793567D01*
X185263772Y-92793757D01*
X185263774Y-92793757D01*
X185476673Y-92801564D01*
X185476677Y-92801564D01*
X185481837Y-92801753D01*
X185486957Y-92801097D01*
X185486959Y-92801097D01*
X185698288Y-92774025D01*
X185698289Y-92774025D01*
X185703416Y-92773368D01*
X185721712Y-92767879D01*
X185912429Y-92710661D01*
X185912434Y-92710659D01*
X185917384Y-92709174D01*
X186117994Y-92610896D01*
X186299860Y-92481173D01*
X186458096Y-92323489D01*
X186458562Y-92323957D01*
X186514732Y-92287146D01*
X186585726Y-92286512D01*
X186645792Y-92324361D01*
X186665408Y-92354267D01*
X186672759Y-92369958D01*
X186758063Y-92507807D01*
X186767099Y-92519208D01*
X186881829Y-92633739D01*
X186893240Y-92642751D01*
X187031243Y-92727816D01*
X187044424Y-92733963D01*
X187198710Y-92785138D01*
X187212086Y-92788005D01*
X187306438Y-92797672D01*
X187312854Y-92798000D01*
X187687885Y-92798000D01*
X187703124Y-92793525D01*
X187704329Y-92792135D01*
X187706000Y-92784452D01*
X187706000Y-92779884D01*
X188214000Y-92779884D01*
X188218475Y-92795123D01*
X188219865Y-92796328D01*
X188227548Y-92797999D01*
X188607095Y-92797999D01*
X188613614Y-92797662D01*
X188709206Y-92787743D01*
X188722600Y-92784851D01*
X188876784Y-92733412D01*
X188889962Y-92727239D01*
X189027807Y-92641937D01*
X189039208Y-92632901D01*
X189153739Y-92518171D01*
X189162751Y-92506760D01*
X189247816Y-92368757D01*
X189253963Y-92355576D01*
X189305138Y-92201290D01*
X189308005Y-92187914D01*
X189317672Y-92093562D01*
X189318000Y-92087146D01*
X189318000Y-91712115D01*
X189313525Y-91696876D01*
X189312135Y-91695671D01*
X189304452Y-91694000D01*
X188232115Y-91694000D01*
X188216876Y-91698475D01*
X188215671Y-91699865D01*
X188214000Y-91707548D01*
X188214000Y-92779884D01*
X187706000Y-92779884D01*
X187706000Y-91312000D01*
X187726002Y-91243879D01*
X187779658Y-91197386D01*
X187832000Y-91186000D01*
X189299884Y-91186000D01*
X189315123Y-91181525D01*
X189316328Y-91180135D01*
X189317999Y-91172452D01*
X189317999Y-90792905D01*
X189317662Y-90786386D01*
X189307743Y-90690794D01*
X189304851Y-90677400D01*
X189253412Y-90523216D01*
X189247239Y-90510038D01*
X189161937Y-90372193D01*
X189152901Y-90360792D01*
X189038171Y-90246261D01*
X189026760Y-90237249D01*
X188888757Y-90152184D01*
X188874478Y-90145525D01*
X188821193Y-90098607D01*
X188801732Y-90030330D01*
X188822274Y-89962370D01*
X188840475Y-89941790D01*
X188839860Y-89941173D01*
X188974956Y-89806548D01*
X188998096Y-89783489D01*
X189026105Y-89744511D01*
X189125435Y-89606277D01*
X189128453Y-89602077D01*
X189149320Y-89559857D01*
X189225136Y-89406453D01*
X189225137Y-89406451D01*
X189227430Y-89401811D01*
X189292370Y-89188069D01*
X189321529Y-88966590D01*
X189323156Y-88900000D01*
X189304852Y-88677361D01*
X189250431Y-88460702D01*
X189161354Y-88255840D01*
X189040014Y-88068277D01*
X188889670Y-87903051D01*
X188885619Y-87899852D01*
X188885615Y-87899848D01*
X188718414Y-87767800D01*
X188718410Y-87767798D01*
X188714359Y-87764598D01*
X188518789Y-87656638D01*
X188513920Y-87654914D01*
X188513916Y-87654912D01*
X188313087Y-87583795D01*
X188313083Y-87583794D01*
X188308212Y-87582069D01*
X188303119Y-87581162D01*
X188303116Y-87581161D01*
X188093373Y-87543800D01*
X188093367Y-87543799D01*
X188088284Y-87542894D01*
X188014452Y-87541992D01*
X187870081Y-87540228D01*
X187870079Y-87540228D01*
X187864911Y-87540165D01*
X187644091Y-87573955D01*
X187431756Y-87643357D01*
X187233607Y-87746507D01*
X187229474Y-87749610D01*
X187229471Y-87749612D01*
X187205247Y-87767800D01*
X187054965Y-87880635D01*
X186900629Y-88042138D01*
X186793201Y-88199621D01*
X186738293Y-88244621D01*
X186667768Y-88252792D01*
X186604021Y-88221538D01*
X186583324Y-88197054D01*
X186502822Y-88072617D01*
X186502820Y-88072614D01*
X186500014Y-88068277D01*
X186349670Y-87903051D01*
X186345619Y-87899852D01*
X186345615Y-87899848D01*
X186178414Y-87767800D01*
X186178410Y-87767798D01*
X186174359Y-87764598D01*
X185978789Y-87656638D01*
X185973920Y-87654914D01*
X185973916Y-87654912D01*
X185773087Y-87583795D01*
X185773083Y-87583794D01*
X185768212Y-87582069D01*
X185763119Y-87581162D01*
X185763116Y-87581161D01*
X185553373Y-87543800D01*
X185553367Y-87543799D01*
X185548284Y-87542894D01*
X185474452Y-87541992D01*
X185330081Y-87540228D01*
X185330079Y-87540228D01*
X185324911Y-87540165D01*
X185104091Y-87573955D01*
X184891756Y-87643357D01*
X184693607Y-87746507D01*
X184689474Y-87749610D01*
X184689471Y-87749612D01*
X184665247Y-87767800D01*
X184514965Y-87880635D01*
X184360629Y-88042138D01*
X184253201Y-88199621D01*
X184198293Y-88244621D01*
X184127768Y-88252792D01*
X184064021Y-88221538D01*
X184043324Y-88197054D01*
X183962822Y-88072617D01*
X183962820Y-88072614D01*
X183960014Y-88068277D01*
X183809670Y-87903051D01*
X183805619Y-87899852D01*
X183805615Y-87899848D01*
X183638414Y-87767800D01*
X183638410Y-87767798D01*
X183634359Y-87764598D01*
X183438789Y-87656638D01*
X183433920Y-87654914D01*
X183433916Y-87654912D01*
X183233087Y-87583795D01*
X183233083Y-87583794D01*
X183228212Y-87582069D01*
X183223119Y-87581162D01*
X183223116Y-87581161D01*
X183013373Y-87543800D01*
X183013367Y-87543799D01*
X183008284Y-87542894D01*
X182934452Y-87541992D01*
X182790081Y-87540228D01*
X182790079Y-87540228D01*
X182784911Y-87540165D01*
X182564091Y-87573955D01*
X182351756Y-87643357D01*
X182153607Y-87746507D01*
X182149474Y-87749610D01*
X182149471Y-87749612D01*
X182125247Y-87767800D01*
X181974965Y-87880635D01*
X181820629Y-88042138D01*
X181713201Y-88199621D01*
X181658293Y-88244621D01*
X181587768Y-88252792D01*
X181524021Y-88221538D01*
X181503324Y-88197054D01*
X181422822Y-88072617D01*
X181422820Y-88072614D01*
X181420014Y-88068277D01*
X181269670Y-87903051D01*
X181265619Y-87899852D01*
X181265615Y-87899848D01*
X181098414Y-87767800D01*
X181098410Y-87767798D01*
X181094359Y-87764598D01*
X180898789Y-87656638D01*
X180893920Y-87654914D01*
X180893916Y-87654912D01*
X180693087Y-87583795D01*
X180693083Y-87583794D01*
X180688212Y-87582069D01*
X180683119Y-87581162D01*
X180683116Y-87581161D01*
X180473373Y-87543800D01*
X180473367Y-87543799D01*
X180468284Y-87542894D01*
X180394452Y-87541992D01*
X180250081Y-87540228D01*
X180250079Y-87540228D01*
X180244911Y-87540165D01*
X180024091Y-87573955D01*
X179811756Y-87643357D01*
X179613607Y-87746507D01*
X179609474Y-87749610D01*
X179609471Y-87749612D01*
X179585247Y-87767800D01*
X179434965Y-87880635D01*
X179280629Y-88042138D01*
X179173201Y-88199621D01*
X179118293Y-88244621D01*
X179047768Y-88252792D01*
X178984021Y-88221538D01*
X178963324Y-88197054D01*
X178882822Y-88072617D01*
X178882820Y-88072614D01*
X178880014Y-88068277D01*
X178729670Y-87903051D01*
X178725619Y-87899852D01*
X178725615Y-87899848D01*
X178558414Y-87767800D01*
X178558410Y-87767798D01*
X178554359Y-87764598D01*
X178358789Y-87656638D01*
X178353920Y-87654914D01*
X178353916Y-87654912D01*
X178153087Y-87583795D01*
X178153083Y-87583794D01*
X178148212Y-87582069D01*
X178143119Y-87581162D01*
X178143116Y-87581161D01*
X177933373Y-87543800D01*
X177933367Y-87543799D01*
X177928284Y-87542894D01*
X177854452Y-87541992D01*
X177710081Y-87540228D01*
X177710079Y-87540228D01*
X177704911Y-87540165D01*
X177484091Y-87573955D01*
X177271756Y-87643357D01*
X177073607Y-87746507D01*
X177069474Y-87749610D01*
X177069471Y-87749612D01*
X177045247Y-87767800D01*
X176894965Y-87880635D01*
X176740629Y-88042138D01*
X176614743Y-88226680D01*
X176520688Y-88429305D01*
X176460989Y-88644570D01*
X176437251Y-88866695D01*
X176437548Y-88871848D01*
X176437548Y-88871851D01*
X176443011Y-88966590D01*
X176450110Y-89089715D01*
X176451247Y-89094761D01*
X176451248Y-89094767D01*
X176471119Y-89182939D01*
X176499222Y-89307639D01*
X176583266Y-89514616D01*
X176634019Y-89597438D01*
X176697291Y-89700688D01*
X176699987Y-89705088D01*
X176846250Y-89873938D01*
X177018126Y-90016632D01*
X177065582Y-90044363D01*
X177091445Y-90059476D01*
X177140169Y-90111114D01*
X177153240Y-90180897D01*
X177126509Y-90246669D01*
X177086055Y-90280027D01*
X177073607Y-90286507D01*
X177069474Y-90289610D01*
X177069471Y-90289612D01*
X176913803Y-90406491D01*
X176894965Y-90420635D01*
X176740629Y-90582138D01*
X176737720Y-90586403D01*
X176737714Y-90586411D01*
X176727289Y-90601694D01*
X176614743Y-90766680D01*
X176520688Y-90969305D01*
X176460989Y-91184570D01*
X176437251Y-91406695D01*
X155579693Y-91406695D01*
X155580081Y-91377022D01*
X155580081Y-91377019D01*
X155580142Y-91372345D01*
X155544896Y-91113362D01*
X155530473Y-91063877D01*
X155473068Y-90866932D01*
X155471757Y-90862433D01*
X155362332Y-90625072D01*
X155287703Y-90511244D01*
X155221590Y-90410404D01*
X155221586Y-90410399D01*
X155219024Y-90406491D01*
X155044982Y-90211494D01*
X154844030Y-90044363D01*
X154792884Y-90013327D01*
X154624578Y-89911196D01*
X154624574Y-89911194D01*
X154620581Y-89908771D01*
X154379545Y-89807697D01*
X154126217Y-89743359D01*
X154121566Y-89742891D01*
X154121562Y-89742890D01*
X153912271Y-89721816D01*
X153909133Y-89721500D01*
X153253646Y-89721500D01*
X153251321Y-89721673D01*
X153251315Y-89721673D01*
X153064000Y-89735593D01*
X153063996Y-89735594D01*
X153059348Y-89735939D01*
X153054800Y-89736968D01*
X153054794Y-89736969D01*
X152868399Y-89779147D01*
X152804423Y-89793623D01*
X152800071Y-89795315D01*
X152800069Y-89795316D01*
X152565176Y-89886660D01*
X152565173Y-89886661D01*
X152560823Y-89888353D01*
X152333902Y-90018049D01*
X152128643Y-90179862D01*
X151949557Y-90370237D01*
X151896391Y-90446875D01*
X151805148Y-90578401D01*
X151800576Y-90584991D01*
X151798510Y-90589181D01*
X151798508Y-90589184D01*
X151702130Y-90784621D01*
X151684975Y-90819407D01*
X151683553Y-90823850D01*
X151683552Y-90823852D01*
X151635395Y-90974297D01*
X151605293Y-91068335D01*
X151563279Y-91326307D01*
X151559858Y-91587655D01*
X143077324Y-91587655D01*
X143078385Y-91506590D01*
X143080081Y-91377022D01*
X143080081Y-91377019D01*
X143080142Y-91372345D01*
X143044896Y-91113362D01*
X143030473Y-91063877D01*
X142973068Y-90866932D01*
X142971757Y-90862433D01*
X142862332Y-90625072D01*
X142787703Y-90511244D01*
X142721590Y-90410404D01*
X142721586Y-90410399D01*
X142719024Y-90406491D01*
X142544982Y-90211494D01*
X142344030Y-90044363D01*
X142292884Y-90013327D01*
X142124578Y-89911196D01*
X142124574Y-89911194D01*
X142120581Y-89908771D01*
X141879545Y-89807697D01*
X141626217Y-89743359D01*
X141621566Y-89742891D01*
X141621562Y-89742890D01*
X141412271Y-89721816D01*
X141409133Y-89721500D01*
X140753646Y-89721500D01*
X140751321Y-89721673D01*
X140751315Y-89721673D01*
X140564000Y-89735593D01*
X140563996Y-89735594D01*
X140559348Y-89735939D01*
X140554800Y-89736968D01*
X140554794Y-89736969D01*
X140368399Y-89779147D01*
X140304423Y-89793623D01*
X140300071Y-89795315D01*
X140300069Y-89795316D01*
X140065176Y-89886660D01*
X140065173Y-89886661D01*
X140060823Y-89888353D01*
X139833902Y-90018049D01*
X139628643Y-90179862D01*
X139449557Y-90370237D01*
X139396391Y-90446875D01*
X139305148Y-90578401D01*
X139300576Y-90584991D01*
X139298510Y-90589181D01*
X139298508Y-90589184D01*
X139202130Y-90784621D01*
X139184975Y-90819407D01*
X139183553Y-90823850D01*
X139183552Y-90823852D01*
X139135395Y-90974297D01*
X139105293Y-91068335D01*
X139063279Y-91326307D01*
X139059858Y-91587655D01*
X125730000Y-91587655D01*
X125730000Y-82676000D01*
X125750002Y-82607879D01*
X125803658Y-82561386D01*
X125856000Y-82550000D01*
X194184000Y-82550000D01*
X194252121Y-82570002D01*
G37*
%TD.AperFunction*%
%TD*%
M02*
