%TF.GenerationSoftware,KiCad,Pcbnew,(6.0.1)*%
%TF.CreationDate,2022-02-12T14:12:32-06:00*%
%TF.ProjectId,sawsetter_buttons,73617773-6574-4746-9572-5f627574746f,rev?*%
%TF.SameCoordinates,Original*%
%TF.FileFunction,Copper,L1,Top*%
%TF.FilePolarity,Positive*%
%FSLAX46Y46*%
G04 Gerber Fmt 4.6, Leading zero omitted, Abs format (unit mm)*
G04 Created by KiCad (PCBNEW (6.0.1)) date 2022-02-12 14:12:32*
%MOMM*%
%LPD*%
G01*
G04 APERTURE LIST*
G04 Aperture macros list*
%AMRoundRect*
0 Rectangle with rounded corners*
0 $1 Rounding radius*
0 $2 $3 $4 $5 $6 $7 $8 $9 X,Y pos of 4 corners*
0 Add a 4 corners polygon primitive as box body*
4,1,4,$2,$3,$4,$5,$6,$7,$8,$9,$2,$3,0*
0 Add four circle primitives for the rounded corners*
1,1,$1+$1,$2,$3*
1,1,$1+$1,$4,$5*
1,1,$1+$1,$6,$7*
1,1,$1+$1,$8,$9*
0 Add four rect primitives between the rounded corners*
20,1,$1+$1,$2,$3,$4,$5,0*
20,1,$1+$1,$4,$5,$6,$7,0*
20,1,$1+$1,$6,$7,$8,$9,0*
20,1,$1+$1,$8,$9,$2,$3,0*%
G04 Aperture macros list end*
%TA.AperFunction,ComponentPad*%
%ADD10O,3.000000X2.500000*%
%TD*%
%TA.AperFunction,ComponentPad*%
%ADD11RoundRect,0.250000X0.600000X-0.600000X0.600000X0.600000X-0.600000X0.600000X-0.600000X-0.600000X0*%
%TD*%
%TA.AperFunction,ComponentPad*%
%ADD12C,1.700000*%
%TD*%
%TA.AperFunction,ComponentPad*%
%ADD13R,1.700000X1.700000*%
%TD*%
%TA.AperFunction,ComponentPad*%
%ADD14O,1.700000X1.700000*%
%TD*%
%TA.AperFunction,ViaPad*%
%ADD15C,0.800000*%
%TD*%
%TA.AperFunction,Conductor*%
%ADD16C,0.508000*%
%TD*%
%TA.AperFunction,Conductor*%
%ADD17C,0.250000*%
%TD*%
G04 APERTURE END LIST*
D10*
%TO.P,SW2,1,1*%
%TO.N,/GO*%
X185520000Y-111800000D03*
X198020000Y-111800000D03*
%TO.P,SW2,2,2*%
%TO.N,GND*%
X185520000Y-116800000D03*
X198020000Y-116800000D03*
%TD*%
%TO.P,SW3,1,1*%
%TO.N,/LEFT*%
X121385000Y-111800000D03*
X133885000Y-111800000D03*
%TO.P,SW3,2,2*%
%TO.N,GND*%
X121385000Y-116800000D03*
X133885000Y-116800000D03*
%TD*%
%TO.P,SW1,1,1*%
%TO.N,/RIGHT*%
X160755000Y-111800000D03*
X173255000Y-111800000D03*
%TO.P,SW1,2,2*%
%TO.N,GND*%
X160755000Y-116800000D03*
X173255000Y-116800000D03*
%TD*%
%TO.P,SW4,1,1*%
%TO.N,/UP*%
X141070000Y-91480000D03*
X153570000Y-91480000D03*
%TO.P,SW4,2,2*%
%TO.N,GND*%
X141070000Y-96480000D03*
X153570000Y-96480000D03*
%TD*%
%TO.P,SW5,1,1*%
%TO.N,/DOWN*%
X153570000Y-130850000D03*
X141070000Y-130850000D03*
%TO.P,SW5,2,2*%
%TO.N,GND*%
X153570000Y-135850000D03*
X141070000Y-135850000D03*
%TD*%
D11*
%TO.P,J1,1,Pin_1*%
%TO.N,GND*%
X187960000Y-91440000D03*
D12*
%TO.P,J1,2,Pin_2*%
%TO.N,+5V*%
X187960000Y-88900000D03*
%TO.P,J1,3,Pin_3*%
%TO.N,/SCL*%
X185420000Y-91440000D03*
%TO.P,J1,4,Pin_4*%
%TO.N,/SDA*%
X185420000Y-88900000D03*
%TO.P,J1,5,Pin_5*%
%TO.N,/RIGHT*%
X182880000Y-91440000D03*
%TO.P,J1,6,Pin_6*%
%TO.N,/UP*%
X182880000Y-88900000D03*
%TO.P,J1,7,Pin_7*%
%TO.N,/GO*%
X180340000Y-91440000D03*
%TO.P,J1,8,Pin_8*%
%TO.N,/DOWN*%
X180340000Y-88900000D03*
%TO.P,J1,9,Pin_9*%
%TO.N,/LEFT*%
X177800000Y-91440000D03*
%TO.P,J1,10,Pin_10*%
%TO.N,unconnected-(J1-Pad10)*%
X177800000Y-88900000D03*
%TD*%
D13*
%TO.P,J2,1,Pin_1*%
%TO.N,GND*%
X126295000Y-95260000D03*
D14*
%TO.P,J2,2,Pin_2*%
%TO.N,+5V*%
X126295000Y-97800000D03*
%TO.P,J2,3,Pin_3*%
%TO.N,/SDA*%
X126295000Y-100340000D03*
%TO.P,J2,4,Pin_4*%
%TO.N,/SCL*%
X126295000Y-102880000D03*
%TD*%
D15*
%TO.N,/RIGHT*%
X182880000Y-96520000D03*
%TD*%
D16*
%TO.N,+5V*%
X182880000Y-83820000D02*
X187960000Y-88900000D01*
X140275000Y-83820000D02*
X182880000Y-83820000D01*
X126295000Y-97800000D02*
X140275000Y-83820000D01*
D17*
%TO.N,/SCL*%
X126295000Y-102305000D02*
X126295000Y-102880000D01*
X182001010Y-86360000D02*
X142240000Y-86360000D01*
X184054511Y-90074511D02*
X184054511Y-88413501D01*
X184054511Y-88413501D02*
X182001010Y-86360000D01*
X142240000Y-86360000D02*
X126295000Y-102305000D01*
X185420000Y-91440000D02*
X184054511Y-90074511D01*
%TO.N,/SDA*%
X185420000Y-87630000D02*
X185420000Y-88900000D01*
X141545000Y-85090000D02*
X182880000Y-85090000D01*
X126295000Y-100340000D02*
X141545000Y-85090000D01*
X182880000Y-85090000D02*
X185420000Y-87630000D01*
%TO.N,/RIGHT*%
X160755000Y-111800000D02*
X173255000Y-111800000D01*
X173255000Y-111800000D02*
X173255000Y-106145000D01*
X173255000Y-106145000D02*
X182880000Y-96520000D01*
%TO.N,/UP*%
X153630000Y-91480000D02*
X157480000Y-87630000D01*
X153570000Y-91480000D02*
X153630000Y-91480000D01*
X157480000Y-87630000D02*
X181610000Y-87630000D01*
X181610000Y-87630000D02*
X182880000Y-88900000D01*
X141070000Y-91480000D02*
X153570000Y-91480000D01*
%TO.N,/GO*%
X185520000Y-111800000D02*
X198020000Y-111800000D01*
X185520000Y-96620000D02*
X180340000Y-91440000D01*
X185520000Y-111800000D02*
X185520000Y-96620000D01*
%TO.N,/DOWN*%
X168910000Y-109220000D02*
X158750000Y-109220000D01*
X178974511Y-99155489D02*
X168910000Y-109220000D01*
X180340000Y-88900000D02*
X178974511Y-90265489D01*
X158750000Y-109220000D02*
X153570000Y-114400000D01*
X178974511Y-90265489D02*
X178974511Y-99155489D01*
X153570000Y-130850000D02*
X141070000Y-130850000D01*
X153570000Y-114400000D02*
X153570000Y-130850000D01*
%TO.N,/LEFT*%
X133885000Y-98525000D02*
X138430000Y-93980000D01*
X133885000Y-111800000D02*
X133885000Y-98525000D01*
X158750000Y-91440000D02*
X177800000Y-91440000D01*
X121385000Y-111800000D02*
X133885000Y-111800000D01*
X156210000Y-93980000D02*
X158750000Y-91440000D01*
X138430000Y-93980000D02*
X156210000Y-93980000D01*
%TD*%
M02*
