M48
; DRILL file {KiCad (6.0.1)} date Sat Feb 12 14:13:04 2022
; FORMAT={-:-/ absolute / inch / decimal}
; #@! TF.CreationDate,2022-02-12T14:13:04-06:00
; #@! TF.GenerationSoftware,Kicad,Pcbnew,(6.0.1)
; #@! TF.FileFunction,Plated,1,2,PTH
FMAT,2
INCH
; #@! TA.AperFunction,Plated,PTH,ViaDrill
T1C0.0157
; #@! TA.AperFunction,Plated,PTH,ComponentDrill
T2C0.0394
; #@! TA.AperFunction,Plated,PTH,ComponentDrill
T3C0.0472
%
G90
G05
T1
X7.2Y-3.8
T2
X4.9722Y-3.7504
X4.9722Y-3.8504
X4.9722Y-3.9504
X4.9722Y-4.0504
X7.0Y-3.5
X7.0Y-3.6
X7.1Y-3.5
X7.1Y-3.6
X7.2Y-3.5
X7.2Y-3.6
X7.3Y-3.5
X7.3Y-3.6
X7.4Y-3.5
X7.4Y-3.6
T3
X4.7789Y-4.4016
X4.7789Y-4.5984
X5.2711Y-4.4016
X5.2711Y-4.5984
X5.5539Y-3.6016
X5.5539Y-3.7984
X5.5539Y-5.1516
X5.5539Y-5.3484
X6.0461Y-3.6016
X6.0461Y-3.7984
X6.0461Y-5.1516
X6.0461Y-5.3484
X6.3289Y-4.4016
X6.3289Y-4.5984
X6.8211Y-4.4016
X6.8211Y-4.5984
X7.3039Y-4.4016
X7.3039Y-4.5984
X7.7961Y-4.4016
X7.7961Y-4.5984
T0
M30
