%TF.GenerationSoftware,KiCad,Pcbnew,(6.0.1)*%
%TF.CreationDate,2022-02-12T14:44:04-06:00*%
%TF.ProjectId,sawsetter_main,73617773-6574-4746-9572-5f6d61696e2e,rev?*%
%TF.SameCoordinates,Original*%
%TF.FileFunction,Copper,L2,Bot*%
%TF.FilePolarity,Positive*%
%FSLAX46Y46*%
G04 Gerber Fmt 4.6, Leading zero omitted, Abs format (unit mm)*
G04 Created by KiCad (PCBNEW (6.0.1)) date 2022-02-12 14:44:04*
%MOMM*%
%LPD*%
G01*
G04 APERTURE LIST*
G04 Aperture macros list*
%AMRoundRect*
0 Rectangle with rounded corners*
0 $1 Rounding radius*
0 $2 $3 $4 $5 $6 $7 $8 $9 X,Y pos of 4 corners*
0 Add a 4 corners polygon primitive as box body*
4,1,4,$2,$3,$4,$5,$6,$7,$8,$9,$2,$3,0*
0 Add four circle primitives for the rounded corners*
1,1,$1+$1,$2,$3*
1,1,$1+$1,$4,$5*
1,1,$1+$1,$6,$7*
1,1,$1+$1,$8,$9*
0 Add four rect primitives between the rounded corners*
20,1,$1+$1,$2,$3,$4,$5,0*
20,1,$1+$1,$4,$5,$6,$7,0*
20,1,$1+$1,$6,$7,$8,$9,0*
20,1,$1+$1,$8,$9,$2,$3,0*%
G04 Aperture macros list end*
%TA.AperFunction,ComponentPad*%
%ADD10R,2.000000X2.000000*%
%TD*%
%TA.AperFunction,ComponentPad*%
%ADD11C,2.000000*%
%TD*%
%TA.AperFunction,ComponentPad*%
%ADD12RoundRect,0.250000X-0.650000X-1.550000X0.650000X-1.550000X0.650000X1.550000X-0.650000X1.550000X0*%
%TD*%
%TA.AperFunction,ComponentPad*%
%ADD13O,1.800000X3.600000*%
%TD*%
%TA.AperFunction,ComponentPad*%
%ADD14RoundRect,0.250000X0.600000X-0.600000X0.600000X0.600000X-0.600000X0.600000X-0.600000X-0.600000X0*%
%TD*%
%TA.AperFunction,ComponentPad*%
%ADD15C,1.700000*%
%TD*%
%TA.AperFunction,ComponentPad*%
%ADD16R,1.600000X1.600000*%
%TD*%
%TA.AperFunction,ComponentPad*%
%ADD17O,1.600000X1.600000*%
%TD*%
%TA.AperFunction,ComponentPad*%
%ADD18R,1.700000X2.500000*%
%TD*%
%TA.AperFunction,ComponentPad*%
%ADD19O,1.700000X2.500000*%
%TD*%
%TA.AperFunction,ViaPad*%
%ADD20C,1.524000*%
%TD*%
%TA.AperFunction,Conductor*%
%ADD21C,0.250000*%
%TD*%
%TA.AperFunction,Conductor*%
%ADD22C,1.270000*%
%TD*%
G04 APERTURE END LIST*
D10*
%TO.P,C3,1*%
%TO.N,+24V*%
X78740000Y-96347677D03*
D11*
%TO.P,C3,2*%
%TO.N,GND*%
X78740000Y-91347677D03*
%TD*%
D12*
%TO.P,J1,1,Pin_1*%
%TO.N,+24V*%
X72390000Y-121920000D03*
D13*
%TO.P,J1,2,Pin_2*%
%TO.N,Net-(J1-Pad2)*%
X76200000Y-121920000D03*
%TO.P,J1,3,Pin_3*%
%TO.N,GND*%
X80010000Y-121920000D03*
%TD*%
D14*
%TO.P,J3,1,Pin_1*%
%TO.N,GND*%
X43180000Y-50282500D03*
D15*
%TO.P,J3,2,Pin_2*%
%TO.N,+5V*%
X43180000Y-47742500D03*
%TO.P,J3,3,Pin_3*%
%TO.N,/SCL*%
X45720000Y-50282500D03*
%TO.P,J3,4,Pin_4*%
%TO.N,/SDA*%
X45720000Y-47742500D03*
%TO.P,J3,5,Pin_5*%
%TO.N,/RIGHT*%
X48260000Y-50282500D03*
%TO.P,J3,6,Pin_6*%
%TO.N,/UP*%
X48260000Y-47742500D03*
%TO.P,J3,7,Pin_7*%
%TO.N,/GO*%
X50800000Y-50282500D03*
%TO.P,J3,8,Pin_8*%
%TO.N,/DOWN*%
X50800000Y-47742500D03*
%TO.P,J3,9,Pin_9*%
%TO.N,/LEFT*%
X53340000Y-50282500D03*
%TO.P,J3,10,Pin_10*%
%TO.N,unconnected-(J3-Pad10)*%
X53340000Y-47742500D03*
%TD*%
D12*
%TO.P,J5,1,Pin_1*%
%TO.N,+24V*%
X100330000Y-121920000D03*
D13*
%TO.P,J5,2,Pin_2*%
%TO.N,GND*%
X105410000Y-121920000D03*
%TD*%
D16*
%TO.P,A1,1,GND*%
%TO.N,GND*%
X50800000Y-106670000D03*
D17*
%TO.P,A1,2,~{FLT}*%
%TO.N,/nFAULT*%
X53340000Y-106670000D03*
%TO.P,A1,3,A2*%
%TO.N,Net-(A1-Pad3)*%
X55880000Y-106670000D03*
%TO.P,A1,4,A1*%
%TO.N,Net-(A1-Pad4)*%
X58420000Y-106670000D03*
%TO.P,A1,5,B1*%
%TO.N,Net-(A1-Pad5)*%
X60960000Y-106670000D03*
%TO.P,A1,6,B2*%
%TO.N,Net-(A1-Pad6)*%
X63500000Y-106670000D03*
%TO.P,A1,7,GND*%
%TO.N,GND*%
X66040000Y-106670000D03*
%TO.P,A1,8,VMOT*%
%TO.N,+24V*%
X68580000Y-106670000D03*
%TO.P,A1,9,~{EN}*%
%TO.N,unconnected-(A1-Pad9)*%
X68580000Y-93970000D03*
%TO.P,A1,10,M0*%
%TO.N,unconnected-(A1-Pad10)*%
X66040000Y-93970000D03*
%TO.P,A1,11,M1*%
%TO.N,unconnected-(A1-Pad11)*%
X63500000Y-93970000D03*
%TO.P,A1,12,M2*%
%TO.N,unconnected-(A1-Pad12)*%
X60960000Y-93970000D03*
%TO.P,A1,13,~{RST}*%
%TO.N,/S_ON*%
X58420000Y-93970000D03*
%TO.P,A1,14,~{SLP}*%
X55880000Y-93970000D03*
%TO.P,A1,15,STEP*%
%TO.N,/STEP*%
X53340000Y-93970000D03*
%TO.P,A1,16,DIR*%
%TO.N,/DIR*%
X50800000Y-93970000D03*
%TD*%
D12*
%TO.P,J6,1,Pin_1*%
%TO.N,Net-(J6-Pad1)*%
X34290000Y-121920000D03*
D13*
%TO.P,J6,2,Pin_2*%
%TO.N,GND*%
X38100000Y-121920000D03*
%TD*%
D12*
%TO.P,J7,1,Pin_1*%
%TO.N,Net-(J7-Pad1)*%
X44450000Y-121920000D03*
D13*
%TO.P,J7,2,Pin_2*%
%TO.N,GND*%
X48260000Y-121920000D03*
%TD*%
D10*
%TO.P,U1,1,3V3*%
%TO.N,+3V3*%
X34015000Y-86360000D03*
D11*
%TO.P,U1,2,GND*%
%TO.N,GND*%
X36555000Y-86360000D03*
%TO.P,U1,3,D15*%
%TO.N,unconnected-(U1-Pad3)*%
X39095000Y-86360000D03*
%TO.P,U1,4,D2*%
%TO.N,/LIMIT1*%
X41635000Y-86360000D03*
%TO.P,U1,5,D4*%
%TO.N,/LIMIT2*%
X44175000Y-86360000D03*
%TO.P,U1,6,RX2*%
%TO.N,unconnected-(U1-Pad6)*%
X46715000Y-86360000D03*
%TO.P,U1,7,TX2*%
%TO.N,unconnected-(U1-Pad7)*%
X49255000Y-86360000D03*
%TO.P,U1,8,D5*%
%TO.N,/S_ON*%
X51795000Y-86360000D03*
%TO.P,U1,9,D18*%
%TO.N,/DIR*%
X54335000Y-86360000D03*
%TO.P,U1,10,D19*%
%TO.N,/STEP*%
X56875000Y-86360000D03*
%TO.P,U1,11,D21*%
%TO.N,/SDA*%
X59415000Y-86360000D03*
%TO.P,U1,12,RX0*%
%TO.N,unconnected-(U1-Pad12)*%
X61955000Y-86360000D03*
%TO.P,U1,13,TX0*%
%TO.N,unconnected-(U1-Pad13)*%
X64495000Y-86360000D03*
%TO.P,U1,14,D22*%
%TO.N,/SCL*%
X67035000Y-86360000D03*
%TO.P,U1,15,D23*%
%TO.N,unconnected-(U1-Pad15)*%
X69575000Y-86360000D03*
%TO.P,U1,16,EN*%
%TO.N,unconnected-(U1-Pad16)*%
X69575000Y-60960000D03*
%TO.P,U1,17,VP*%
%TO.N,unconnected-(U1-Pad17)*%
X67035000Y-60960000D03*
%TO.P,U1,18,VN*%
%TO.N,unconnected-(U1-Pad18)*%
X64495000Y-60960000D03*
%TO.P,U1,19,D34*%
%TO.N,/nFAULT*%
X61955000Y-60960000D03*
%TO.P,U1,20,D35*%
%TO.N,unconnected-(U1-Pad20)*%
X59415000Y-60960000D03*
%TO.P,U1,21,D32*%
%TO.N,/RIGHT*%
X56875000Y-60960000D03*
%TO.P,U1,22,D33*%
%TO.N,/GO*%
X54335000Y-60960000D03*
%TO.P,U1,23,D25*%
%TO.N,/UP*%
X51795000Y-60960000D03*
%TO.P,U1,24,D26*%
%TO.N,/DOWN*%
X49255000Y-60960000D03*
%TO.P,U1,25,D27*%
%TO.N,/LEFT*%
X46715000Y-60960000D03*
%TO.P,U1,26,D14*%
%TO.N,/LED*%
X44175000Y-60960000D03*
%TO.P,U1,27,D12*%
%TO.N,/VALVE1*%
X41635000Y-60960000D03*
%TO.P,U1,28,D13*%
%TO.N,/VALVE2*%
X39095000Y-60960000D03*
%TO.P,U1,29,GND*%
%TO.N,GND*%
X36555000Y-60960000D03*
%TO.P,U1,30,VIN*%
%TO.N,+5V*%
X34015000Y-60960000D03*
%TD*%
D12*
%TO.P,J4,1,Pin_1*%
%TO.N,Net-(A1-Pad3)*%
X54610000Y-121920000D03*
D13*
%TO.P,J4,2,Pin_2*%
%TO.N,Net-(A1-Pad4)*%
X58420000Y-121920000D03*
%TO.P,J4,3,Pin_3*%
%TO.N,Net-(A1-Pad5)*%
X62230000Y-121920000D03*
%TO.P,J4,4,Pin_4*%
%TO.N,Net-(A1-Pad6)*%
X66040000Y-121920000D03*
%TD*%
D18*
%TO.P,U2,1,IN*%
%TO.N,+24V*%
X105410000Y-102870000D03*
D19*
%TO.P,U2,2,GND*%
%TO.N,GND*%
X107950000Y-102870000D03*
%TO.P,U2,3,OUT*%
%TO.N,+5V*%
X110490000Y-102870000D03*
%TD*%
D12*
%TO.P,J2,1,Pin_1*%
%TO.N,+24V*%
X86360000Y-121920000D03*
D13*
%TO.P,J2,2,Pin_2*%
%TO.N,Net-(J2-Pad2)*%
X90170000Y-121920000D03*
%TO.P,J2,3,Pin_3*%
%TO.N,GND*%
X93980000Y-121920000D03*
%TD*%
D20*
%TO.N,GND*%
X64770000Y-52070000D03*
X87630000Y-104140000D03*
X81280000Y-104140000D03*
%TO.N,/nFAULT*%
X31750000Y-91440000D03*
X39370000Y-76200000D03*
X45720000Y-91440000D03*
X55880000Y-66040000D03*
%TO.N,/VALVE1*%
X85090000Y-82550000D03*
X85090000Y-97790000D03*
%TO.N,/VALVE2*%
X91440000Y-97790000D03*
X91440000Y-83820000D03*
%TO.N,/SDA*%
X59690000Y-77470000D03*
%TO.N,/DOWN*%
X58420000Y-58420000D03*
%TO.N,/RIGHT*%
X55880000Y-54610000D03*
%TO.N,/LED*%
X63500000Y-63500000D03*
X58420000Y-63500000D03*
%TD*%
D21*
%TO.N,/LED*%
X58420000Y-63500000D02*
X63500000Y-63500000D01*
%TO.N,/nFAULT*%
X45720000Y-91440000D02*
X31750000Y-91440000D01*
D22*
%TO.N,Net-(A1-Pad3)*%
X55880000Y-106670000D02*
X55880000Y-120650000D01*
X55880000Y-120650000D02*
X54610000Y-121920000D01*
%TO.N,Net-(A1-Pad4)*%
X58420000Y-106670000D02*
X58420000Y-121920000D01*
%TO.N,Net-(A1-Pad5)*%
X60960000Y-120650000D02*
X62230000Y-121920000D01*
X60960000Y-106670000D02*
X60960000Y-120650000D01*
%TO.N,Net-(A1-Pad6)*%
X63500000Y-119380000D02*
X66040000Y-121920000D01*
X63500000Y-106670000D02*
X63500000Y-119380000D01*
%TO.N,+5V*%
X37347500Y-47742500D02*
X34015000Y-51075000D01*
X34015000Y-51075000D02*
X34015000Y-60960000D01*
X43180000Y-47742500D02*
X37347500Y-47742500D01*
D21*
%TO.N,/nFAULT*%
X39370000Y-76200000D02*
X49530000Y-66040000D01*
X49530000Y-66040000D02*
X55880000Y-66040000D01*
%TO.N,/S_ON*%
X51795000Y-89895000D02*
X51795000Y-86360000D01*
X55880000Y-93980000D02*
X51795000Y-89895000D01*
X55880000Y-93970000D02*
X55880000Y-93980000D01*
X55880000Y-93970000D02*
X58420000Y-93970000D01*
%TO.N,/VALVE1*%
X85090000Y-82550000D02*
X85090000Y-97790000D01*
%TO.N,/VALVE2*%
X91440000Y-83820000D02*
X91440000Y-97790000D01*
%TO.N,/SDA*%
X59415000Y-77745000D02*
X59415000Y-86360000D01*
X59690000Y-77470000D02*
X59415000Y-77745000D01*
%TO.N,/LEFT*%
X57150000Y-54092500D02*
X53340000Y-50282500D01*
X56330049Y-55696511D02*
X57150000Y-54876560D01*
X57150000Y-54876560D02*
X57150000Y-54092500D01*
X46715000Y-60960000D02*
X51978489Y-55696511D01*
X51978489Y-55696511D02*
X56330049Y-55696511D01*
%TO.N,/DOWN*%
X49255000Y-60960000D02*
X51795000Y-58420000D01*
X51795000Y-58420000D02*
X58420000Y-58420000D01*
%TO.N,/RIGHT*%
X52587500Y-54610000D02*
X55880000Y-54610000D01*
X48260000Y-50282500D02*
X52587500Y-54610000D01*
%TD*%
%TA.AperFunction,Conductor*%
%TO.N,GND*%
G36*
X107892121Y-43200002D02*
G01*
X107938614Y-43253658D01*
X107950000Y-43306000D01*
X107950000Y-53340000D01*
X117984000Y-53340000D01*
X118052121Y-53360002D01*
X118098614Y-53413658D01*
X118110000Y-53466000D01*
X118110000Y-115444000D01*
X118089998Y-115512121D01*
X118036342Y-115558614D01*
X117984000Y-115570000D01*
X107950000Y-115570000D01*
X107950000Y-125604000D01*
X107929998Y-125672121D01*
X107876342Y-125718614D01*
X107824000Y-125730000D01*
X31876000Y-125730000D01*
X31807879Y-125709998D01*
X31761386Y-125656342D01*
X31750000Y-125604000D01*
X31750000Y-123520400D01*
X32881500Y-123520400D01*
X32881837Y-123523646D01*
X32881837Y-123523650D01*
X32891393Y-123615745D01*
X32892474Y-123626166D01*
X32948450Y-123793946D01*
X33041522Y-123944348D01*
X33166697Y-124069305D01*
X33172927Y-124073145D01*
X33172928Y-124073146D01*
X33310090Y-124157694D01*
X33317262Y-124162115D01*
X33393139Y-124187282D01*
X33478611Y-124215632D01*
X33478613Y-124215632D01*
X33485139Y-124217797D01*
X33491975Y-124218497D01*
X33491978Y-124218498D01*
X33535031Y-124222909D01*
X33589600Y-124228500D01*
X34990400Y-124228500D01*
X34993646Y-124228163D01*
X34993650Y-124228163D01*
X35089308Y-124218238D01*
X35089312Y-124218237D01*
X35096166Y-124217526D01*
X35102702Y-124215345D01*
X35102704Y-124215345D01*
X35234806Y-124171272D01*
X35263946Y-124161550D01*
X35414348Y-124068478D01*
X35539305Y-123943303D01*
X35579116Y-123878718D01*
X35628275Y-123798968D01*
X35628276Y-123798966D01*
X35632115Y-123792738D01*
X35659788Y-123709307D01*
X35685632Y-123631389D01*
X35685632Y-123631387D01*
X35687797Y-123624861D01*
X35698500Y-123520400D01*
X35698500Y-122877340D01*
X36692000Y-122877340D01*
X36692225Y-122882649D01*
X36706660Y-123052771D01*
X36708452Y-123063259D01*
X36765801Y-123284211D01*
X36769333Y-123294239D01*
X36863085Y-123502363D01*
X36868265Y-123511669D01*
X36995747Y-123701024D01*
X37002406Y-123709307D01*
X37159971Y-123874478D01*
X37167942Y-123881530D01*
X37351082Y-124017790D01*
X37360119Y-124023394D01*
X37563606Y-124126851D01*
X37573459Y-124130852D01*
X37791461Y-124198544D01*
X37801848Y-124200828D01*
X37828043Y-124204300D01*
X37842207Y-124202104D01*
X37846000Y-124188919D01*
X37846000Y-124187282D01*
X38354000Y-124187282D01*
X38357973Y-124200813D01*
X38368580Y-124202338D01*
X38500840Y-124174587D01*
X38511037Y-124171527D01*
X38723340Y-124087685D01*
X38732876Y-124082951D01*
X38928025Y-123964532D01*
X38936618Y-123958266D01*
X39109027Y-123808658D01*
X39116447Y-123801028D01*
X39261180Y-123624512D01*
X39267206Y-123615745D01*
X39321479Y-123520400D01*
X43041500Y-123520400D01*
X43041837Y-123523646D01*
X43041837Y-123523650D01*
X43051393Y-123615745D01*
X43052474Y-123626166D01*
X43108450Y-123793946D01*
X43201522Y-123944348D01*
X43326697Y-124069305D01*
X43332927Y-124073145D01*
X43332928Y-124073146D01*
X43470090Y-124157694D01*
X43477262Y-124162115D01*
X43553139Y-124187282D01*
X43638611Y-124215632D01*
X43638613Y-124215632D01*
X43645139Y-124217797D01*
X43651975Y-124218497D01*
X43651978Y-124218498D01*
X43695031Y-124222909D01*
X43749600Y-124228500D01*
X45150400Y-124228500D01*
X45153646Y-124228163D01*
X45153650Y-124228163D01*
X45249308Y-124218238D01*
X45249312Y-124218237D01*
X45256166Y-124217526D01*
X45262702Y-124215345D01*
X45262704Y-124215345D01*
X45394806Y-124171272D01*
X45423946Y-124161550D01*
X45574348Y-124068478D01*
X45699305Y-123943303D01*
X45739116Y-123878718D01*
X45788275Y-123798968D01*
X45788276Y-123798966D01*
X45792115Y-123792738D01*
X45819788Y-123709307D01*
X45845632Y-123631389D01*
X45845632Y-123631387D01*
X45847797Y-123624861D01*
X45858500Y-123520400D01*
X45858500Y-122877340D01*
X46852000Y-122877340D01*
X46852225Y-122882649D01*
X46866660Y-123052771D01*
X46868452Y-123063259D01*
X46925801Y-123284211D01*
X46929333Y-123294239D01*
X47023085Y-123502363D01*
X47028265Y-123511669D01*
X47155747Y-123701024D01*
X47162406Y-123709307D01*
X47319971Y-123874478D01*
X47327942Y-123881530D01*
X47511082Y-124017790D01*
X47520119Y-124023394D01*
X47723606Y-124126851D01*
X47733459Y-124130852D01*
X47951461Y-124198544D01*
X47961848Y-124200828D01*
X47988043Y-124204300D01*
X48002207Y-124202104D01*
X48006000Y-124188919D01*
X48006000Y-124187282D01*
X48514000Y-124187282D01*
X48517973Y-124200813D01*
X48528580Y-124202338D01*
X48660840Y-124174587D01*
X48671037Y-124171527D01*
X48883340Y-124087685D01*
X48892876Y-124082951D01*
X49088025Y-123964532D01*
X49096618Y-123958266D01*
X49269027Y-123808658D01*
X49276447Y-123801028D01*
X49421180Y-123624512D01*
X49427206Y-123615745D01*
X49540129Y-123417367D01*
X49544595Y-123407703D01*
X49622481Y-123193132D01*
X49625251Y-123182865D01*
X49666081Y-122957068D01*
X49667016Y-122948838D01*
X49667930Y-122929450D01*
X49668000Y-122926474D01*
X49668000Y-122192115D01*
X49663525Y-122176876D01*
X49662135Y-122175671D01*
X49654452Y-122174000D01*
X48532115Y-122174000D01*
X48516876Y-122178475D01*
X48515671Y-122179865D01*
X48514000Y-122187548D01*
X48514000Y-124187282D01*
X48006000Y-124187282D01*
X48006000Y-122192115D01*
X48001525Y-122176876D01*
X48000135Y-122175671D01*
X47992452Y-122174000D01*
X46870115Y-122174000D01*
X46854876Y-122178475D01*
X46853671Y-122179865D01*
X46852000Y-122187548D01*
X46852000Y-122877340D01*
X45858500Y-122877340D01*
X45858500Y-121647885D01*
X46852000Y-121647885D01*
X46856475Y-121663124D01*
X46857865Y-121664329D01*
X46865548Y-121666000D01*
X47987885Y-121666000D01*
X48003124Y-121661525D01*
X48004329Y-121660135D01*
X48006000Y-121652452D01*
X48006000Y-121647885D01*
X48514000Y-121647885D01*
X48518475Y-121663124D01*
X48519865Y-121664329D01*
X48527548Y-121666000D01*
X49649885Y-121666000D01*
X49665124Y-121661525D01*
X49666329Y-121660135D01*
X49668000Y-121652452D01*
X49668000Y-120962660D01*
X49667775Y-120957351D01*
X49653340Y-120787229D01*
X49651548Y-120776741D01*
X49594199Y-120555789D01*
X49590667Y-120545761D01*
X49496915Y-120337637D01*
X49491735Y-120328331D01*
X49364253Y-120138976D01*
X49357594Y-120130693D01*
X49200029Y-119965522D01*
X49192058Y-119958470D01*
X49008918Y-119822210D01*
X48999881Y-119816606D01*
X48796394Y-119713149D01*
X48786541Y-119709148D01*
X48568539Y-119641456D01*
X48558152Y-119639172D01*
X48531957Y-119635700D01*
X48517793Y-119637896D01*
X48514000Y-119651081D01*
X48514000Y-121647885D01*
X48006000Y-121647885D01*
X48006000Y-119652718D01*
X48002027Y-119639187D01*
X47991420Y-119637662D01*
X47859160Y-119665413D01*
X47848963Y-119668473D01*
X47636660Y-119752315D01*
X47627124Y-119757049D01*
X47431975Y-119875468D01*
X47423382Y-119881734D01*
X47250973Y-120031342D01*
X47243553Y-120038972D01*
X47098820Y-120215488D01*
X47092794Y-120224255D01*
X46979871Y-120422633D01*
X46975405Y-120432297D01*
X46897519Y-120646868D01*
X46894749Y-120657135D01*
X46853919Y-120882932D01*
X46852984Y-120891162D01*
X46852070Y-120910550D01*
X46852000Y-120913526D01*
X46852000Y-121647885D01*
X45858500Y-121647885D01*
X45858500Y-120319600D01*
X45858163Y-120316350D01*
X45848238Y-120220692D01*
X45848237Y-120220688D01*
X45847526Y-120213834D01*
X45826148Y-120149755D01*
X45793868Y-120053002D01*
X45791550Y-120046054D01*
X45698478Y-119895652D01*
X45573303Y-119770695D01*
X45550434Y-119756598D01*
X45428968Y-119681725D01*
X45428966Y-119681724D01*
X45422738Y-119677885D01*
X45341926Y-119651081D01*
X45261389Y-119624368D01*
X45261387Y-119624368D01*
X45254861Y-119622203D01*
X45248025Y-119621503D01*
X45248022Y-119621502D01*
X45201591Y-119616745D01*
X45150400Y-119611500D01*
X43749600Y-119611500D01*
X43746354Y-119611837D01*
X43746350Y-119611837D01*
X43650692Y-119621762D01*
X43650688Y-119621763D01*
X43643834Y-119622474D01*
X43637298Y-119624655D01*
X43637296Y-119624655D01*
X43513281Y-119666030D01*
X43476054Y-119678450D01*
X43325652Y-119771522D01*
X43200695Y-119896697D01*
X43196855Y-119902927D01*
X43196854Y-119902928D01*
X43158507Y-119965139D01*
X43107885Y-120047262D01*
X43105581Y-120054209D01*
X43079037Y-120134238D01*
X43052203Y-120215139D01*
X43041500Y-120319600D01*
X43041500Y-123520400D01*
X39321479Y-123520400D01*
X39380129Y-123417367D01*
X39384595Y-123407703D01*
X39462481Y-123193132D01*
X39465251Y-123182865D01*
X39506081Y-122957068D01*
X39507016Y-122948838D01*
X39507930Y-122929450D01*
X39508000Y-122926474D01*
X39508000Y-122192115D01*
X39503525Y-122176876D01*
X39502135Y-122175671D01*
X39494452Y-122174000D01*
X38372115Y-122174000D01*
X38356876Y-122178475D01*
X38355671Y-122179865D01*
X38354000Y-122187548D01*
X38354000Y-124187282D01*
X37846000Y-124187282D01*
X37846000Y-122192115D01*
X37841525Y-122176876D01*
X37840135Y-122175671D01*
X37832452Y-122174000D01*
X36710115Y-122174000D01*
X36694876Y-122178475D01*
X36693671Y-122179865D01*
X36692000Y-122187548D01*
X36692000Y-122877340D01*
X35698500Y-122877340D01*
X35698500Y-121647885D01*
X36692000Y-121647885D01*
X36696475Y-121663124D01*
X36697865Y-121664329D01*
X36705548Y-121666000D01*
X37827885Y-121666000D01*
X37843124Y-121661525D01*
X37844329Y-121660135D01*
X37846000Y-121652452D01*
X37846000Y-121647885D01*
X38354000Y-121647885D01*
X38358475Y-121663124D01*
X38359865Y-121664329D01*
X38367548Y-121666000D01*
X39489885Y-121666000D01*
X39505124Y-121661525D01*
X39506329Y-121660135D01*
X39508000Y-121652452D01*
X39508000Y-120962660D01*
X39507775Y-120957351D01*
X39493340Y-120787229D01*
X39491548Y-120776741D01*
X39434199Y-120555789D01*
X39430667Y-120545761D01*
X39336915Y-120337637D01*
X39331735Y-120328331D01*
X39204253Y-120138976D01*
X39197594Y-120130693D01*
X39040029Y-119965522D01*
X39032058Y-119958470D01*
X38848918Y-119822210D01*
X38839881Y-119816606D01*
X38636394Y-119713149D01*
X38626541Y-119709148D01*
X38408539Y-119641456D01*
X38398152Y-119639172D01*
X38371957Y-119635700D01*
X38357793Y-119637896D01*
X38354000Y-119651081D01*
X38354000Y-121647885D01*
X37846000Y-121647885D01*
X37846000Y-119652718D01*
X37842027Y-119639187D01*
X37831420Y-119637662D01*
X37699160Y-119665413D01*
X37688963Y-119668473D01*
X37476660Y-119752315D01*
X37467124Y-119757049D01*
X37271975Y-119875468D01*
X37263382Y-119881734D01*
X37090973Y-120031342D01*
X37083553Y-120038972D01*
X36938820Y-120215488D01*
X36932794Y-120224255D01*
X36819871Y-120422633D01*
X36815405Y-120432297D01*
X36737519Y-120646868D01*
X36734749Y-120657135D01*
X36693919Y-120882932D01*
X36692984Y-120891162D01*
X36692070Y-120910550D01*
X36692000Y-120913526D01*
X36692000Y-121647885D01*
X35698500Y-121647885D01*
X35698500Y-120319600D01*
X35698163Y-120316350D01*
X35688238Y-120220692D01*
X35688237Y-120220688D01*
X35687526Y-120213834D01*
X35666148Y-120149755D01*
X35633868Y-120053002D01*
X35631550Y-120046054D01*
X35538478Y-119895652D01*
X35413303Y-119770695D01*
X35390434Y-119756598D01*
X35268968Y-119681725D01*
X35268966Y-119681724D01*
X35262738Y-119677885D01*
X35181926Y-119651081D01*
X35101389Y-119624368D01*
X35101387Y-119624368D01*
X35094861Y-119622203D01*
X35088025Y-119621503D01*
X35088022Y-119621502D01*
X35041591Y-119616745D01*
X34990400Y-119611500D01*
X33589600Y-119611500D01*
X33586354Y-119611837D01*
X33586350Y-119611837D01*
X33490692Y-119621762D01*
X33490688Y-119621763D01*
X33483834Y-119622474D01*
X33477298Y-119624655D01*
X33477296Y-119624655D01*
X33353281Y-119666030D01*
X33316054Y-119678450D01*
X33165652Y-119771522D01*
X33040695Y-119896697D01*
X33036855Y-119902927D01*
X33036854Y-119902928D01*
X32998507Y-119965139D01*
X32947885Y-120047262D01*
X32945581Y-120054209D01*
X32919037Y-120134238D01*
X32892203Y-120215139D01*
X32881500Y-120319600D01*
X32881500Y-123520400D01*
X31750000Y-123520400D01*
X31750000Y-115570000D01*
X21716000Y-115570000D01*
X21647879Y-115549998D01*
X21601386Y-115496342D01*
X21590000Y-115444000D01*
X21590000Y-107514669D01*
X49492001Y-107514669D01*
X49492371Y-107521490D01*
X49497895Y-107572352D01*
X49501521Y-107587604D01*
X49546676Y-107708054D01*
X49555214Y-107723649D01*
X49631715Y-107825724D01*
X49644276Y-107838285D01*
X49746351Y-107914786D01*
X49761946Y-107923324D01*
X49882394Y-107968478D01*
X49897649Y-107972105D01*
X49948514Y-107977631D01*
X49955328Y-107978000D01*
X50527885Y-107978000D01*
X50543124Y-107973525D01*
X50544329Y-107972135D01*
X50546000Y-107964452D01*
X50546000Y-107959884D01*
X51054000Y-107959884D01*
X51058475Y-107975123D01*
X51059865Y-107976328D01*
X51067548Y-107977999D01*
X51644669Y-107977999D01*
X51651490Y-107977629D01*
X51702352Y-107972105D01*
X51717604Y-107968479D01*
X51838054Y-107923324D01*
X51853649Y-107914786D01*
X51955724Y-107838285D01*
X51968285Y-107825724D01*
X52044786Y-107723649D01*
X52053324Y-107708054D01*
X52098478Y-107587606D01*
X52102104Y-107572357D01*
X52102479Y-107568904D01*
X52103522Y-107566394D01*
X52103932Y-107564669D01*
X52104211Y-107564735D01*
X52129719Y-107503341D01*
X52188080Y-107462912D01*
X52259034Y-107460454D01*
X52320054Y-107496747D01*
X52329344Y-107508240D01*
X52330641Y-107509786D01*
X52333802Y-107514300D01*
X52495700Y-107676198D01*
X52500208Y-107679355D01*
X52500211Y-107679357D01*
X52541195Y-107708054D01*
X52683251Y-107807523D01*
X52688233Y-107809846D01*
X52688238Y-107809849D01*
X52884765Y-107901490D01*
X52890757Y-107904284D01*
X52896065Y-107905706D01*
X52896067Y-107905707D01*
X53106598Y-107962119D01*
X53106600Y-107962119D01*
X53111913Y-107963543D01*
X53340000Y-107983498D01*
X53568087Y-107963543D01*
X53573400Y-107962119D01*
X53573402Y-107962119D01*
X53783933Y-107905707D01*
X53783935Y-107905706D01*
X53789243Y-107904284D01*
X53795235Y-107901490D01*
X53991762Y-107809849D01*
X53991767Y-107809846D01*
X53996749Y-107807523D01*
X54138805Y-107708054D01*
X54179789Y-107679357D01*
X54179792Y-107679355D01*
X54184300Y-107676198D01*
X54346198Y-107514300D01*
X54350442Y-107508240D01*
X54404098Y-107431611D01*
X54477523Y-107326749D01*
X54479846Y-107321767D01*
X54479849Y-107321762D01*
X54495805Y-107287543D01*
X54542722Y-107234258D01*
X54610999Y-107214797D01*
X54678959Y-107235339D01*
X54724190Y-107287533D01*
X54724690Y-107288605D01*
X54736500Y-107341865D01*
X54736500Y-119485500D01*
X54716498Y-119553621D01*
X54662842Y-119600114D01*
X54610500Y-119611500D01*
X53909600Y-119611500D01*
X53906354Y-119611837D01*
X53906350Y-119611837D01*
X53810692Y-119621762D01*
X53810688Y-119621763D01*
X53803834Y-119622474D01*
X53797298Y-119624655D01*
X53797296Y-119624655D01*
X53673281Y-119666030D01*
X53636054Y-119678450D01*
X53485652Y-119771522D01*
X53360695Y-119896697D01*
X53356855Y-119902927D01*
X53356854Y-119902928D01*
X53318507Y-119965139D01*
X53267885Y-120047262D01*
X53265581Y-120054209D01*
X53239037Y-120134238D01*
X53212203Y-120215139D01*
X53201500Y-120319600D01*
X53201500Y-123520400D01*
X53201837Y-123523646D01*
X53201837Y-123523650D01*
X53211393Y-123615745D01*
X53212474Y-123626166D01*
X53268450Y-123793946D01*
X53361522Y-123944348D01*
X53486697Y-124069305D01*
X53492927Y-124073145D01*
X53492928Y-124073146D01*
X53630090Y-124157694D01*
X53637262Y-124162115D01*
X53713139Y-124187282D01*
X53798611Y-124215632D01*
X53798613Y-124215632D01*
X53805139Y-124217797D01*
X53811975Y-124218497D01*
X53811978Y-124218498D01*
X53855031Y-124222909D01*
X53909600Y-124228500D01*
X55310400Y-124228500D01*
X55313646Y-124228163D01*
X55313650Y-124228163D01*
X55409308Y-124218238D01*
X55409312Y-124218237D01*
X55416166Y-124217526D01*
X55422702Y-124215345D01*
X55422704Y-124215345D01*
X55554806Y-124171272D01*
X55583946Y-124161550D01*
X55734348Y-124068478D01*
X55859305Y-123943303D01*
X55899116Y-123878718D01*
X55948275Y-123798968D01*
X55948276Y-123798966D01*
X55952115Y-123792738D01*
X55979788Y-123709307D01*
X56005632Y-123631389D01*
X56005632Y-123631387D01*
X56007797Y-123624861D01*
X56018500Y-123520400D01*
X56018500Y-122180843D01*
X56038502Y-122112723D01*
X56055405Y-122091748D01*
X56658320Y-121488834D01*
X56664338Y-121483198D01*
X56708680Y-121444311D01*
X56713019Y-121440506D01*
X56730423Y-121418429D01*
X56767785Y-121371036D01*
X56769860Y-121368474D01*
X56788625Y-121345911D01*
X56847562Y-121306326D01*
X56918544Y-121304889D01*
X56979035Y-121342056D01*
X57009829Y-121406027D01*
X57011500Y-121426479D01*
X57011500Y-122880012D01*
X57026617Y-123058175D01*
X57027957Y-123063339D01*
X57027958Y-123063343D01*
X57085285Y-123284211D01*
X57086668Y-123289540D01*
X57088860Y-123294406D01*
X57144345Y-123417577D01*
X57184843Y-123507480D01*
X57318334Y-123705762D01*
X57483326Y-123878718D01*
X57675100Y-124021402D01*
X57679851Y-124023818D01*
X57679855Y-124023820D01*
X57883414Y-124127314D01*
X57888172Y-124129733D01*
X57978221Y-124157694D01*
X58111349Y-124199032D01*
X58111355Y-124199033D01*
X58116452Y-124200616D01*
X58243883Y-124217506D01*
X58348127Y-124231323D01*
X58348131Y-124231323D01*
X58353411Y-124232023D01*
X58358740Y-124231823D01*
X58358741Y-124231823D01*
X58456509Y-124228152D01*
X58592274Y-124223055D01*
X58692126Y-124202104D01*
X58820984Y-124175067D01*
X58820987Y-124175066D01*
X58826211Y-124173970D01*
X59048533Y-124086171D01*
X59252883Y-123962168D01*
X59433419Y-123805507D01*
X59436802Y-123801381D01*
X59436806Y-123801377D01*
X59575108Y-123632704D01*
X59584978Y-123620667D01*
X59703227Y-123412934D01*
X59784784Y-123188247D01*
X59785734Y-123182995D01*
X59826580Y-122957115D01*
X59826581Y-122957107D01*
X59827318Y-122953031D01*
X59828500Y-122927968D01*
X59828500Y-121425366D01*
X59848502Y-121357245D01*
X59902158Y-121310752D01*
X59972432Y-121300648D01*
X60037012Y-121330142D01*
X60055458Y-121349978D01*
X60103116Y-121413801D01*
X60103123Y-121413808D01*
X60106573Y-121418429D01*
X60110807Y-121422343D01*
X60110809Y-121422345D01*
X60166959Y-121474249D01*
X60170526Y-121477679D01*
X60784596Y-122091750D01*
X60818621Y-122154062D01*
X60821500Y-122180843D01*
X60821500Y-122880012D01*
X60836617Y-123058175D01*
X60837957Y-123063339D01*
X60837958Y-123063343D01*
X60895285Y-123284211D01*
X60896668Y-123289540D01*
X60898860Y-123294406D01*
X60954345Y-123417577D01*
X60994843Y-123507480D01*
X61128334Y-123705762D01*
X61293326Y-123878718D01*
X61485100Y-124021402D01*
X61489851Y-124023818D01*
X61489855Y-124023820D01*
X61693414Y-124127314D01*
X61698172Y-124129733D01*
X61788221Y-124157694D01*
X61921349Y-124199032D01*
X61921355Y-124199033D01*
X61926452Y-124200616D01*
X62053883Y-124217506D01*
X62158127Y-124231323D01*
X62158131Y-124231323D01*
X62163411Y-124232023D01*
X62168740Y-124231823D01*
X62168741Y-124231823D01*
X62266509Y-124228152D01*
X62402274Y-124223055D01*
X62502126Y-124202104D01*
X62630984Y-124175067D01*
X62630987Y-124175066D01*
X62636211Y-124173970D01*
X62858533Y-124086171D01*
X63062883Y-123962168D01*
X63243419Y-123805507D01*
X63246802Y-123801381D01*
X63246806Y-123801377D01*
X63385108Y-123632704D01*
X63394978Y-123620667D01*
X63513227Y-123412934D01*
X63594784Y-123188247D01*
X63595734Y-123182995D01*
X63636580Y-122957115D01*
X63636581Y-122957107D01*
X63637318Y-122953031D01*
X63638500Y-122927968D01*
X63638500Y-121439843D01*
X63658502Y-121371722D01*
X63712158Y-121325229D01*
X63782432Y-121315125D01*
X63847012Y-121344619D01*
X63853595Y-121350748D01*
X64594595Y-122091748D01*
X64628621Y-122154060D01*
X64631500Y-122180843D01*
X64631500Y-122880012D01*
X64646617Y-123058175D01*
X64647957Y-123063339D01*
X64647958Y-123063343D01*
X64705285Y-123284211D01*
X64706668Y-123289540D01*
X64708860Y-123294406D01*
X64764345Y-123417577D01*
X64804843Y-123507480D01*
X64938334Y-123705762D01*
X65103326Y-123878718D01*
X65295100Y-124021402D01*
X65299851Y-124023818D01*
X65299855Y-124023820D01*
X65503414Y-124127314D01*
X65508172Y-124129733D01*
X65598221Y-124157694D01*
X65731349Y-124199032D01*
X65731355Y-124199033D01*
X65736452Y-124200616D01*
X65863883Y-124217506D01*
X65968127Y-124231323D01*
X65968131Y-124231323D01*
X65973411Y-124232023D01*
X65978740Y-124231823D01*
X65978741Y-124231823D01*
X66076509Y-124228152D01*
X66212274Y-124223055D01*
X66312126Y-124202104D01*
X66440984Y-124175067D01*
X66440987Y-124175066D01*
X66446211Y-124173970D01*
X66668533Y-124086171D01*
X66872883Y-123962168D01*
X67053419Y-123805507D01*
X67056802Y-123801381D01*
X67056806Y-123801377D01*
X67195108Y-123632704D01*
X67204978Y-123620667D01*
X67262054Y-123520400D01*
X70981500Y-123520400D01*
X70981837Y-123523646D01*
X70981837Y-123523650D01*
X70991393Y-123615745D01*
X70992474Y-123626166D01*
X71048450Y-123793946D01*
X71141522Y-123944348D01*
X71266697Y-124069305D01*
X71272927Y-124073145D01*
X71272928Y-124073146D01*
X71410090Y-124157694D01*
X71417262Y-124162115D01*
X71493139Y-124187282D01*
X71578611Y-124215632D01*
X71578613Y-124215632D01*
X71585139Y-124217797D01*
X71591975Y-124218497D01*
X71591978Y-124218498D01*
X71635031Y-124222909D01*
X71689600Y-124228500D01*
X73090400Y-124228500D01*
X73093646Y-124228163D01*
X73093650Y-124228163D01*
X73189308Y-124218238D01*
X73189312Y-124218237D01*
X73196166Y-124217526D01*
X73202702Y-124215345D01*
X73202704Y-124215345D01*
X73334806Y-124171272D01*
X73363946Y-124161550D01*
X73514348Y-124068478D01*
X73639305Y-123943303D01*
X73679116Y-123878718D01*
X73728275Y-123798968D01*
X73728276Y-123798966D01*
X73732115Y-123792738D01*
X73759788Y-123709307D01*
X73785632Y-123631389D01*
X73785632Y-123631387D01*
X73787797Y-123624861D01*
X73798500Y-123520400D01*
X73798500Y-122880012D01*
X74791500Y-122880012D01*
X74806617Y-123058175D01*
X74807957Y-123063339D01*
X74807958Y-123063343D01*
X74865285Y-123284211D01*
X74866668Y-123289540D01*
X74868860Y-123294406D01*
X74924345Y-123417577D01*
X74964843Y-123507480D01*
X75098334Y-123705762D01*
X75263326Y-123878718D01*
X75455100Y-124021402D01*
X75459851Y-124023818D01*
X75459855Y-124023820D01*
X75663414Y-124127314D01*
X75668172Y-124129733D01*
X75758221Y-124157694D01*
X75891349Y-124199032D01*
X75891355Y-124199033D01*
X75896452Y-124200616D01*
X76023883Y-124217506D01*
X76128127Y-124231323D01*
X76128131Y-124231323D01*
X76133411Y-124232023D01*
X76138740Y-124231823D01*
X76138741Y-124231823D01*
X76236509Y-124228152D01*
X76372274Y-124223055D01*
X76472126Y-124202104D01*
X76600984Y-124175067D01*
X76600987Y-124175066D01*
X76606211Y-124173970D01*
X76828533Y-124086171D01*
X77032883Y-123962168D01*
X77213419Y-123805507D01*
X77216802Y-123801381D01*
X77216806Y-123801377D01*
X77355108Y-123632704D01*
X77364978Y-123620667D01*
X77483227Y-123412934D01*
X77564784Y-123188247D01*
X77565734Y-123182995D01*
X77606580Y-122957115D01*
X77606581Y-122957107D01*
X77607318Y-122953031D01*
X77608500Y-122927968D01*
X77608500Y-122877340D01*
X78602000Y-122877340D01*
X78602225Y-122882649D01*
X78616660Y-123052771D01*
X78618452Y-123063259D01*
X78675801Y-123284211D01*
X78679333Y-123294239D01*
X78773085Y-123502363D01*
X78778265Y-123511669D01*
X78905747Y-123701024D01*
X78912406Y-123709307D01*
X79069971Y-123874478D01*
X79077942Y-123881530D01*
X79261082Y-124017790D01*
X79270119Y-124023394D01*
X79473606Y-124126851D01*
X79483459Y-124130852D01*
X79701461Y-124198544D01*
X79711848Y-124200828D01*
X79738043Y-124204300D01*
X79752207Y-124202104D01*
X79756000Y-124188919D01*
X79756000Y-124187282D01*
X80264000Y-124187282D01*
X80267973Y-124200813D01*
X80278580Y-124202338D01*
X80410840Y-124174587D01*
X80421037Y-124171527D01*
X80633340Y-124087685D01*
X80642876Y-124082951D01*
X80838025Y-123964532D01*
X80846618Y-123958266D01*
X81019027Y-123808658D01*
X81026447Y-123801028D01*
X81171180Y-123624512D01*
X81177206Y-123615745D01*
X81231479Y-123520400D01*
X84951500Y-123520400D01*
X84951837Y-123523646D01*
X84951837Y-123523650D01*
X84961393Y-123615745D01*
X84962474Y-123626166D01*
X85018450Y-123793946D01*
X85111522Y-123944348D01*
X85236697Y-124069305D01*
X85242927Y-124073145D01*
X85242928Y-124073146D01*
X85380090Y-124157694D01*
X85387262Y-124162115D01*
X85463139Y-124187282D01*
X85548611Y-124215632D01*
X85548613Y-124215632D01*
X85555139Y-124217797D01*
X85561975Y-124218497D01*
X85561978Y-124218498D01*
X85605031Y-124222909D01*
X85659600Y-124228500D01*
X87060400Y-124228500D01*
X87063646Y-124228163D01*
X87063650Y-124228163D01*
X87159308Y-124218238D01*
X87159312Y-124218237D01*
X87166166Y-124217526D01*
X87172702Y-124215345D01*
X87172704Y-124215345D01*
X87304806Y-124171272D01*
X87333946Y-124161550D01*
X87484348Y-124068478D01*
X87609305Y-123943303D01*
X87649116Y-123878718D01*
X87698275Y-123798968D01*
X87698276Y-123798966D01*
X87702115Y-123792738D01*
X87729788Y-123709307D01*
X87755632Y-123631389D01*
X87755632Y-123631387D01*
X87757797Y-123624861D01*
X87768500Y-123520400D01*
X87768500Y-122880012D01*
X88761500Y-122880012D01*
X88776617Y-123058175D01*
X88777957Y-123063339D01*
X88777958Y-123063343D01*
X88835285Y-123284211D01*
X88836668Y-123289540D01*
X88838860Y-123294406D01*
X88894345Y-123417577D01*
X88934843Y-123507480D01*
X89068334Y-123705762D01*
X89233326Y-123878718D01*
X89425100Y-124021402D01*
X89429851Y-124023818D01*
X89429855Y-124023820D01*
X89633414Y-124127314D01*
X89638172Y-124129733D01*
X89728221Y-124157694D01*
X89861349Y-124199032D01*
X89861355Y-124199033D01*
X89866452Y-124200616D01*
X89993883Y-124217506D01*
X90098127Y-124231323D01*
X90098131Y-124231323D01*
X90103411Y-124232023D01*
X90108740Y-124231823D01*
X90108741Y-124231823D01*
X90206509Y-124228152D01*
X90342274Y-124223055D01*
X90442126Y-124202104D01*
X90570984Y-124175067D01*
X90570987Y-124175066D01*
X90576211Y-124173970D01*
X90798533Y-124086171D01*
X91002883Y-123962168D01*
X91183419Y-123805507D01*
X91186802Y-123801381D01*
X91186806Y-123801377D01*
X91325108Y-123632704D01*
X91334978Y-123620667D01*
X91453227Y-123412934D01*
X91534784Y-123188247D01*
X91535734Y-123182995D01*
X91576580Y-122957115D01*
X91576581Y-122957107D01*
X91577318Y-122953031D01*
X91578500Y-122927968D01*
X91578500Y-122877340D01*
X92572000Y-122877340D01*
X92572225Y-122882649D01*
X92586660Y-123052771D01*
X92588452Y-123063259D01*
X92645801Y-123284211D01*
X92649333Y-123294239D01*
X92743085Y-123502363D01*
X92748265Y-123511669D01*
X92875747Y-123701024D01*
X92882406Y-123709307D01*
X93039971Y-123874478D01*
X93047942Y-123881530D01*
X93231082Y-124017790D01*
X93240119Y-124023394D01*
X93443606Y-124126851D01*
X93453459Y-124130852D01*
X93671461Y-124198544D01*
X93681848Y-124200828D01*
X93708043Y-124204300D01*
X93722207Y-124202104D01*
X93726000Y-124188919D01*
X93726000Y-124187282D01*
X94234000Y-124187282D01*
X94237973Y-124200813D01*
X94248580Y-124202338D01*
X94380840Y-124174587D01*
X94391037Y-124171527D01*
X94603340Y-124087685D01*
X94612876Y-124082951D01*
X94808025Y-123964532D01*
X94816618Y-123958266D01*
X94989027Y-123808658D01*
X94996447Y-123801028D01*
X95141180Y-123624512D01*
X95147206Y-123615745D01*
X95201479Y-123520400D01*
X98921500Y-123520400D01*
X98921837Y-123523646D01*
X98921837Y-123523650D01*
X98931393Y-123615745D01*
X98932474Y-123626166D01*
X98988450Y-123793946D01*
X99081522Y-123944348D01*
X99206697Y-124069305D01*
X99212927Y-124073145D01*
X99212928Y-124073146D01*
X99350090Y-124157694D01*
X99357262Y-124162115D01*
X99433139Y-124187282D01*
X99518611Y-124215632D01*
X99518613Y-124215632D01*
X99525139Y-124217797D01*
X99531975Y-124218497D01*
X99531978Y-124218498D01*
X99575031Y-124222909D01*
X99629600Y-124228500D01*
X101030400Y-124228500D01*
X101033646Y-124228163D01*
X101033650Y-124228163D01*
X101129308Y-124218238D01*
X101129312Y-124218237D01*
X101136166Y-124217526D01*
X101142702Y-124215345D01*
X101142704Y-124215345D01*
X101274806Y-124171272D01*
X101303946Y-124161550D01*
X101454348Y-124068478D01*
X101579305Y-123943303D01*
X101619116Y-123878718D01*
X101668275Y-123798968D01*
X101668276Y-123798966D01*
X101672115Y-123792738D01*
X101699788Y-123709307D01*
X101725632Y-123631389D01*
X101725632Y-123631387D01*
X101727797Y-123624861D01*
X101738500Y-123520400D01*
X101738500Y-122877340D01*
X104002000Y-122877340D01*
X104002225Y-122882649D01*
X104016660Y-123052771D01*
X104018452Y-123063259D01*
X104075801Y-123284211D01*
X104079333Y-123294239D01*
X104173085Y-123502363D01*
X104178265Y-123511669D01*
X104305747Y-123701024D01*
X104312406Y-123709307D01*
X104469971Y-123874478D01*
X104477942Y-123881530D01*
X104661082Y-124017790D01*
X104670119Y-124023394D01*
X104873606Y-124126851D01*
X104883459Y-124130852D01*
X105101461Y-124198544D01*
X105111848Y-124200828D01*
X105138043Y-124204300D01*
X105152207Y-124202104D01*
X105156000Y-124188919D01*
X105156000Y-124187282D01*
X105664000Y-124187282D01*
X105667973Y-124200813D01*
X105678580Y-124202338D01*
X105810840Y-124174587D01*
X105821037Y-124171527D01*
X106033340Y-124087685D01*
X106042876Y-124082951D01*
X106238025Y-123964532D01*
X106246618Y-123958266D01*
X106419027Y-123808658D01*
X106426447Y-123801028D01*
X106571180Y-123624512D01*
X106577206Y-123615745D01*
X106690129Y-123417367D01*
X106694595Y-123407703D01*
X106772481Y-123193132D01*
X106775251Y-123182865D01*
X106816081Y-122957068D01*
X106817016Y-122948838D01*
X106817930Y-122929450D01*
X106818000Y-122926474D01*
X106818000Y-122192115D01*
X106813525Y-122176876D01*
X106812135Y-122175671D01*
X106804452Y-122174000D01*
X105682115Y-122174000D01*
X105666876Y-122178475D01*
X105665671Y-122179865D01*
X105664000Y-122187548D01*
X105664000Y-124187282D01*
X105156000Y-124187282D01*
X105156000Y-122192115D01*
X105151525Y-122176876D01*
X105150135Y-122175671D01*
X105142452Y-122174000D01*
X104020115Y-122174000D01*
X104004876Y-122178475D01*
X104003671Y-122179865D01*
X104002000Y-122187548D01*
X104002000Y-122877340D01*
X101738500Y-122877340D01*
X101738500Y-121647885D01*
X104002000Y-121647885D01*
X104006475Y-121663124D01*
X104007865Y-121664329D01*
X104015548Y-121666000D01*
X105137885Y-121666000D01*
X105153124Y-121661525D01*
X105154329Y-121660135D01*
X105156000Y-121652452D01*
X105156000Y-121647885D01*
X105664000Y-121647885D01*
X105668475Y-121663124D01*
X105669865Y-121664329D01*
X105677548Y-121666000D01*
X106799885Y-121666000D01*
X106815124Y-121661525D01*
X106816329Y-121660135D01*
X106818000Y-121652452D01*
X106818000Y-120962660D01*
X106817775Y-120957351D01*
X106803340Y-120787229D01*
X106801548Y-120776741D01*
X106744199Y-120555789D01*
X106740667Y-120545761D01*
X106646915Y-120337637D01*
X106641735Y-120328331D01*
X106514253Y-120138976D01*
X106507594Y-120130693D01*
X106350029Y-119965522D01*
X106342058Y-119958470D01*
X106158918Y-119822210D01*
X106149881Y-119816606D01*
X105946394Y-119713149D01*
X105936541Y-119709148D01*
X105718539Y-119641456D01*
X105708152Y-119639172D01*
X105681957Y-119635700D01*
X105667793Y-119637896D01*
X105664000Y-119651081D01*
X105664000Y-121647885D01*
X105156000Y-121647885D01*
X105156000Y-119652718D01*
X105152027Y-119639187D01*
X105141420Y-119637662D01*
X105009160Y-119665413D01*
X104998963Y-119668473D01*
X104786660Y-119752315D01*
X104777124Y-119757049D01*
X104581975Y-119875468D01*
X104573382Y-119881734D01*
X104400973Y-120031342D01*
X104393553Y-120038972D01*
X104248820Y-120215488D01*
X104242794Y-120224255D01*
X104129871Y-120422633D01*
X104125405Y-120432297D01*
X104047519Y-120646868D01*
X104044749Y-120657135D01*
X104003919Y-120882932D01*
X104002984Y-120891162D01*
X104002070Y-120910550D01*
X104002000Y-120913526D01*
X104002000Y-121647885D01*
X101738500Y-121647885D01*
X101738500Y-120319600D01*
X101738163Y-120316350D01*
X101728238Y-120220692D01*
X101728237Y-120220688D01*
X101727526Y-120213834D01*
X101706148Y-120149755D01*
X101673868Y-120053002D01*
X101671550Y-120046054D01*
X101578478Y-119895652D01*
X101453303Y-119770695D01*
X101430434Y-119756598D01*
X101308968Y-119681725D01*
X101308966Y-119681724D01*
X101302738Y-119677885D01*
X101221926Y-119651081D01*
X101141389Y-119624368D01*
X101141387Y-119624368D01*
X101134861Y-119622203D01*
X101128025Y-119621503D01*
X101128022Y-119621502D01*
X101081591Y-119616745D01*
X101030400Y-119611500D01*
X99629600Y-119611500D01*
X99626354Y-119611837D01*
X99626350Y-119611837D01*
X99530692Y-119621762D01*
X99530688Y-119621763D01*
X99523834Y-119622474D01*
X99517298Y-119624655D01*
X99517296Y-119624655D01*
X99393281Y-119666030D01*
X99356054Y-119678450D01*
X99205652Y-119771522D01*
X99080695Y-119896697D01*
X99076855Y-119902927D01*
X99076854Y-119902928D01*
X99038507Y-119965139D01*
X98987885Y-120047262D01*
X98985581Y-120054209D01*
X98959037Y-120134238D01*
X98932203Y-120215139D01*
X98921500Y-120319600D01*
X98921500Y-123520400D01*
X95201479Y-123520400D01*
X95260129Y-123417367D01*
X95264595Y-123407703D01*
X95342481Y-123193132D01*
X95345251Y-123182865D01*
X95386081Y-122957068D01*
X95387016Y-122948838D01*
X95387930Y-122929450D01*
X95388000Y-122926474D01*
X95388000Y-122192115D01*
X95383525Y-122176876D01*
X95382135Y-122175671D01*
X95374452Y-122174000D01*
X94252115Y-122174000D01*
X94236876Y-122178475D01*
X94235671Y-122179865D01*
X94234000Y-122187548D01*
X94234000Y-124187282D01*
X93726000Y-124187282D01*
X93726000Y-122192115D01*
X93721525Y-122176876D01*
X93720135Y-122175671D01*
X93712452Y-122174000D01*
X92590115Y-122174000D01*
X92574876Y-122178475D01*
X92573671Y-122179865D01*
X92572000Y-122187548D01*
X92572000Y-122877340D01*
X91578500Y-122877340D01*
X91578500Y-121647885D01*
X92572000Y-121647885D01*
X92576475Y-121663124D01*
X92577865Y-121664329D01*
X92585548Y-121666000D01*
X93707885Y-121666000D01*
X93723124Y-121661525D01*
X93724329Y-121660135D01*
X93726000Y-121652452D01*
X93726000Y-121647885D01*
X94234000Y-121647885D01*
X94238475Y-121663124D01*
X94239865Y-121664329D01*
X94247548Y-121666000D01*
X95369885Y-121666000D01*
X95385124Y-121661525D01*
X95386329Y-121660135D01*
X95388000Y-121652452D01*
X95388000Y-120962660D01*
X95387775Y-120957351D01*
X95373340Y-120787229D01*
X95371548Y-120776741D01*
X95314199Y-120555789D01*
X95310667Y-120545761D01*
X95216915Y-120337637D01*
X95211735Y-120328331D01*
X95084253Y-120138976D01*
X95077594Y-120130693D01*
X94920029Y-119965522D01*
X94912058Y-119958470D01*
X94728918Y-119822210D01*
X94719881Y-119816606D01*
X94516394Y-119713149D01*
X94506541Y-119709148D01*
X94288539Y-119641456D01*
X94278152Y-119639172D01*
X94251957Y-119635700D01*
X94237793Y-119637896D01*
X94234000Y-119651081D01*
X94234000Y-121647885D01*
X93726000Y-121647885D01*
X93726000Y-119652718D01*
X93722027Y-119639187D01*
X93711420Y-119637662D01*
X93579160Y-119665413D01*
X93568963Y-119668473D01*
X93356660Y-119752315D01*
X93347124Y-119757049D01*
X93151975Y-119875468D01*
X93143382Y-119881734D01*
X92970973Y-120031342D01*
X92963553Y-120038972D01*
X92818820Y-120215488D01*
X92812794Y-120224255D01*
X92699871Y-120422633D01*
X92695405Y-120432297D01*
X92617519Y-120646868D01*
X92614749Y-120657135D01*
X92573919Y-120882932D01*
X92572984Y-120891162D01*
X92572070Y-120910550D01*
X92572000Y-120913526D01*
X92572000Y-121647885D01*
X91578500Y-121647885D01*
X91578500Y-120959988D01*
X91563383Y-120781825D01*
X91560195Y-120769542D01*
X91504673Y-120555625D01*
X91504671Y-120555620D01*
X91503332Y-120550460D01*
X91445750Y-120422633D01*
X91407347Y-120337381D01*
X91407346Y-120337378D01*
X91405157Y-120332520D01*
X91271666Y-120134238D01*
X91106674Y-119961282D01*
X90914900Y-119818598D01*
X90910149Y-119816182D01*
X90910145Y-119816180D01*
X90706586Y-119712686D01*
X90706585Y-119712686D01*
X90701828Y-119710267D01*
X90557375Y-119665413D01*
X90478651Y-119640968D01*
X90478645Y-119640967D01*
X90473548Y-119639384D01*
X90338632Y-119621502D01*
X90241873Y-119608677D01*
X90241869Y-119608677D01*
X90236589Y-119607977D01*
X90231260Y-119608177D01*
X90231259Y-119608177D01*
X90134017Y-119611828D01*
X89997726Y-119616945D01*
X89910816Y-119635181D01*
X89769016Y-119664933D01*
X89769013Y-119664934D01*
X89763789Y-119666030D01*
X89541467Y-119753829D01*
X89337117Y-119877832D01*
X89156581Y-120034493D01*
X89153198Y-120038619D01*
X89153194Y-120038623D01*
X89054164Y-120159400D01*
X89005022Y-120219333D01*
X89002383Y-120223969D01*
X89002381Y-120223972D01*
X88973156Y-120275313D01*
X88886773Y-120427066D01*
X88805216Y-120651753D01*
X88804267Y-120657002D01*
X88804266Y-120657005D01*
X88763420Y-120882885D01*
X88763419Y-120882893D01*
X88762682Y-120886969D01*
X88761500Y-120912032D01*
X88761500Y-122880012D01*
X87768500Y-122880012D01*
X87768500Y-120319600D01*
X87768163Y-120316350D01*
X87758238Y-120220692D01*
X87758237Y-120220688D01*
X87757526Y-120213834D01*
X87736148Y-120149755D01*
X87703868Y-120053002D01*
X87701550Y-120046054D01*
X87608478Y-119895652D01*
X87483303Y-119770695D01*
X87460434Y-119756598D01*
X87338968Y-119681725D01*
X87338966Y-119681724D01*
X87332738Y-119677885D01*
X87251926Y-119651081D01*
X87171389Y-119624368D01*
X87171387Y-119624368D01*
X87164861Y-119622203D01*
X87158025Y-119621503D01*
X87158022Y-119621502D01*
X87111591Y-119616745D01*
X87060400Y-119611500D01*
X85659600Y-119611500D01*
X85656354Y-119611837D01*
X85656350Y-119611837D01*
X85560692Y-119621762D01*
X85560688Y-119621763D01*
X85553834Y-119622474D01*
X85547298Y-119624655D01*
X85547296Y-119624655D01*
X85423281Y-119666030D01*
X85386054Y-119678450D01*
X85235652Y-119771522D01*
X85110695Y-119896697D01*
X85106855Y-119902927D01*
X85106854Y-119902928D01*
X85068507Y-119965139D01*
X85017885Y-120047262D01*
X85015581Y-120054209D01*
X84989037Y-120134238D01*
X84962203Y-120215139D01*
X84951500Y-120319600D01*
X84951500Y-123520400D01*
X81231479Y-123520400D01*
X81290129Y-123417367D01*
X81294595Y-123407703D01*
X81372481Y-123193132D01*
X81375251Y-123182865D01*
X81416081Y-122957068D01*
X81417016Y-122948838D01*
X81417930Y-122929450D01*
X81418000Y-122926474D01*
X81418000Y-122192115D01*
X81413525Y-122176876D01*
X81412135Y-122175671D01*
X81404452Y-122174000D01*
X80282115Y-122174000D01*
X80266876Y-122178475D01*
X80265671Y-122179865D01*
X80264000Y-122187548D01*
X80264000Y-124187282D01*
X79756000Y-124187282D01*
X79756000Y-122192115D01*
X79751525Y-122176876D01*
X79750135Y-122175671D01*
X79742452Y-122174000D01*
X78620115Y-122174000D01*
X78604876Y-122178475D01*
X78603671Y-122179865D01*
X78602000Y-122187548D01*
X78602000Y-122877340D01*
X77608500Y-122877340D01*
X77608500Y-121647885D01*
X78602000Y-121647885D01*
X78606475Y-121663124D01*
X78607865Y-121664329D01*
X78615548Y-121666000D01*
X79737885Y-121666000D01*
X79753124Y-121661525D01*
X79754329Y-121660135D01*
X79756000Y-121652452D01*
X79756000Y-121647885D01*
X80264000Y-121647885D01*
X80268475Y-121663124D01*
X80269865Y-121664329D01*
X80277548Y-121666000D01*
X81399885Y-121666000D01*
X81415124Y-121661525D01*
X81416329Y-121660135D01*
X81418000Y-121652452D01*
X81418000Y-120962660D01*
X81417775Y-120957351D01*
X81403340Y-120787229D01*
X81401548Y-120776741D01*
X81344199Y-120555789D01*
X81340667Y-120545761D01*
X81246915Y-120337637D01*
X81241735Y-120328331D01*
X81114253Y-120138976D01*
X81107594Y-120130693D01*
X80950029Y-119965522D01*
X80942058Y-119958470D01*
X80758918Y-119822210D01*
X80749881Y-119816606D01*
X80546394Y-119713149D01*
X80536541Y-119709148D01*
X80318539Y-119641456D01*
X80308152Y-119639172D01*
X80281957Y-119635700D01*
X80267793Y-119637896D01*
X80264000Y-119651081D01*
X80264000Y-121647885D01*
X79756000Y-121647885D01*
X79756000Y-119652718D01*
X79752027Y-119639187D01*
X79741420Y-119637662D01*
X79609160Y-119665413D01*
X79598963Y-119668473D01*
X79386660Y-119752315D01*
X79377124Y-119757049D01*
X79181975Y-119875468D01*
X79173382Y-119881734D01*
X79000973Y-120031342D01*
X78993553Y-120038972D01*
X78848820Y-120215488D01*
X78842794Y-120224255D01*
X78729871Y-120422633D01*
X78725405Y-120432297D01*
X78647519Y-120646868D01*
X78644749Y-120657135D01*
X78603919Y-120882932D01*
X78602984Y-120891162D01*
X78602070Y-120910550D01*
X78602000Y-120913526D01*
X78602000Y-121647885D01*
X77608500Y-121647885D01*
X77608500Y-120959988D01*
X77593383Y-120781825D01*
X77590195Y-120769542D01*
X77534673Y-120555625D01*
X77534671Y-120555620D01*
X77533332Y-120550460D01*
X77475750Y-120422633D01*
X77437347Y-120337381D01*
X77437346Y-120337378D01*
X77435157Y-120332520D01*
X77301666Y-120134238D01*
X77136674Y-119961282D01*
X76944900Y-119818598D01*
X76940149Y-119816182D01*
X76940145Y-119816180D01*
X76736586Y-119712686D01*
X76736585Y-119712686D01*
X76731828Y-119710267D01*
X76587375Y-119665413D01*
X76508651Y-119640968D01*
X76508645Y-119640967D01*
X76503548Y-119639384D01*
X76368632Y-119621502D01*
X76271873Y-119608677D01*
X76271869Y-119608677D01*
X76266589Y-119607977D01*
X76261260Y-119608177D01*
X76261259Y-119608177D01*
X76164017Y-119611828D01*
X76027726Y-119616945D01*
X75940816Y-119635181D01*
X75799016Y-119664933D01*
X75799013Y-119664934D01*
X75793789Y-119666030D01*
X75571467Y-119753829D01*
X75367117Y-119877832D01*
X75186581Y-120034493D01*
X75183198Y-120038619D01*
X75183194Y-120038623D01*
X75084164Y-120159400D01*
X75035022Y-120219333D01*
X75032383Y-120223969D01*
X75032381Y-120223972D01*
X75003156Y-120275313D01*
X74916773Y-120427066D01*
X74835216Y-120651753D01*
X74834267Y-120657002D01*
X74834266Y-120657005D01*
X74793420Y-120882885D01*
X74793419Y-120882893D01*
X74792682Y-120886969D01*
X74791500Y-120912032D01*
X74791500Y-122880012D01*
X73798500Y-122880012D01*
X73798500Y-120319600D01*
X73798163Y-120316350D01*
X73788238Y-120220692D01*
X73788237Y-120220688D01*
X73787526Y-120213834D01*
X73766148Y-120149755D01*
X73733868Y-120053002D01*
X73731550Y-120046054D01*
X73638478Y-119895652D01*
X73513303Y-119770695D01*
X73490434Y-119756598D01*
X73368968Y-119681725D01*
X73368966Y-119681724D01*
X73362738Y-119677885D01*
X73281926Y-119651081D01*
X73201389Y-119624368D01*
X73201387Y-119624368D01*
X73194861Y-119622203D01*
X73188025Y-119621503D01*
X73188022Y-119621502D01*
X73141591Y-119616745D01*
X73090400Y-119611500D01*
X71689600Y-119611500D01*
X71686354Y-119611837D01*
X71686350Y-119611837D01*
X71590692Y-119621762D01*
X71590688Y-119621763D01*
X71583834Y-119622474D01*
X71577298Y-119624655D01*
X71577296Y-119624655D01*
X71453281Y-119666030D01*
X71416054Y-119678450D01*
X71265652Y-119771522D01*
X71140695Y-119896697D01*
X71136855Y-119902927D01*
X71136854Y-119902928D01*
X71098507Y-119965139D01*
X71047885Y-120047262D01*
X71045581Y-120054209D01*
X71019037Y-120134238D01*
X70992203Y-120215139D01*
X70981500Y-120319600D01*
X70981500Y-123520400D01*
X67262054Y-123520400D01*
X67323227Y-123412934D01*
X67404784Y-123188247D01*
X67405734Y-123182995D01*
X67446580Y-122957115D01*
X67446581Y-122957107D01*
X67447318Y-122953031D01*
X67448500Y-122927968D01*
X67448500Y-120959988D01*
X67433383Y-120781825D01*
X67430195Y-120769542D01*
X67374673Y-120555625D01*
X67374671Y-120555620D01*
X67373332Y-120550460D01*
X67315750Y-120422633D01*
X67277347Y-120337381D01*
X67277346Y-120337378D01*
X67275157Y-120332520D01*
X67141666Y-120134238D01*
X66976674Y-119961282D01*
X66784900Y-119818598D01*
X66780149Y-119816182D01*
X66780145Y-119816180D01*
X66576586Y-119712686D01*
X66576585Y-119712686D01*
X66571828Y-119710267D01*
X66427375Y-119665413D01*
X66348651Y-119640968D01*
X66348645Y-119640967D01*
X66343548Y-119639384D01*
X66208632Y-119621502D01*
X66111873Y-119608677D01*
X66111869Y-119608677D01*
X66106589Y-119607977D01*
X66101260Y-119608177D01*
X66101259Y-119608177D01*
X66004017Y-119611828D01*
X65867726Y-119616945D01*
X65780816Y-119635181D01*
X65639016Y-119664933D01*
X65639013Y-119664934D01*
X65633789Y-119666030D01*
X65545378Y-119700945D01*
X65474674Y-119707363D01*
X65410003Y-119672849D01*
X64680405Y-118943252D01*
X64646380Y-118880939D01*
X64643500Y-118854156D01*
X64643500Y-107341865D01*
X64655307Y-107288611D01*
X64656083Y-107286947D01*
X64703002Y-107233664D01*
X64771280Y-107214205D01*
X64839239Y-107234749D01*
X64884471Y-107286951D01*
X64900586Y-107321511D01*
X64906069Y-107331007D01*
X65031028Y-107509467D01*
X65038084Y-107517875D01*
X65192125Y-107671916D01*
X65200533Y-107678972D01*
X65378993Y-107803931D01*
X65388489Y-107809414D01*
X65585947Y-107901490D01*
X65596239Y-107905236D01*
X65768503Y-107951394D01*
X65782599Y-107951058D01*
X65786000Y-107943116D01*
X65786000Y-107937967D01*
X66294000Y-107937967D01*
X66297973Y-107951498D01*
X66306522Y-107952727D01*
X66483761Y-107905236D01*
X66494053Y-107901490D01*
X66691511Y-107809414D01*
X66701007Y-107803931D01*
X66879467Y-107678972D01*
X66887875Y-107671916D01*
X67041916Y-107517875D01*
X67048972Y-107509467D01*
X67173931Y-107331007D01*
X67179414Y-107321511D01*
X67195529Y-107286951D01*
X67242446Y-107233666D01*
X67310723Y-107214205D01*
X67378683Y-107234747D01*
X67423919Y-107286951D01*
X67440151Y-107321762D01*
X67440154Y-107321767D01*
X67442477Y-107326749D01*
X67515902Y-107431611D01*
X67569559Y-107508240D01*
X67573802Y-107514300D01*
X67735700Y-107676198D01*
X67740208Y-107679355D01*
X67740211Y-107679357D01*
X67781195Y-107708054D01*
X67923251Y-107807523D01*
X67928233Y-107809846D01*
X67928238Y-107809849D01*
X68124765Y-107901490D01*
X68130757Y-107904284D01*
X68136065Y-107905706D01*
X68136067Y-107905707D01*
X68346598Y-107962119D01*
X68346600Y-107962119D01*
X68351913Y-107963543D01*
X68580000Y-107983498D01*
X68808087Y-107963543D01*
X68813400Y-107962119D01*
X68813402Y-107962119D01*
X69023933Y-107905707D01*
X69023935Y-107905706D01*
X69029243Y-107904284D01*
X69035235Y-107901490D01*
X69231762Y-107809849D01*
X69231767Y-107809846D01*
X69236749Y-107807523D01*
X69378805Y-107708054D01*
X69419789Y-107679357D01*
X69419792Y-107679355D01*
X69424300Y-107676198D01*
X69586198Y-107514300D01*
X69590442Y-107508240D01*
X69644098Y-107431611D01*
X69717523Y-107326749D01*
X69719846Y-107321767D01*
X69719849Y-107321762D01*
X69811961Y-107124225D01*
X69811961Y-107124224D01*
X69814284Y-107119243D01*
X69862970Y-106937548D01*
X69872119Y-106903402D01*
X69872119Y-106903400D01*
X69873543Y-106898087D01*
X69893498Y-106670000D01*
X69873543Y-106441913D01*
X69865028Y-106410135D01*
X69815707Y-106226067D01*
X69815706Y-106226065D01*
X69814284Y-106220757D01*
X69719966Y-106018489D01*
X69719849Y-106018238D01*
X69719846Y-106018233D01*
X69717523Y-106013251D01*
X69644098Y-105908389D01*
X69589357Y-105830211D01*
X69589355Y-105830208D01*
X69586198Y-105825700D01*
X69424300Y-105663802D01*
X69419792Y-105660645D01*
X69419789Y-105660643D01*
X69341611Y-105605902D01*
X69236749Y-105532477D01*
X69231767Y-105530154D01*
X69231762Y-105530151D01*
X69034225Y-105438039D01*
X69034224Y-105438039D01*
X69029243Y-105435716D01*
X69023935Y-105434294D01*
X69023933Y-105434293D01*
X68813402Y-105377881D01*
X68813400Y-105377881D01*
X68808087Y-105376457D01*
X68580000Y-105356502D01*
X68351913Y-105376457D01*
X68346600Y-105377881D01*
X68346598Y-105377881D01*
X68136067Y-105434293D01*
X68136065Y-105434294D01*
X68130757Y-105435716D01*
X68125776Y-105438039D01*
X68125775Y-105438039D01*
X67928238Y-105530151D01*
X67928233Y-105530154D01*
X67923251Y-105532477D01*
X67818389Y-105605902D01*
X67740211Y-105660643D01*
X67740208Y-105660645D01*
X67735700Y-105663802D01*
X67573802Y-105825700D01*
X67570645Y-105830208D01*
X67570643Y-105830211D01*
X67515902Y-105908389D01*
X67442477Y-106013251D01*
X67440154Y-106018233D01*
X67440151Y-106018238D01*
X67423919Y-106053049D01*
X67377002Y-106106334D01*
X67308725Y-106125795D01*
X67240765Y-106105253D01*
X67195529Y-106053049D01*
X67179414Y-106018489D01*
X67173931Y-106008993D01*
X67048972Y-105830533D01*
X67041916Y-105822125D01*
X66887875Y-105668084D01*
X66879467Y-105661028D01*
X66701007Y-105536069D01*
X66691511Y-105530586D01*
X66494053Y-105438510D01*
X66483761Y-105434764D01*
X66311497Y-105388606D01*
X66297401Y-105388942D01*
X66294000Y-105396884D01*
X66294000Y-107937967D01*
X65786000Y-107937967D01*
X65786000Y-105402033D01*
X65782027Y-105388502D01*
X65773478Y-105387273D01*
X65596239Y-105434764D01*
X65585947Y-105438510D01*
X65388489Y-105530586D01*
X65378993Y-105536069D01*
X65200533Y-105661028D01*
X65192125Y-105668084D01*
X65038084Y-105822125D01*
X65031028Y-105830533D01*
X64906069Y-106008993D01*
X64900586Y-106018489D01*
X64884471Y-106053049D01*
X64837554Y-106106334D01*
X64769277Y-106125795D01*
X64701317Y-106105253D01*
X64656081Y-106053049D01*
X64639849Y-106018238D01*
X64639846Y-106018233D01*
X64637523Y-106013251D01*
X64564098Y-105908389D01*
X64509357Y-105830211D01*
X64509355Y-105830208D01*
X64506198Y-105825700D01*
X64344300Y-105663802D01*
X64339792Y-105660645D01*
X64339789Y-105660643D01*
X64261611Y-105605902D01*
X64156749Y-105532477D01*
X64151767Y-105530154D01*
X64151762Y-105530151D01*
X63954225Y-105438039D01*
X63954224Y-105438039D01*
X63949243Y-105435716D01*
X63943935Y-105434294D01*
X63943933Y-105434293D01*
X63733402Y-105377881D01*
X63733400Y-105377881D01*
X63728087Y-105376457D01*
X63500000Y-105356502D01*
X63271913Y-105376457D01*
X63266600Y-105377881D01*
X63266598Y-105377881D01*
X63056067Y-105434293D01*
X63056065Y-105434294D01*
X63050757Y-105435716D01*
X63045776Y-105438039D01*
X63045775Y-105438039D01*
X62848238Y-105530151D01*
X62848233Y-105530154D01*
X62843251Y-105532477D01*
X62738389Y-105605902D01*
X62660211Y-105660643D01*
X62660208Y-105660645D01*
X62655700Y-105663802D01*
X62493802Y-105825700D01*
X62490645Y-105830208D01*
X62490643Y-105830211D01*
X62435902Y-105908389D01*
X62362477Y-106013251D01*
X62360154Y-106018233D01*
X62360151Y-106018238D01*
X62344195Y-106052457D01*
X62297278Y-106105742D01*
X62229001Y-106125203D01*
X62161041Y-106104661D01*
X62115805Y-106052457D01*
X62099849Y-106018238D01*
X62099846Y-106018233D01*
X62097523Y-106013251D01*
X62024098Y-105908389D01*
X61969357Y-105830211D01*
X61969355Y-105830208D01*
X61966198Y-105825700D01*
X61804300Y-105663802D01*
X61799792Y-105660645D01*
X61799789Y-105660643D01*
X61721611Y-105605902D01*
X61616749Y-105532477D01*
X61611767Y-105530154D01*
X61611762Y-105530151D01*
X61414225Y-105438039D01*
X61414224Y-105438039D01*
X61409243Y-105435716D01*
X61403935Y-105434294D01*
X61403933Y-105434293D01*
X61193402Y-105377881D01*
X61193400Y-105377881D01*
X61188087Y-105376457D01*
X60960000Y-105356502D01*
X60731913Y-105376457D01*
X60726600Y-105377881D01*
X60726598Y-105377881D01*
X60516067Y-105434293D01*
X60516065Y-105434294D01*
X60510757Y-105435716D01*
X60505776Y-105438039D01*
X60505775Y-105438039D01*
X60308238Y-105530151D01*
X60308233Y-105530154D01*
X60303251Y-105532477D01*
X60198389Y-105605902D01*
X60120211Y-105660643D01*
X60120208Y-105660645D01*
X60115700Y-105663802D01*
X59953802Y-105825700D01*
X59950645Y-105830208D01*
X59950643Y-105830211D01*
X59895902Y-105908389D01*
X59822477Y-106013251D01*
X59820154Y-106018233D01*
X59820151Y-106018238D01*
X59804195Y-106052457D01*
X59757278Y-106105742D01*
X59689001Y-106125203D01*
X59621041Y-106104661D01*
X59575805Y-106052457D01*
X59559849Y-106018238D01*
X59559846Y-106018233D01*
X59557523Y-106013251D01*
X59484098Y-105908389D01*
X59429357Y-105830211D01*
X59429355Y-105830208D01*
X59426198Y-105825700D01*
X59264300Y-105663802D01*
X59259792Y-105660645D01*
X59259789Y-105660643D01*
X59181611Y-105605902D01*
X59076749Y-105532477D01*
X59071767Y-105530154D01*
X59071762Y-105530151D01*
X58874225Y-105438039D01*
X58874224Y-105438039D01*
X58869243Y-105435716D01*
X58863935Y-105434294D01*
X58863933Y-105434293D01*
X58653402Y-105377881D01*
X58653400Y-105377881D01*
X58648087Y-105376457D01*
X58420000Y-105356502D01*
X58191913Y-105376457D01*
X58186600Y-105377881D01*
X58186598Y-105377881D01*
X57976067Y-105434293D01*
X57976065Y-105434294D01*
X57970757Y-105435716D01*
X57965776Y-105438039D01*
X57965775Y-105438039D01*
X57768238Y-105530151D01*
X57768233Y-105530154D01*
X57763251Y-105532477D01*
X57658389Y-105605902D01*
X57580211Y-105660643D01*
X57580208Y-105660645D01*
X57575700Y-105663802D01*
X57413802Y-105825700D01*
X57410645Y-105830208D01*
X57410643Y-105830211D01*
X57355902Y-105908389D01*
X57282477Y-106013251D01*
X57280154Y-106018233D01*
X57280151Y-106018238D01*
X57264195Y-106052457D01*
X57217278Y-106105742D01*
X57149001Y-106125203D01*
X57081041Y-106104661D01*
X57035805Y-106052457D01*
X57019849Y-106018238D01*
X57019846Y-106018233D01*
X57017523Y-106013251D01*
X56944098Y-105908389D01*
X56889357Y-105830211D01*
X56889355Y-105830208D01*
X56886198Y-105825700D01*
X56724300Y-105663802D01*
X56719792Y-105660645D01*
X56719789Y-105660643D01*
X56641611Y-105605902D01*
X56536749Y-105532477D01*
X56531767Y-105530154D01*
X56531762Y-105530151D01*
X56334225Y-105438039D01*
X56334224Y-105438039D01*
X56329243Y-105435716D01*
X56323935Y-105434294D01*
X56323933Y-105434293D01*
X56113402Y-105377881D01*
X56113400Y-105377881D01*
X56108087Y-105376457D01*
X55880000Y-105356502D01*
X55651913Y-105376457D01*
X55646600Y-105377881D01*
X55646598Y-105377881D01*
X55436067Y-105434293D01*
X55436065Y-105434294D01*
X55430757Y-105435716D01*
X55425776Y-105438039D01*
X55425775Y-105438039D01*
X55228238Y-105530151D01*
X55228233Y-105530154D01*
X55223251Y-105532477D01*
X55118389Y-105605902D01*
X55040211Y-105660643D01*
X55040208Y-105660645D01*
X55035700Y-105663802D01*
X54873802Y-105825700D01*
X54870645Y-105830208D01*
X54870643Y-105830211D01*
X54815902Y-105908389D01*
X54742477Y-106013251D01*
X54740154Y-106018233D01*
X54740151Y-106018238D01*
X54724195Y-106052457D01*
X54677278Y-106105742D01*
X54609001Y-106125203D01*
X54541041Y-106104661D01*
X54495805Y-106052457D01*
X54479849Y-106018238D01*
X54479846Y-106018233D01*
X54477523Y-106013251D01*
X54404098Y-105908389D01*
X54349357Y-105830211D01*
X54349355Y-105830208D01*
X54346198Y-105825700D01*
X54184300Y-105663802D01*
X54179792Y-105660645D01*
X54179789Y-105660643D01*
X54101611Y-105605902D01*
X53996749Y-105532477D01*
X53991767Y-105530154D01*
X53991762Y-105530151D01*
X53794225Y-105438039D01*
X53794224Y-105438039D01*
X53789243Y-105435716D01*
X53783935Y-105434294D01*
X53783933Y-105434293D01*
X53573402Y-105377881D01*
X53573400Y-105377881D01*
X53568087Y-105376457D01*
X53340000Y-105356502D01*
X53111913Y-105376457D01*
X53106600Y-105377881D01*
X53106598Y-105377881D01*
X52896067Y-105434293D01*
X52896065Y-105434294D01*
X52890757Y-105435716D01*
X52885776Y-105438039D01*
X52885775Y-105438039D01*
X52688238Y-105530151D01*
X52688233Y-105530154D01*
X52683251Y-105532477D01*
X52578389Y-105605902D01*
X52500211Y-105660643D01*
X52500208Y-105660645D01*
X52495700Y-105663802D01*
X52333802Y-105825700D01*
X52330643Y-105830211D01*
X52327108Y-105834424D01*
X52326140Y-105833612D01*
X52275506Y-105874090D01*
X52204887Y-105881404D01*
X52141524Y-105849376D01*
X52105536Y-105788177D01*
X52102480Y-105771099D01*
X52102105Y-105767648D01*
X52098479Y-105752396D01*
X52053324Y-105631946D01*
X52044786Y-105616351D01*
X51968285Y-105514276D01*
X51955724Y-105501715D01*
X51853649Y-105425214D01*
X51838054Y-105416676D01*
X51717606Y-105371522D01*
X51702351Y-105367895D01*
X51651486Y-105362369D01*
X51644672Y-105362000D01*
X51072115Y-105362000D01*
X51056876Y-105366475D01*
X51055671Y-105367865D01*
X51054000Y-105375548D01*
X51054000Y-107959884D01*
X50546000Y-107959884D01*
X50546000Y-106942115D01*
X50541525Y-106926876D01*
X50540135Y-106925671D01*
X50532452Y-106924000D01*
X49510116Y-106924000D01*
X49494877Y-106928475D01*
X49493672Y-106929865D01*
X49492001Y-106937548D01*
X49492001Y-107514669D01*
X21590000Y-107514669D01*
X21590000Y-106397885D01*
X49492000Y-106397885D01*
X49496475Y-106413124D01*
X49497865Y-106414329D01*
X49505548Y-106416000D01*
X50527885Y-106416000D01*
X50543124Y-106411525D01*
X50544329Y-106410135D01*
X50546000Y-106402452D01*
X50546000Y-105380116D01*
X50541525Y-105364877D01*
X50540135Y-105363672D01*
X50532452Y-105362001D01*
X49955331Y-105362001D01*
X49948510Y-105362371D01*
X49897648Y-105367895D01*
X49882396Y-105371521D01*
X49761946Y-105416676D01*
X49746351Y-105425214D01*
X49644276Y-105501715D01*
X49631715Y-105514276D01*
X49555214Y-105616351D01*
X49546676Y-105631946D01*
X49501522Y-105752394D01*
X49497895Y-105767649D01*
X49492369Y-105818514D01*
X49492000Y-105825328D01*
X49492000Y-106397885D01*
X21590000Y-106397885D01*
X21590000Y-104168134D01*
X104051500Y-104168134D01*
X104058255Y-104230316D01*
X104109385Y-104366705D01*
X104196739Y-104483261D01*
X104313295Y-104570615D01*
X104449684Y-104621745D01*
X104511866Y-104628500D01*
X106308134Y-104628500D01*
X106370316Y-104621745D01*
X106506705Y-104570615D01*
X106623261Y-104483261D01*
X106710615Y-104366705D01*
X106740391Y-104287278D01*
X106755420Y-104247189D01*
X106798062Y-104190425D01*
X106864623Y-104165725D01*
X106933972Y-104180933D01*
X106964572Y-104204447D01*
X107043234Y-104286906D01*
X107051186Y-104293941D01*
X107227525Y-104425141D01*
X107236562Y-104430745D01*
X107432484Y-104530357D01*
X107442335Y-104534357D01*
X107652240Y-104599534D01*
X107662624Y-104601817D01*
X107678043Y-104603861D01*
X107692207Y-104601665D01*
X107696000Y-104588478D01*
X107696000Y-104586192D01*
X108204000Y-104586192D01*
X108207973Y-104599723D01*
X108218580Y-104601248D01*
X108336421Y-104576523D01*
X108346617Y-104573463D01*
X108551029Y-104492737D01*
X108560561Y-104488006D01*
X108748462Y-104373984D01*
X108757052Y-104367720D01*
X108923052Y-104223673D01*
X108930472Y-104216042D01*
X109069826Y-104046089D01*
X109075850Y-104037322D01*
X109109565Y-103978094D01*
X109160647Y-103928788D01*
X109230277Y-103914926D01*
X109296348Y-103940909D01*
X109323587Y-103970059D01*
X109427441Y-104124319D01*
X109431120Y-104128176D01*
X109431122Y-104128178D01*
X109472479Y-104171531D01*
X109586576Y-104291135D01*
X109771542Y-104428754D01*
X109776293Y-104431170D01*
X109776297Y-104431172D01*
X109864627Y-104476081D01*
X109977051Y-104533240D01*
X109982145Y-104534822D01*
X109982148Y-104534823D01*
X110147583Y-104586192D01*
X110197227Y-104601607D01*
X110202516Y-104602308D01*
X110420489Y-104631198D01*
X110420494Y-104631198D01*
X110425774Y-104631898D01*
X110431103Y-104631698D01*
X110431105Y-104631698D01*
X110540966Y-104627574D01*
X110656158Y-104623249D01*
X110881791Y-104575907D01*
X110886750Y-104573949D01*
X110886752Y-104573948D01*
X111091256Y-104493185D01*
X111091258Y-104493184D01*
X111096221Y-104491224D01*
X111101525Y-104488006D01*
X111288757Y-104374390D01*
X111288756Y-104374390D01*
X111293317Y-104371623D01*
X111308674Y-104358297D01*
X111463412Y-104224023D01*
X111463414Y-104224021D01*
X111467445Y-104220523D01*
X111513203Y-104164717D01*
X111610240Y-104046373D01*
X111610244Y-104046367D01*
X111613624Y-104042245D01*
X111616427Y-104037322D01*
X111725032Y-103846529D01*
X111727675Y-103841886D01*
X111806337Y-103625175D01*
X111829023Y-103499720D01*
X111846623Y-103402392D01*
X111846624Y-103402385D01*
X111847361Y-103398308D01*
X111848500Y-103374156D01*
X111848500Y-102412110D01*
X111833920Y-102240280D01*
X111832582Y-102235125D01*
X111832581Y-102235119D01*
X111777343Y-102022297D01*
X111777342Y-102022293D01*
X111776001Y-102017128D01*
X111681312Y-101806925D01*
X111552559Y-101615681D01*
X111510762Y-101571866D01*
X111468703Y-101527778D01*
X111393424Y-101448865D01*
X111208458Y-101311246D01*
X111203707Y-101308830D01*
X111203703Y-101308828D01*
X111105703Y-101259003D01*
X111002949Y-101206760D01*
X110997855Y-101205178D01*
X110997852Y-101205177D01*
X110787871Y-101139976D01*
X110782773Y-101138393D01*
X110777484Y-101137692D01*
X110559511Y-101108802D01*
X110559506Y-101108802D01*
X110554226Y-101108102D01*
X110548897Y-101108302D01*
X110548895Y-101108302D01*
X110453884Y-101111869D01*
X110323842Y-101116751D01*
X110098209Y-101164093D01*
X110093250Y-101166051D01*
X110093248Y-101166052D01*
X109888744Y-101246815D01*
X109888742Y-101246816D01*
X109883779Y-101248776D01*
X109879220Y-101251543D01*
X109879217Y-101251544D01*
X109784113Y-101309255D01*
X109686683Y-101368377D01*
X109682653Y-101371874D01*
X109589484Y-101452722D01*
X109512555Y-101519477D01*
X109478484Y-101561030D01*
X109369760Y-101693627D01*
X109369756Y-101693633D01*
X109366376Y-101697755D01*
X109363736Y-101702393D01*
X109329847Y-101761928D01*
X109278765Y-101811234D01*
X109209135Y-101825096D01*
X109143064Y-101799113D01*
X109115825Y-101769963D01*
X109015150Y-101620425D01*
X109008481Y-101612130D01*
X108856772Y-101453100D01*
X108848814Y-101446059D01*
X108672475Y-101314859D01*
X108663438Y-101309255D01*
X108467516Y-101209643D01*
X108457665Y-101205643D01*
X108247760Y-101140466D01*
X108237376Y-101138183D01*
X108221957Y-101136139D01*
X108207793Y-101138335D01*
X108204000Y-101151522D01*
X108204000Y-104586192D01*
X107696000Y-104586192D01*
X107696000Y-101153808D01*
X107692027Y-101140277D01*
X107681420Y-101138752D01*
X107563579Y-101163477D01*
X107553383Y-101166537D01*
X107348971Y-101247263D01*
X107339439Y-101251994D01*
X107151538Y-101366016D01*
X107142948Y-101372280D01*
X106976948Y-101516327D01*
X106969533Y-101523953D01*
X106969267Y-101524277D01*
X106969120Y-101524377D01*
X106965813Y-101527778D01*
X106965120Y-101527104D01*
X106910608Y-101564273D01*
X106839638Y-101566207D01*
X106778888Y-101529465D01*
X106753848Y-101488618D01*
X106713768Y-101381705D01*
X106713767Y-101381703D01*
X106710615Y-101373295D01*
X106623261Y-101256739D01*
X106506705Y-101169385D01*
X106370316Y-101118255D01*
X106308134Y-101111500D01*
X104511866Y-101111500D01*
X104449684Y-101118255D01*
X104313295Y-101169385D01*
X104196739Y-101256739D01*
X104109385Y-101373295D01*
X104058255Y-101509684D01*
X104051500Y-101571866D01*
X104051500Y-104168134D01*
X21590000Y-104168134D01*
X21590000Y-97395811D01*
X77231500Y-97395811D01*
X77238255Y-97457993D01*
X77289385Y-97594382D01*
X77376739Y-97710938D01*
X77493295Y-97798292D01*
X77629684Y-97849422D01*
X77691866Y-97856177D01*
X79788134Y-97856177D01*
X79850316Y-97849422D01*
X79986705Y-97798292D01*
X79997769Y-97790000D01*
X83814647Y-97790000D01*
X83834022Y-98011463D01*
X83891560Y-98226196D01*
X83893882Y-98231177D01*
X83893883Y-98231178D01*
X83983186Y-98422689D01*
X83983189Y-98422694D01*
X83985512Y-98427676D01*
X84113023Y-98609781D01*
X84270219Y-98766977D01*
X84274727Y-98770134D01*
X84274730Y-98770136D01*
X84350495Y-98823187D01*
X84452323Y-98894488D01*
X84457305Y-98896811D01*
X84457310Y-98896814D01*
X84648822Y-98986117D01*
X84653804Y-98988440D01*
X84659112Y-98989862D01*
X84659114Y-98989863D01*
X84724949Y-99007503D01*
X84868537Y-99045978D01*
X85090000Y-99065353D01*
X85311463Y-99045978D01*
X85455051Y-99007503D01*
X85520886Y-98989863D01*
X85520888Y-98989862D01*
X85526196Y-98988440D01*
X85531178Y-98986117D01*
X85722690Y-98896814D01*
X85722695Y-98896811D01*
X85727677Y-98894488D01*
X85829505Y-98823187D01*
X85905270Y-98770136D01*
X85905273Y-98770134D01*
X85909781Y-98766977D01*
X86066977Y-98609781D01*
X86194488Y-98427676D01*
X86196811Y-98422694D01*
X86196814Y-98422689D01*
X86286117Y-98231178D01*
X86286118Y-98231177D01*
X86288440Y-98226196D01*
X86345978Y-98011463D01*
X86365353Y-97790000D01*
X90164647Y-97790000D01*
X90184022Y-98011463D01*
X90241560Y-98226196D01*
X90243882Y-98231177D01*
X90243883Y-98231178D01*
X90333186Y-98422689D01*
X90333189Y-98422694D01*
X90335512Y-98427676D01*
X90463023Y-98609781D01*
X90620219Y-98766977D01*
X90624727Y-98770134D01*
X90624730Y-98770136D01*
X90700495Y-98823187D01*
X90802323Y-98894488D01*
X90807305Y-98896811D01*
X90807310Y-98896814D01*
X90998822Y-98986117D01*
X91003804Y-98988440D01*
X91009112Y-98989862D01*
X91009114Y-98989863D01*
X91074949Y-99007503D01*
X91218537Y-99045978D01*
X91440000Y-99065353D01*
X91661463Y-99045978D01*
X91805051Y-99007503D01*
X91870886Y-98989863D01*
X91870888Y-98989862D01*
X91876196Y-98988440D01*
X91881178Y-98986117D01*
X92072690Y-98896814D01*
X92072695Y-98896811D01*
X92077677Y-98894488D01*
X92179505Y-98823187D01*
X92255270Y-98770136D01*
X92255273Y-98770134D01*
X92259781Y-98766977D01*
X92416977Y-98609781D01*
X92544488Y-98427676D01*
X92546811Y-98422694D01*
X92546814Y-98422689D01*
X92636117Y-98231178D01*
X92636118Y-98231177D01*
X92638440Y-98226196D01*
X92695978Y-98011463D01*
X92715353Y-97790000D01*
X92695978Y-97568537D01*
X92638440Y-97353804D01*
X92636117Y-97348822D01*
X92546814Y-97157311D01*
X92546811Y-97157306D01*
X92544488Y-97152324D01*
X92416977Y-96970219D01*
X92259781Y-96813023D01*
X92255273Y-96809866D01*
X92255270Y-96809864D01*
X92127229Y-96720209D01*
X92082901Y-96664752D01*
X92073500Y-96616996D01*
X92073500Y-84993004D01*
X92093502Y-84924883D01*
X92127229Y-84889791D01*
X92255270Y-84800136D01*
X92255273Y-84800134D01*
X92259781Y-84796977D01*
X92416977Y-84639781D01*
X92447468Y-84596236D01*
X92541331Y-84462185D01*
X92541332Y-84462183D01*
X92544488Y-84457676D01*
X92546811Y-84452694D01*
X92546814Y-84452689D01*
X92636117Y-84261178D01*
X92636118Y-84261177D01*
X92638440Y-84256196D01*
X92695978Y-84041463D01*
X92715353Y-83820000D01*
X92695978Y-83598537D01*
X92638440Y-83383804D01*
X92631901Y-83369781D01*
X92546814Y-83187311D01*
X92546811Y-83187306D01*
X92544488Y-83182324D01*
X92416977Y-83000219D01*
X92259781Y-82843023D01*
X92255273Y-82839866D01*
X92255270Y-82839864D01*
X92149758Y-82765984D01*
X92077677Y-82715512D01*
X92072695Y-82713189D01*
X92072690Y-82713186D01*
X91881178Y-82623883D01*
X91881177Y-82623882D01*
X91876196Y-82621560D01*
X91870888Y-82620138D01*
X91870886Y-82620137D01*
X91805051Y-82602497D01*
X91661463Y-82564022D01*
X91440000Y-82544647D01*
X91218537Y-82564022D01*
X91074949Y-82602497D01*
X91009114Y-82620137D01*
X91009112Y-82620138D01*
X91003804Y-82621560D01*
X90998823Y-82623882D01*
X90998822Y-82623883D01*
X90807311Y-82713186D01*
X90807306Y-82713189D01*
X90802324Y-82715512D01*
X90797817Y-82718668D01*
X90797815Y-82718669D01*
X90624730Y-82839864D01*
X90624727Y-82839866D01*
X90620219Y-82843023D01*
X90463023Y-83000219D01*
X90335512Y-83182324D01*
X90333189Y-83187306D01*
X90333186Y-83187311D01*
X90248099Y-83369781D01*
X90241560Y-83383804D01*
X90184022Y-83598537D01*
X90164647Y-83820000D01*
X90184022Y-84041463D01*
X90241560Y-84256196D01*
X90243882Y-84261177D01*
X90243883Y-84261178D01*
X90333186Y-84452689D01*
X90333189Y-84452694D01*
X90335512Y-84457676D01*
X90338668Y-84462183D01*
X90338669Y-84462185D01*
X90432533Y-84596236D01*
X90463023Y-84639781D01*
X90620219Y-84796977D01*
X90624727Y-84800134D01*
X90624730Y-84800136D01*
X90752771Y-84889791D01*
X90797099Y-84945248D01*
X90806500Y-84993004D01*
X90806500Y-96616996D01*
X90786498Y-96685117D01*
X90752771Y-96720209D01*
X90624730Y-96809864D01*
X90624727Y-96809866D01*
X90620219Y-96813023D01*
X90463023Y-96970219D01*
X90335512Y-97152324D01*
X90333189Y-97157306D01*
X90333186Y-97157311D01*
X90243883Y-97348822D01*
X90241560Y-97353804D01*
X90184022Y-97568537D01*
X90164647Y-97790000D01*
X86365353Y-97790000D01*
X86345978Y-97568537D01*
X86288440Y-97353804D01*
X86286117Y-97348822D01*
X86196814Y-97157311D01*
X86196811Y-97157306D01*
X86194488Y-97152324D01*
X86066977Y-96970219D01*
X85909781Y-96813023D01*
X85905273Y-96809866D01*
X85905270Y-96809864D01*
X85777229Y-96720209D01*
X85732901Y-96664752D01*
X85723500Y-96616996D01*
X85723500Y-83723004D01*
X85743502Y-83654883D01*
X85777229Y-83619791D01*
X85905270Y-83530136D01*
X85905273Y-83530134D01*
X85909781Y-83526977D01*
X86066977Y-83369781D01*
X86194488Y-83187676D01*
X86196811Y-83182694D01*
X86196814Y-83182689D01*
X86286117Y-82991178D01*
X86286118Y-82991177D01*
X86288440Y-82986196D01*
X86345978Y-82771463D01*
X86365353Y-82550000D01*
X86345978Y-82328537D01*
X86288440Y-82113804D01*
X86286117Y-82108822D01*
X86196814Y-81917311D01*
X86196811Y-81917306D01*
X86194488Y-81912324D01*
X86066977Y-81730219D01*
X85909781Y-81573023D01*
X85905273Y-81569866D01*
X85905270Y-81569864D01*
X85829505Y-81516813D01*
X85727677Y-81445512D01*
X85722695Y-81443189D01*
X85722690Y-81443186D01*
X85531178Y-81353883D01*
X85531177Y-81353882D01*
X85526196Y-81351560D01*
X85520888Y-81350138D01*
X85520886Y-81350137D01*
X85455051Y-81332497D01*
X85311463Y-81294022D01*
X85090000Y-81274647D01*
X84868537Y-81294022D01*
X84724949Y-81332497D01*
X84659114Y-81350137D01*
X84659112Y-81350138D01*
X84653804Y-81351560D01*
X84648823Y-81353882D01*
X84648822Y-81353883D01*
X84457311Y-81443186D01*
X84457306Y-81443189D01*
X84452324Y-81445512D01*
X84447817Y-81448668D01*
X84447815Y-81448669D01*
X84274730Y-81569864D01*
X84274727Y-81569866D01*
X84270219Y-81573023D01*
X84113023Y-81730219D01*
X83985512Y-81912324D01*
X83983189Y-81917306D01*
X83983186Y-81917311D01*
X83893883Y-82108822D01*
X83891560Y-82113804D01*
X83834022Y-82328537D01*
X83814647Y-82550000D01*
X83834022Y-82771463D01*
X83891560Y-82986196D01*
X83893882Y-82991177D01*
X83893883Y-82991178D01*
X83983186Y-83182689D01*
X83983189Y-83182694D01*
X83985512Y-83187676D01*
X84113023Y-83369781D01*
X84270219Y-83526977D01*
X84274727Y-83530134D01*
X84274730Y-83530136D01*
X84402771Y-83619791D01*
X84447099Y-83675248D01*
X84456500Y-83723004D01*
X84456500Y-96616996D01*
X84436498Y-96685117D01*
X84402771Y-96720209D01*
X84274730Y-96809864D01*
X84274727Y-96809866D01*
X84270219Y-96813023D01*
X84113023Y-96970219D01*
X83985512Y-97152324D01*
X83983189Y-97157306D01*
X83983186Y-97157311D01*
X83893883Y-97348822D01*
X83891560Y-97353804D01*
X83834022Y-97568537D01*
X83814647Y-97790000D01*
X79997769Y-97790000D01*
X80103261Y-97710938D01*
X80190615Y-97594382D01*
X80241745Y-97457993D01*
X80248500Y-97395811D01*
X80248500Y-95299543D01*
X80241745Y-95237361D01*
X80190615Y-95100972D01*
X80103261Y-94984416D01*
X79986705Y-94897062D01*
X79850316Y-94845932D01*
X79788134Y-94839177D01*
X77691866Y-94839177D01*
X77629684Y-94845932D01*
X77493295Y-94897062D01*
X77376739Y-94984416D01*
X77289385Y-95100972D01*
X77238255Y-95237361D01*
X77231500Y-95299543D01*
X77231500Y-97395811D01*
X21590000Y-97395811D01*
X21590000Y-91440000D01*
X30474647Y-91440000D01*
X30494022Y-91661463D01*
X30551560Y-91876196D01*
X30553882Y-91881177D01*
X30553883Y-91881178D01*
X30643186Y-92072689D01*
X30643189Y-92072694D01*
X30645512Y-92077676D01*
X30648668Y-92082183D01*
X30648669Y-92082185D01*
X30737296Y-92208757D01*
X30773023Y-92259781D01*
X30930219Y-92416977D01*
X30934727Y-92420134D01*
X30934730Y-92420136D01*
X30966601Y-92442452D01*
X31112323Y-92544488D01*
X31117305Y-92546811D01*
X31117310Y-92546814D01*
X31205628Y-92587997D01*
X31313804Y-92638440D01*
X31319112Y-92639862D01*
X31319114Y-92639863D01*
X31381212Y-92656502D01*
X31528537Y-92695978D01*
X31750000Y-92715353D01*
X31971463Y-92695978D01*
X32118788Y-92656502D01*
X32180886Y-92639863D01*
X32180888Y-92639862D01*
X32186196Y-92638440D01*
X32294372Y-92587997D01*
X32382690Y-92546814D01*
X32382695Y-92546811D01*
X32387677Y-92544488D01*
X32533399Y-92442452D01*
X32565270Y-92420136D01*
X32565273Y-92420134D01*
X32569781Y-92416977D01*
X32726977Y-92259781D01*
X32762705Y-92208757D01*
X32819791Y-92127229D01*
X32875248Y-92082901D01*
X32923004Y-92073500D01*
X44546996Y-92073500D01*
X44615117Y-92093502D01*
X44650209Y-92127229D01*
X44707296Y-92208757D01*
X44743023Y-92259781D01*
X44900219Y-92416977D01*
X44904727Y-92420134D01*
X44904730Y-92420136D01*
X44936601Y-92442452D01*
X45082323Y-92544488D01*
X45087305Y-92546811D01*
X45087310Y-92546814D01*
X45175628Y-92587997D01*
X45283804Y-92638440D01*
X45289112Y-92639862D01*
X45289114Y-92639863D01*
X45351212Y-92656502D01*
X45498537Y-92695978D01*
X45720000Y-92715353D01*
X45941463Y-92695978D01*
X46088788Y-92656502D01*
X46150886Y-92639863D01*
X46150888Y-92639862D01*
X46156196Y-92638440D01*
X46264372Y-92587997D01*
X46352690Y-92546814D01*
X46352695Y-92546811D01*
X46357677Y-92544488D01*
X46503399Y-92442452D01*
X46535270Y-92420136D01*
X46535273Y-92420134D01*
X46539781Y-92416977D01*
X46696977Y-92259781D01*
X46732705Y-92208757D01*
X46821331Y-92082185D01*
X46821332Y-92082183D01*
X46824488Y-92077676D01*
X46826811Y-92072694D01*
X46826814Y-92072689D01*
X46916117Y-91881178D01*
X46916118Y-91881177D01*
X46918440Y-91876196D01*
X46975978Y-91661463D01*
X46995353Y-91440000D01*
X46975978Y-91218537D01*
X46918440Y-91003804D01*
X46916117Y-90998822D01*
X46826814Y-90807311D01*
X46826811Y-90807306D01*
X46824488Y-90802324D01*
X46821331Y-90797815D01*
X46700136Y-90624730D01*
X46700134Y-90624727D01*
X46696977Y-90620219D01*
X46539781Y-90463023D01*
X46535273Y-90459866D01*
X46535270Y-90459864D01*
X46459505Y-90406813D01*
X46357677Y-90335512D01*
X46352695Y-90333189D01*
X46352690Y-90333186D01*
X46161178Y-90243883D01*
X46161177Y-90243882D01*
X46156196Y-90241560D01*
X46150888Y-90240138D01*
X46150886Y-90240137D01*
X46034808Y-90209034D01*
X45941463Y-90184022D01*
X45720000Y-90164647D01*
X45498537Y-90184022D01*
X45405192Y-90209034D01*
X45289114Y-90240137D01*
X45289112Y-90240138D01*
X45283804Y-90241560D01*
X45278823Y-90243882D01*
X45278822Y-90243883D01*
X45087311Y-90333186D01*
X45087306Y-90333189D01*
X45082324Y-90335512D01*
X45077817Y-90338668D01*
X45077815Y-90338669D01*
X44904730Y-90459864D01*
X44904727Y-90459866D01*
X44900219Y-90463023D01*
X44743023Y-90620219D01*
X44739866Y-90624727D01*
X44739864Y-90624730D01*
X44650209Y-90752771D01*
X44594752Y-90797099D01*
X44546996Y-90806500D01*
X32923004Y-90806500D01*
X32854883Y-90786498D01*
X32819791Y-90752771D01*
X32730136Y-90624730D01*
X32730134Y-90624727D01*
X32726977Y-90620219D01*
X32569781Y-90463023D01*
X32565273Y-90459866D01*
X32565270Y-90459864D01*
X32489505Y-90406813D01*
X32387677Y-90335512D01*
X32382695Y-90333189D01*
X32382690Y-90333186D01*
X32191178Y-90243883D01*
X32191177Y-90243882D01*
X32186196Y-90241560D01*
X32180888Y-90240138D01*
X32180886Y-90240137D01*
X32064808Y-90209034D01*
X31971463Y-90184022D01*
X31750000Y-90164647D01*
X31528537Y-90184022D01*
X31435192Y-90209034D01*
X31319114Y-90240137D01*
X31319112Y-90240138D01*
X31313804Y-90241560D01*
X31308823Y-90243882D01*
X31308822Y-90243883D01*
X31117311Y-90333186D01*
X31117306Y-90333189D01*
X31112324Y-90335512D01*
X31107817Y-90338668D01*
X31107815Y-90338669D01*
X30934730Y-90459864D01*
X30934727Y-90459866D01*
X30930219Y-90463023D01*
X30773023Y-90620219D01*
X30769866Y-90624727D01*
X30769864Y-90624730D01*
X30648669Y-90797815D01*
X30645512Y-90802324D01*
X30643189Y-90807306D01*
X30643186Y-90807311D01*
X30553883Y-90998822D01*
X30551560Y-91003804D01*
X30494022Y-91218537D01*
X30474647Y-91440000D01*
X21590000Y-91440000D01*
X21590000Y-85869733D01*
X24042822Y-85869733D01*
X24042975Y-85874121D01*
X24042975Y-85874127D01*
X24043614Y-85892406D01*
X24052625Y-86150458D01*
X24053387Y-86154781D01*
X24053388Y-86154788D01*
X24077164Y-86289624D01*
X24101402Y-86427087D01*
X24188203Y-86694235D01*
X24311340Y-86946702D01*
X24313795Y-86950341D01*
X24313798Y-86950347D01*
X24375881Y-87042389D01*
X24468415Y-87179576D01*
X24656371Y-87388322D01*
X24871550Y-87568879D01*
X25109764Y-87717731D01*
X25243484Y-87777267D01*
X25325464Y-87813767D01*
X25366375Y-87831982D01*
X25636390Y-87909407D01*
X25640740Y-87910018D01*
X25640743Y-87910019D01*
X25743690Y-87924487D01*
X25914552Y-87948500D01*
X26125146Y-87948500D01*
X26127332Y-87948347D01*
X26127336Y-87948347D01*
X26330827Y-87934118D01*
X26330832Y-87934117D01*
X26335212Y-87933811D01*
X26609970Y-87875409D01*
X26614099Y-87873906D01*
X26614103Y-87873905D01*
X26869781Y-87780846D01*
X26869785Y-87780844D01*
X26873926Y-87779337D01*
X27121942Y-87647464D01*
X27168150Y-87613892D01*
X27345629Y-87484947D01*
X27345632Y-87484944D01*
X27349192Y-87482358D01*
X27400121Y-87433177D01*
X27426054Y-87408134D01*
X32506500Y-87408134D01*
X32513255Y-87470316D01*
X32564385Y-87606705D01*
X32651739Y-87723261D01*
X32768295Y-87810615D01*
X32904684Y-87861745D01*
X32966866Y-87868500D01*
X35063134Y-87868500D01*
X35125316Y-87861745D01*
X35261705Y-87810615D01*
X35378261Y-87723261D01*
X35402473Y-87690955D01*
X35460229Y-87613892D01*
X35460230Y-87613890D01*
X35465615Y-87606705D01*
X35465673Y-87606550D01*
X35512791Y-87559537D01*
X35582182Y-87544522D01*
X35648675Y-87569406D01*
X35654886Y-87574381D01*
X35662117Y-87580557D01*
X35670101Y-87586357D01*
X35864042Y-87705205D01*
X35872837Y-87709687D01*
X36082988Y-87796734D01*
X36092373Y-87799783D01*
X36313554Y-87852885D01*
X36323301Y-87854428D01*
X36550070Y-87872275D01*
X36559930Y-87872275D01*
X36786699Y-87854428D01*
X36796446Y-87852885D01*
X37017627Y-87799783D01*
X37027012Y-87796734D01*
X37237163Y-87709687D01*
X37245958Y-87705205D01*
X37413445Y-87602568D01*
X37422907Y-87592110D01*
X37419124Y-87583334D01*
X36284885Y-86449095D01*
X36250859Y-86386783D01*
X36252694Y-86361132D01*
X36919408Y-86361132D01*
X36919539Y-86362965D01*
X36923790Y-86369580D01*
X37775290Y-87221080D01*
X37792102Y-87230260D01*
X37855350Y-87244020D01*
X37890775Y-87272776D01*
X37986675Y-87385060D01*
X38025031Y-87429969D01*
X38205584Y-87584176D01*
X38209792Y-87586755D01*
X38209798Y-87586759D01*
X38308860Y-87647464D01*
X38408037Y-87708240D01*
X38412607Y-87710133D01*
X38412611Y-87710135D01*
X38622833Y-87797211D01*
X38627406Y-87799105D01*
X38675349Y-87810615D01*
X38853476Y-87853380D01*
X38853482Y-87853381D01*
X38858289Y-87854535D01*
X39095000Y-87873165D01*
X39331711Y-87854535D01*
X39336518Y-87853381D01*
X39336524Y-87853380D01*
X39514651Y-87810615D01*
X39562594Y-87799105D01*
X39567167Y-87797211D01*
X39777389Y-87710135D01*
X39777393Y-87710133D01*
X39781963Y-87708240D01*
X39881140Y-87647464D01*
X39980202Y-87586759D01*
X39980208Y-87586755D01*
X39984416Y-87584176D01*
X40164969Y-87429969D01*
X40168177Y-87426213D01*
X40168182Y-87426208D01*
X40269189Y-87307944D01*
X40328639Y-87269134D01*
X40399634Y-87268628D01*
X40460811Y-87307944D01*
X40561818Y-87426208D01*
X40561823Y-87426213D01*
X40565031Y-87429969D01*
X40745584Y-87584176D01*
X40749792Y-87586755D01*
X40749798Y-87586759D01*
X40848860Y-87647464D01*
X40948037Y-87708240D01*
X40952607Y-87710133D01*
X40952611Y-87710135D01*
X41162833Y-87797211D01*
X41167406Y-87799105D01*
X41215349Y-87810615D01*
X41393476Y-87853380D01*
X41393482Y-87853381D01*
X41398289Y-87854535D01*
X41635000Y-87873165D01*
X41871711Y-87854535D01*
X41876518Y-87853381D01*
X41876524Y-87853380D01*
X42054651Y-87810615D01*
X42102594Y-87799105D01*
X42107167Y-87797211D01*
X42317389Y-87710135D01*
X42317393Y-87710133D01*
X42321963Y-87708240D01*
X42421140Y-87647464D01*
X42520202Y-87586759D01*
X42520208Y-87586755D01*
X42524416Y-87584176D01*
X42704969Y-87429969D01*
X42708177Y-87426213D01*
X42708182Y-87426208D01*
X42809189Y-87307944D01*
X42868639Y-87269134D01*
X42939634Y-87268628D01*
X43000811Y-87307944D01*
X43101818Y-87426208D01*
X43101823Y-87426213D01*
X43105031Y-87429969D01*
X43285584Y-87584176D01*
X43289792Y-87586755D01*
X43289798Y-87586759D01*
X43388860Y-87647464D01*
X43488037Y-87708240D01*
X43492607Y-87710133D01*
X43492611Y-87710135D01*
X43702833Y-87797211D01*
X43707406Y-87799105D01*
X43755349Y-87810615D01*
X43933476Y-87853380D01*
X43933482Y-87853381D01*
X43938289Y-87854535D01*
X44175000Y-87873165D01*
X44411711Y-87854535D01*
X44416518Y-87853381D01*
X44416524Y-87853380D01*
X44594651Y-87810615D01*
X44642594Y-87799105D01*
X44647167Y-87797211D01*
X44857389Y-87710135D01*
X44857393Y-87710133D01*
X44861963Y-87708240D01*
X44961140Y-87647464D01*
X45060202Y-87586759D01*
X45060208Y-87586755D01*
X45064416Y-87584176D01*
X45244969Y-87429969D01*
X45248177Y-87426213D01*
X45248182Y-87426208D01*
X45349189Y-87307944D01*
X45408639Y-87269134D01*
X45479634Y-87268628D01*
X45540811Y-87307944D01*
X45641818Y-87426208D01*
X45641823Y-87426213D01*
X45645031Y-87429969D01*
X45825584Y-87584176D01*
X45829792Y-87586755D01*
X45829798Y-87586759D01*
X45928860Y-87647464D01*
X46028037Y-87708240D01*
X46032607Y-87710133D01*
X46032611Y-87710135D01*
X46242833Y-87797211D01*
X46247406Y-87799105D01*
X46295349Y-87810615D01*
X46473476Y-87853380D01*
X46473482Y-87853381D01*
X46478289Y-87854535D01*
X46715000Y-87873165D01*
X46951711Y-87854535D01*
X46956518Y-87853381D01*
X46956524Y-87853380D01*
X47134651Y-87810615D01*
X47182594Y-87799105D01*
X47187167Y-87797211D01*
X47397389Y-87710135D01*
X47397393Y-87710133D01*
X47401963Y-87708240D01*
X47501140Y-87647464D01*
X47600202Y-87586759D01*
X47600208Y-87586755D01*
X47604416Y-87584176D01*
X47784969Y-87429969D01*
X47788177Y-87426213D01*
X47788182Y-87426208D01*
X47889189Y-87307944D01*
X47948639Y-87269134D01*
X48019634Y-87268628D01*
X48080811Y-87307944D01*
X48181818Y-87426208D01*
X48181823Y-87426213D01*
X48185031Y-87429969D01*
X48365584Y-87584176D01*
X48369792Y-87586755D01*
X48369798Y-87586759D01*
X48468860Y-87647464D01*
X48568037Y-87708240D01*
X48572607Y-87710133D01*
X48572611Y-87710135D01*
X48782833Y-87797211D01*
X48787406Y-87799105D01*
X48835349Y-87810615D01*
X49013476Y-87853380D01*
X49013482Y-87853381D01*
X49018289Y-87854535D01*
X49255000Y-87873165D01*
X49491711Y-87854535D01*
X49496518Y-87853381D01*
X49496524Y-87853380D01*
X49674651Y-87810615D01*
X49722594Y-87799105D01*
X49727167Y-87797211D01*
X49937389Y-87710135D01*
X49937393Y-87710133D01*
X49941963Y-87708240D01*
X50041140Y-87647464D01*
X50140202Y-87586759D01*
X50140208Y-87586755D01*
X50144416Y-87584176D01*
X50324969Y-87429969D01*
X50328177Y-87426213D01*
X50328182Y-87426208D01*
X50429189Y-87307944D01*
X50488639Y-87269134D01*
X50559634Y-87268628D01*
X50620811Y-87307944D01*
X50721818Y-87426208D01*
X50721823Y-87426213D01*
X50725031Y-87429969D01*
X50905584Y-87584176D01*
X50909792Y-87586755D01*
X50909798Y-87586759D01*
X51101335Y-87704133D01*
X51148966Y-87756781D01*
X51161500Y-87811566D01*
X51161500Y-89816233D01*
X51160973Y-89827416D01*
X51159298Y-89834909D01*
X51159547Y-89842835D01*
X51159547Y-89842836D01*
X51161438Y-89902986D01*
X51161500Y-89906945D01*
X51161500Y-89934856D01*
X51161997Y-89938790D01*
X51161997Y-89938791D01*
X51162005Y-89938856D01*
X51162938Y-89950693D01*
X51164327Y-89994889D01*
X51169978Y-90014339D01*
X51173987Y-90033700D01*
X51176526Y-90053797D01*
X51179445Y-90061168D01*
X51179445Y-90061170D01*
X51192804Y-90094912D01*
X51196649Y-90106142D01*
X51199387Y-90115567D01*
X51208982Y-90148593D01*
X51213015Y-90155412D01*
X51213017Y-90155417D01*
X51219293Y-90166028D01*
X51227988Y-90183776D01*
X51235448Y-90202617D01*
X51240110Y-90209033D01*
X51240110Y-90209034D01*
X51261436Y-90238387D01*
X51267952Y-90248307D01*
X51290458Y-90286362D01*
X51304779Y-90300683D01*
X51317619Y-90315716D01*
X51329528Y-90332107D01*
X51335634Y-90337158D01*
X51363605Y-90360298D01*
X51372384Y-90368288D01*
X53446548Y-92442452D01*
X53480574Y-92504764D01*
X53475509Y-92575579D01*
X53432962Y-92632415D01*
X53366442Y-92657226D01*
X53346474Y-92657068D01*
X53345479Y-92656981D01*
X53345475Y-92656981D01*
X53340000Y-92656502D01*
X53111913Y-92676457D01*
X53106600Y-92677881D01*
X53106598Y-92677881D01*
X52896067Y-92734293D01*
X52896065Y-92734294D01*
X52890757Y-92735716D01*
X52885776Y-92738039D01*
X52885775Y-92738039D01*
X52688238Y-92830151D01*
X52688233Y-92830154D01*
X52683251Y-92832477D01*
X52669501Y-92842105D01*
X52500211Y-92960643D01*
X52500208Y-92960645D01*
X52495700Y-92963802D01*
X52333802Y-93125700D01*
X52202477Y-93313251D01*
X52200154Y-93318233D01*
X52200151Y-93318238D01*
X52184195Y-93352457D01*
X52137278Y-93405742D01*
X52069001Y-93425203D01*
X52001041Y-93404661D01*
X51955805Y-93352457D01*
X51939849Y-93318238D01*
X51939846Y-93318233D01*
X51937523Y-93313251D01*
X51806198Y-93125700D01*
X51644300Y-92963802D01*
X51639792Y-92960645D01*
X51639789Y-92960643D01*
X51470499Y-92842105D01*
X51456749Y-92832477D01*
X51451767Y-92830154D01*
X51451762Y-92830151D01*
X51254225Y-92738039D01*
X51254224Y-92738039D01*
X51249243Y-92735716D01*
X51243935Y-92734294D01*
X51243933Y-92734293D01*
X51033402Y-92677881D01*
X51033400Y-92677881D01*
X51028087Y-92676457D01*
X50800000Y-92656502D01*
X50571913Y-92676457D01*
X50566600Y-92677881D01*
X50566598Y-92677881D01*
X50356067Y-92734293D01*
X50356065Y-92734294D01*
X50350757Y-92735716D01*
X50345776Y-92738039D01*
X50345775Y-92738039D01*
X50148238Y-92830151D01*
X50148233Y-92830154D01*
X50143251Y-92832477D01*
X50129501Y-92842105D01*
X49960211Y-92960643D01*
X49960208Y-92960645D01*
X49955700Y-92963802D01*
X49793802Y-93125700D01*
X49662477Y-93313251D01*
X49660154Y-93318233D01*
X49660151Y-93318238D01*
X49644195Y-93352457D01*
X49565716Y-93520757D01*
X49564294Y-93526065D01*
X49564293Y-93526067D01*
X49530000Y-93654050D01*
X49506457Y-93741913D01*
X49486502Y-93970000D01*
X49506457Y-94198087D01*
X49565716Y-94419243D01*
X49568039Y-94424224D01*
X49568039Y-94424225D01*
X49660151Y-94621762D01*
X49660154Y-94621767D01*
X49662477Y-94626749D01*
X49793802Y-94814300D01*
X49955700Y-94976198D01*
X49960208Y-94979355D01*
X49960211Y-94979357D01*
X50038389Y-95034098D01*
X50143251Y-95107523D01*
X50148233Y-95109846D01*
X50148238Y-95109849D01*
X50345775Y-95201961D01*
X50350757Y-95204284D01*
X50356065Y-95205706D01*
X50356067Y-95205707D01*
X50566598Y-95262119D01*
X50566600Y-95262119D01*
X50571913Y-95263543D01*
X50800000Y-95283498D01*
X51028087Y-95263543D01*
X51033400Y-95262119D01*
X51033402Y-95262119D01*
X51243933Y-95205707D01*
X51243935Y-95205706D01*
X51249243Y-95204284D01*
X51254225Y-95201961D01*
X51451762Y-95109849D01*
X51451767Y-95109846D01*
X51456749Y-95107523D01*
X51561611Y-95034098D01*
X51639789Y-94979357D01*
X51639792Y-94979355D01*
X51644300Y-94976198D01*
X51806198Y-94814300D01*
X51937523Y-94626749D01*
X51939846Y-94621767D01*
X51939849Y-94621762D01*
X51955805Y-94587543D01*
X52002722Y-94534258D01*
X52070999Y-94514797D01*
X52138959Y-94535339D01*
X52184195Y-94587543D01*
X52200151Y-94621762D01*
X52200154Y-94621767D01*
X52202477Y-94626749D01*
X52333802Y-94814300D01*
X52495700Y-94976198D01*
X52500208Y-94979355D01*
X52500211Y-94979357D01*
X52578389Y-95034098D01*
X52683251Y-95107523D01*
X52688233Y-95109846D01*
X52688238Y-95109849D01*
X52885775Y-95201961D01*
X52890757Y-95204284D01*
X52896065Y-95205706D01*
X52896067Y-95205707D01*
X53106598Y-95262119D01*
X53106600Y-95262119D01*
X53111913Y-95263543D01*
X53340000Y-95283498D01*
X53568087Y-95263543D01*
X53573400Y-95262119D01*
X53573402Y-95262119D01*
X53783933Y-95205707D01*
X53783935Y-95205706D01*
X53789243Y-95204284D01*
X53794225Y-95201961D01*
X53991762Y-95109849D01*
X53991767Y-95109846D01*
X53996749Y-95107523D01*
X54101611Y-95034098D01*
X54179789Y-94979357D01*
X54179792Y-94979355D01*
X54184300Y-94976198D01*
X54346198Y-94814300D01*
X54477523Y-94626749D01*
X54479846Y-94621767D01*
X54479849Y-94621762D01*
X54495805Y-94587543D01*
X54542722Y-94534258D01*
X54610999Y-94514797D01*
X54678959Y-94535339D01*
X54724195Y-94587543D01*
X54740151Y-94621762D01*
X54740154Y-94621767D01*
X54742477Y-94626749D01*
X54873802Y-94814300D01*
X55035700Y-94976198D01*
X55040208Y-94979355D01*
X55040211Y-94979357D01*
X55118389Y-95034098D01*
X55223251Y-95107523D01*
X55228233Y-95109846D01*
X55228238Y-95109849D01*
X55425775Y-95201961D01*
X55430757Y-95204284D01*
X55436065Y-95205706D01*
X55436067Y-95205707D01*
X55646598Y-95262119D01*
X55646600Y-95262119D01*
X55651913Y-95263543D01*
X55880000Y-95283498D01*
X56108087Y-95263543D01*
X56113400Y-95262119D01*
X56113402Y-95262119D01*
X56323933Y-95205707D01*
X56323935Y-95205706D01*
X56329243Y-95204284D01*
X56334225Y-95201961D01*
X56531762Y-95109849D01*
X56531767Y-95109846D01*
X56536749Y-95107523D01*
X56641611Y-95034098D01*
X56719789Y-94979357D01*
X56719792Y-94979355D01*
X56724300Y-94976198D01*
X56886198Y-94814300D01*
X56996181Y-94657229D01*
X57051638Y-94612901D01*
X57099394Y-94603500D01*
X57200606Y-94603500D01*
X57268727Y-94623502D01*
X57303819Y-94657229D01*
X57413802Y-94814300D01*
X57575700Y-94976198D01*
X57580208Y-94979355D01*
X57580211Y-94979357D01*
X57658389Y-95034098D01*
X57763251Y-95107523D01*
X57768233Y-95109846D01*
X57768238Y-95109849D01*
X57965775Y-95201961D01*
X57970757Y-95204284D01*
X57976065Y-95205706D01*
X57976067Y-95205707D01*
X58186598Y-95262119D01*
X58186600Y-95262119D01*
X58191913Y-95263543D01*
X58420000Y-95283498D01*
X58648087Y-95263543D01*
X58653400Y-95262119D01*
X58653402Y-95262119D01*
X58863933Y-95205707D01*
X58863935Y-95205706D01*
X58869243Y-95204284D01*
X58874225Y-95201961D01*
X59071762Y-95109849D01*
X59071767Y-95109846D01*
X59076749Y-95107523D01*
X59181611Y-95034098D01*
X59259789Y-94979357D01*
X59259792Y-94979355D01*
X59264300Y-94976198D01*
X59426198Y-94814300D01*
X59557523Y-94626749D01*
X59559846Y-94621767D01*
X59559849Y-94621762D01*
X59575805Y-94587543D01*
X59622722Y-94534258D01*
X59690999Y-94514797D01*
X59758959Y-94535339D01*
X59804195Y-94587543D01*
X59820151Y-94621762D01*
X59820154Y-94621767D01*
X59822477Y-94626749D01*
X59953802Y-94814300D01*
X60115700Y-94976198D01*
X60120208Y-94979355D01*
X60120211Y-94979357D01*
X60198389Y-95034098D01*
X60303251Y-95107523D01*
X60308233Y-95109846D01*
X60308238Y-95109849D01*
X60505775Y-95201961D01*
X60510757Y-95204284D01*
X60516065Y-95205706D01*
X60516067Y-95205707D01*
X60726598Y-95262119D01*
X60726600Y-95262119D01*
X60731913Y-95263543D01*
X60960000Y-95283498D01*
X61188087Y-95263543D01*
X61193400Y-95262119D01*
X61193402Y-95262119D01*
X61403933Y-95205707D01*
X61403935Y-95205706D01*
X61409243Y-95204284D01*
X61414225Y-95201961D01*
X61611762Y-95109849D01*
X61611767Y-95109846D01*
X61616749Y-95107523D01*
X61721611Y-95034098D01*
X61799789Y-94979357D01*
X61799792Y-94979355D01*
X61804300Y-94976198D01*
X61966198Y-94814300D01*
X62097523Y-94626749D01*
X62099846Y-94621767D01*
X62099849Y-94621762D01*
X62115805Y-94587543D01*
X62162722Y-94534258D01*
X62230999Y-94514797D01*
X62298959Y-94535339D01*
X62344195Y-94587543D01*
X62360151Y-94621762D01*
X62360154Y-94621767D01*
X62362477Y-94626749D01*
X62493802Y-94814300D01*
X62655700Y-94976198D01*
X62660208Y-94979355D01*
X62660211Y-94979357D01*
X62738389Y-95034098D01*
X62843251Y-95107523D01*
X62848233Y-95109846D01*
X62848238Y-95109849D01*
X63045775Y-95201961D01*
X63050757Y-95204284D01*
X63056065Y-95205706D01*
X63056067Y-95205707D01*
X63266598Y-95262119D01*
X63266600Y-95262119D01*
X63271913Y-95263543D01*
X63500000Y-95283498D01*
X63728087Y-95263543D01*
X63733400Y-95262119D01*
X63733402Y-95262119D01*
X63943933Y-95205707D01*
X63943935Y-95205706D01*
X63949243Y-95204284D01*
X63954225Y-95201961D01*
X64151762Y-95109849D01*
X64151767Y-95109846D01*
X64156749Y-95107523D01*
X64261611Y-95034098D01*
X64339789Y-94979357D01*
X64339792Y-94979355D01*
X64344300Y-94976198D01*
X64506198Y-94814300D01*
X64637523Y-94626749D01*
X64639846Y-94621767D01*
X64639849Y-94621762D01*
X64655805Y-94587543D01*
X64702722Y-94534258D01*
X64770999Y-94514797D01*
X64838959Y-94535339D01*
X64884195Y-94587543D01*
X64900151Y-94621762D01*
X64900154Y-94621767D01*
X64902477Y-94626749D01*
X65033802Y-94814300D01*
X65195700Y-94976198D01*
X65200208Y-94979355D01*
X65200211Y-94979357D01*
X65278389Y-95034098D01*
X65383251Y-95107523D01*
X65388233Y-95109846D01*
X65388238Y-95109849D01*
X65585775Y-95201961D01*
X65590757Y-95204284D01*
X65596065Y-95205706D01*
X65596067Y-95205707D01*
X65806598Y-95262119D01*
X65806600Y-95262119D01*
X65811913Y-95263543D01*
X66040000Y-95283498D01*
X66268087Y-95263543D01*
X66273400Y-95262119D01*
X66273402Y-95262119D01*
X66483933Y-95205707D01*
X66483935Y-95205706D01*
X66489243Y-95204284D01*
X66494225Y-95201961D01*
X66691762Y-95109849D01*
X66691767Y-95109846D01*
X66696749Y-95107523D01*
X66801611Y-95034098D01*
X66879789Y-94979357D01*
X66879792Y-94979355D01*
X66884300Y-94976198D01*
X67046198Y-94814300D01*
X67177523Y-94626749D01*
X67179846Y-94621767D01*
X67179849Y-94621762D01*
X67195805Y-94587543D01*
X67242722Y-94534258D01*
X67310999Y-94514797D01*
X67378959Y-94535339D01*
X67424195Y-94587543D01*
X67440151Y-94621762D01*
X67440154Y-94621767D01*
X67442477Y-94626749D01*
X67573802Y-94814300D01*
X67735700Y-94976198D01*
X67740208Y-94979355D01*
X67740211Y-94979357D01*
X67818389Y-95034098D01*
X67923251Y-95107523D01*
X67928233Y-95109846D01*
X67928238Y-95109849D01*
X68125775Y-95201961D01*
X68130757Y-95204284D01*
X68136065Y-95205706D01*
X68136067Y-95205707D01*
X68346598Y-95262119D01*
X68346600Y-95262119D01*
X68351913Y-95263543D01*
X68580000Y-95283498D01*
X68808087Y-95263543D01*
X68813400Y-95262119D01*
X68813402Y-95262119D01*
X69023933Y-95205707D01*
X69023935Y-95205706D01*
X69029243Y-95204284D01*
X69034225Y-95201961D01*
X69231762Y-95109849D01*
X69231767Y-95109846D01*
X69236749Y-95107523D01*
X69341611Y-95034098D01*
X69419789Y-94979357D01*
X69419792Y-94979355D01*
X69424300Y-94976198D01*
X69586198Y-94814300D01*
X69717523Y-94626749D01*
X69719846Y-94621767D01*
X69719849Y-94621762D01*
X69811961Y-94424225D01*
X69811961Y-94424224D01*
X69814284Y-94419243D01*
X69873543Y-94198087D01*
X69893498Y-93970000D01*
X69873543Y-93741913D01*
X69850000Y-93654050D01*
X69815707Y-93526067D01*
X69815706Y-93526065D01*
X69814284Y-93520757D01*
X69735805Y-93352457D01*
X69719849Y-93318238D01*
X69719846Y-93318233D01*
X69717523Y-93313251D01*
X69586198Y-93125700D01*
X69424300Y-92963802D01*
X69419792Y-92960645D01*
X69419789Y-92960643D01*
X69250499Y-92842105D01*
X69236749Y-92832477D01*
X69231767Y-92830154D01*
X69231762Y-92830151D01*
X69034225Y-92738039D01*
X69034224Y-92738039D01*
X69029243Y-92735716D01*
X69023935Y-92734294D01*
X69023933Y-92734293D01*
X68813402Y-92677881D01*
X68813400Y-92677881D01*
X68808087Y-92676457D01*
X68580000Y-92656502D01*
X68351913Y-92676457D01*
X68346600Y-92677881D01*
X68346598Y-92677881D01*
X68136067Y-92734293D01*
X68136065Y-92734294D01*
X68130757Y-92735716D01*
X68125776Y-92738039D01*
X68125775Y-92738039D01*
X67928238Y-92830151D01*
X67928233Y-92830154D01*
X67923251Y-92832477D01*
X67909501Y-92842105D01*
X67740211Y-92960643D01*
X67740208Y-92960645D01*
X67735700Y-92963802D01*
X67573802Y-93125700D01*
X67442477Y-93313251D01*
X67440154Y-93318233D01*
X67440151Y-93318238D01*
X67424195Y-93352457D01*
X67377278Y-93405742D01*
X67309001Y-93425203D01*
X67241041Y-93404661D01*
X67195805Y-93352457D01*
X67179849Y-93318238D01*
X67179846Y-93318233D01*
X67177523Y-93313251D01*
X67046198Y-93125700D01*
X66884300Y-92963802D01*
X66879792Y-92960645D01*
X66879789Y-92960643D01*
X66710499Y-92842105D01*
X66696749Y-92832477D01*
X66691767Y-92830154D01*
X66691762Y-92830151D01*
X66494225Y-92738039D01*
X66494224Y-92738039D01*
X66489243Y-92735716D01*
X66483935Y-92734294D01*
X66483933Y-92734293D01*
X66273402Y-92677881D01*
X66273400Y-92677881D01*
X66268087Y-92676457D01*
X66040000Y-92656502D01*
X65811913Y-92676457D01*
X65806600Y-92677881D01*
X65806598Y-92677881D01*
X65596067Y-92734293D01*
X65596065Y-92734294D01*
X65590757Y-92735716D01*
X65585776Y-92738039D01*
X65585775Y-92738039D01*
X65388238Y-92830151D01*
X65388233Y-92830154D01*
X65383251Y-92832477D01*
X65369501Y-92842105D01*
X65200211Y-92960643D01*
X65200208Y-92960645D01*
X65195700Y-92963802D01*
X65033802Y-93125700D01*
X64902477Y-93313251D01*
X64900154Y-93318233D01*
X64900151Y-93318238D01*
X64884195Y-93352457D01*
X64837278Y-93405742D01*
X64769001Y-93425203D01*
X64701041Y-93404661D01*
X64655805Y-93352457D01*
X64639849Y-93318238D01*
X64639846Y-93318233D01*
X64637523Y-93313251D01*
X64506198Y-93125700D01*
X64344300Y-92963802D01*
X64339792Y-92960645D01*
X64339789Y-92960643D01*
X64170499Y-92842105D01*
X64156749Y-92832477D01*
X64151767Y-92830154D01*
X64151762Y-92830151D01*
X63954225Y-92738039D01*
X63954224Y-92738039D01*
X63949243Y-92735716D01*
X63943935Y-92734294D01*
X63943933Y-92734293D01*
X63733402Y-92677881D01*
X63733400Y-92677881D01*
X63728087Y-92676457D01*
X63500000Y-92656502D01*
X63271913Y-92676457D01*
X63266600Y-92677881D01*
X63266598Y-92677881D01*
X63056067Y-92734293D01*
X63056065Y-92734294D01*
X63050757Y-92735716D01*
X63045776Y-92738039D01*
X63045775Y-92738039D01*
X62848238Y-92830151D01*
X62848233Y-92830154D01*
X62843251Y-92832477D01*
X62829501Y-92842105D01*
X62660211Y-92960643D01*
X62660208Y-92960645D01*
X62655700Y-92963802D01*
X62493802Y-93125700D01*
X62362477Y-93313251D01*
X62360154Y-93318233D01*
X62360151Y-93318238D01*
X62344195Y-93352457D01*
X62297278Y-93405742D01*
X62229001Y-93425203D01*
X62161041Y-93404661D01*
X62115805Y-93352457D01*
X62099849Y-93318238D01*
X62099846Y-93318233D01*
X62097523Y-93313251D01*
X61966198Y-93125700D01*
X61804300Y-92963802D01*
X61799792Y-92960645D01*
X61799789Y-92960643D01*
X61630499Y-92842105D01*
X61616749Y-92832477D01*
X61611767Y-92830154D01*
X61611762Y-92830151D01*
X61414225Y-92738039D01*
X61414224Y-92738039D01*
X61409243Y-92735716D01*
X61403935Y-92734294D01*
X61403933Y-92734293D01*
X61193402Y-92677881D01*
X61193400Y-92677881D01*
X61188087Y-92676457D01*
X60960000Y-92656502D01*
X60731913Y-92676457D01*
X60726600Y-92677881D01*
X60726598Y-92677881D01*
X60516067Y-92734293D01*
X60516065Y-92734294D01*
X60510757Y-92735716D01*
X60505776Y-92738039D01*
X60505775Y-92738039D01*
X60308238Y-92830151D01*
X60308233Y-92830154D01*
X60303251Y-92832477D01*
X60289501Y-92842105D01*
X60120211Y-92960643D01*
X60120208Y-92960645D01*
X60115700Y-92963802D01*
X59953802Y-93125700D01*
X59822477Y-93313251D01*
X59820154Y-93318233D01*
X59820151Y-93318238D01*
X59804195Y-93352457D01*
X59757278Y-93405742D01*
X59689001Y-93425203D01*
X59621041Y-93404661D01*
X59575805Y-93352457D01*
X59559849Y-93318238D01*
X59559846Y-93318233D01*
X59557523Y-93313251D01*
X59426198Y-93125700D01*
X59264300Y-92963802D01*
X59259792Y-92960645D01*
X59259789Y-92960643D01*
X59090499Y-92842105D01*
X59076749Y-92832477D01*
X59071767Y-92830154D01*
X59071762Y-92830151D01*
X58874225Y-92738039D01*
X58874224Y-92738039D01*
X58869243Y-92735716D01*
X58863935Y-92734294D01*
X58863933Y-92734293D01*
X58653402Y-92677881D01*
X58653400Y-92677881D01*
X58648087Y-92676457D01*
X58420000Y-92656502D01*
X58191913Y-92676457D01*
X58186600Y-92677881D01*
X58186598Y-92677881D01*
X57976067Y-92734293D01*
X57976065Y-92734294D01*
X57970757Y-92735716D01*
X57965776Y-92738039D01*
X57965775Y-92738039D01*
X57768238Y-92830151D01*
X57768233Y-92830154D01*
X57763251Y-92832477D01*
X57749501Y-92842105D01*
X57580211Y-92960643D01*
X57580208Y-92960645D01*
X57575700Y-92963802D01*
X57413802Y-93125700D01*
X57410645Y-93130208D01*
X57410643Y-93130211D01*
X57303819Y-93282771D01*
X57248362Y-93327099D01*
X57200606Y-93336500D01*
X57099394Y-93336500D01*
X57031273Y-93316498D01*
X56996181Y-93282771D01*
X56889357Y-93130211D01*
X56889355Y-93130208D01*
X56886198Y-93125700D01*
X56724300Y-92963802D01*
X56719792Y-92960645D01*
X56719789Y-92960643D01*
X56550499Y-92842105D01*
X56536749Y-92832477D01*
X56531767Y-92830154D01*
X56531762Y-92830151D01*
X56334225Y-92738039D01*
X56334224Y-92738039D01*
X56329243Y-92735716D01*
X56323935Y-92734294D01*
X56323933Y-92734293D01*
X56113402Y-92677881D01*
X56113400Y-92677881D01*
X56108087Y-92676457D01*
X55880000Y-92656502D01*
X55651913Y-92676457D01*
X55646602Y-92677880D01*
X55646591Y-92677882D01*
X55580573Y-92695572D01*
X55509596Y-92693883D01*
X55458866Y-92662961D01*
X55376252Y-92580347D01*
X77872160Y-92580347D01*
X77877887Y-92587997D01*
X78049042Y-92692882D01*
X78057837Y-92697364D01*
X78267988Y-92784411D01*
X78277373Y-92787460D01*
X78498554Y-92840562D01*
X78508301Y-92842105D01*
X78735070Y-92859952D01*
X78744930Y-92859952D01*
X78971699Y-92842105D01*
X78981446Y-92840562D01*
X79202627Y-92787460D01*
X79212012Y-92784411D01*
X79422163Y-92697364D01*
X79430958Y-92692882D01*
X79598445Y-92590245D01*
X79607907Y-92579787D01*
X79604124Y-92571011D01*
X78752812Y-91719699D01*
X78738868Y-91712085D01*
X78737035Y-91712216D01*
X78730420Y-91716467D01*
X77878920Y-92567967D01*
X77872160Y-92580347D01*
X55376252Y-92580347D01*
X54148512Y-91352607D01*
X77227725Y-91352607D01*
X77245572Y-91579376D01*
X77247115Y-91589123D01*
X77300217Y-91810304D01*
X77303266Y-91819689D01*
X77390313Y-92029840D01*
X77394795Y-92038635D01*
X77497432Y-92206122D01*
X77507890Y-92215584D01*
X77516666Y-92211801D01*
X78367978Y-91360489D01*
X78374356Y-91348809D01*
X79104408Y-91348809D01*
X79104539Y-91350642D01*
X79108790Y-91357257D01*
X79960290Y-92208757D01*
X79972670Y-92215517D01*
X79980320Y-92209790D01*
X80085205Y-92038635D01*
X80089687Y-92029840D01*
X80176734Y-91819689D01*
X80179783Y-91810304D01*
X80232885Y-91589123D01*
X80234428Y-91579376D01*
X80252275Y-91352607D01*
X80252275Y-91342747D01*
X80234428Y-91115978D01*
X80232885Y-91106231D01*
X80179783Y-90885050D01*
X80176734Y-90875665D01*
X80089687Y-90665514D01*
X80085205Y-90656719D01*
X79982568Y-90489232D01*
X79972110Y-90479770D01*
X79963334Y-90483553D01*
X79112022Y-91334865D01*
X79104408Y-91348809D01*
X78374356Y-91348809D01*
X78375592Y-91346545D01*
X78375461Y-91344712D01*
X78371210Y-91338097D01*
X77519710Y-90486597D01*
X77507330Y-90479837D01*
X77499680Y-90485564D01*
X77394795Y-90656719D01*
X77390313Y-90665514D01*
X77303266Y-90875665D01*
X77300217Y-90885050D01*
X77247115Y-91106231D01*
X77245572Y-91115978D01*
X77227725Y-91342747D01*
X77227725Y-91352607D01*
X54148512Y-91352607D01*
X52911472Y-90115567D01*
X77872093Y-90115567D01*
X77875876Y-90124343D01*
X78727188Y-90975655D01*
X78741132Y-90983269D01*
X78742965Y-90983138D01*
X78749580Y-90978887D01*
X79601080Y-90127387D01*
X79607840Y-90115007D01*
X79602113Y-90107357D01*
X79430958Y-90002472D01*
X79422163Y-89997990D01*
X79212012Y-89910943D01*
X79202627Y-89907894D01*
X78981446Y-89854792D01*
X78971699Y-89853249D01*
X78744930Y-89835402D01*
X78735070Y-89835402D01*
X78508301Y-89853249D01*
X78498554Y-89854792D01*
X78277373Y-89907894D01*
X78267988Y-89910943D01*
X78057837Y-89997990D01*
X78049042Y-90002472D01*
X77881555Y-90105109D01*
X77872093Y-90115567D01*
X52911472Y-90115567D01*
X52465405Y-89669500D01*
X52431379Y-89607188D01*
X52428500Y-89580405D01*
X52428500Y-87811566D01*
X52448502Y-87743445D01*
X52488665Y-87704133D01*
X52680202Y-87586759D01*
X52680208Y-87586755D01*
X52684416Y-87584176D01*
X52864969Y-87429969D01*
X52868177Y-87426213D01*
X52868182Y-87426208D01*
X52969189Y-87307944D01*
X53028639Y-87269134D01*
X53099634Y-87268628D01*
X53160811Y-87307944D01*
X53261818Y-87426208D01*
X53261823Y-87426213D01*
X53265031Y-87429969D01*
X53445584Y-87584176D01*
X53449792Y-87586755D01*
X53449798Y-87586759D01*
X53548860Y-87647464D01*
X53648037Y-87708240D01*
X53652607Y-87710133D01*
X53652611Y-87710135D01*
X53862833Y-87797211D01*
X53867406Y-87799105D01*
X53915349Y-87810615D01*
X54093476Y-87853380D01*
X54093482Y-87853381D01*
X54098289Y-87854535D01*
X54335000Y-87873165D01*
X54571711Y-87854535D01*
X54576518Y-87853381D01*
X54576524Y-87853380D01*
X54754651Y-87810615D01*
X54802594Y-87799105D01*
X54807167Y-87797211D01*
X55017389Y-87710135D01*
X55017393Y-87710133D01*
X55021963Y-87708240D01*
X55121140Y-87647464D01*
X55220202Y-87586759D01*
X55220208Y-87586755D01*
X55224416Y-87584176D01*
X55404969Y-87429969D01*
X55408177Y-87426213D01*
X55408182Y-87426208D01*
X55509189Y-87307944D01*
X55568639Y-87269134D01*
X55639634Y-87268628D01*
X55700811Y-87307944D01*
X55801818Y-87426208D01*
X55801823Y-87426213D01*
X55805031Y-87429969D01*
X55985584Y-87584176D01*
X55989792Y-87586755D01*
X55989798Y-87586759D01*
X56088860Y-87647464D01*
X56188037Y-87708240D01*
X56192607Y-87710133D01*
X56192611Y-87710135D01*
X56402833Y-87797211D01*
X56407406Y-87799105D01*
X56455349Y-87810615D01*
X56633476Y-87853380D01*
X56633482Y-87853381D01*
X56638289Y-87854535D01*
X56875000Y-87873165D01*
X57111711Y-87854535D01*
X57116518Y-87853381D01*
X57116524Y-87853380D01*
X57294651Y-87810615D01*
X57342594Y-87799105D01*
X57347167Y-87797211D01*
X57557389Y-87710135D01*
X57557393Y-87710133D01*
X57561963Y-87708240D01*
X57661140Y-87647464D01*
X57760202Y-87586759D01*
X57760208Y-87586755D01*
X57764416Y-87584176D01*
X57944969Y-87429969D01*
X57948177Y-87426213D01*
X57948182Y-87426208D01*
X58049189Y-87307944D01*
X58108639Y-87269134D01*
X58179634Y-87268628D01*
X58240811Y-87307944D01*
X58341818Y-87426208D01*
X58341823Y-87426213D01*
X58345031Y-87429969D01*
X58525584Y-87584176D01*
X58529792Y-87586755D01*
X58529798Y-87586759D01*
X58628860Y-87647464D01*
X58728037Y-87708240D01*
X58732607Y-87710133D01*
X58732611Y-87710135D01*
X58942833Y-87797211D01*
X58947406Y-87799105D01*
X58995349Y-87810615D01*
X59173476Y-87853380D01*
X59173482Y-87853381D01*
X59178289Y-87854535D01*
X59415000Y-87873165D01*
X59651711Y-87854535D01*
X59656518Y-87853381D01*
X59656524Y-87853380D01*
X59834651Y-87810615D01*
X59882594Y-87799105D01*
X59887167Y-87797211D01*
X60097389Y-87710135D01*
X60097393Y-87710133D01*
X60101963Y-87708240D01*
X60201140Y-87647464D01*
X60300202Y-87586759D01*
X60300208Y-87586755D01*
X60304416Y-87584176D01*
X60484969Y-87429969D01*
X60488177Y-87426213D01*
X60488182Y-87426208D01*
X60589189Y-87307944D01*
X60648639Y-87269134D01*
X60719634Y-87268628D01*
X60780811Y-87307944D01*
X60881818Y-87426208D01*
X60881823Y-87426213D01*
X60885031Y-87429969D01*
X61065584Y-87584176D01*
X61069792Y-87586755D01*
X61069798Y-87586759D01*
X61168860Y-87647464D01*
X61268037Y-87708240D01*
X61272607Y-87710133D01*
X61272611Y-87710135D01*
X61482833Y-87797211D01*
X61487406Y-87799105D01*
X61535349Y-87810615D01*
X61713476Y-87853380D01*
X61713482Y-87853381D01*
X61718289Y-87854535D01*
X61955000Y-87873165D01*
X62191711Y-87854535D01*
X62196518Y-87853381D01*
X62196524Y-87853380D01*
X62374651Y-87810615D01*
X62422594Y-87799105D01*
X62427167Y-87797211D01*
X62637389Y-87710135D01*
X62637393Y-87710133D01*
X62641963Y-87708240D01*
X62741140Y-87647464D01*
X62840202Y-87586759D01*
X62840208Y-87586755D01*
X62844416Y-87584176D01*
X63024969Y-87429969D01*
X63028177Y-87426213D01*
X63028182Y-87426208D01*
X63129189Y-87307944D01*
X63188639Y-87269134D01*
X63259634Y-87268628D01*
X63320811Y-87307944D01*
X63421818Y-87426208D01*
X63421823Y-87426213D01*
X63425031Y-87429969D01*
X63605584Y-87584176D01*
X63609792Y-87586755D01*
X63609798Y-87586759D01*
X63708860Y-87647464D01*
X63808037Y-87708240D01*
X63812607Y-87710133D01*
X63812611Y-87710135D01*
X64022833Y-87797211D01*
X64027406Y-87799105D01*
X64075349Y-87810615D01*
X64253476Y-87853380D01*
X64253482Y-87853381D01*
X64258289Y-87854535D01*
X64495000Y-87873165D01*
X64731711Y-87854535D01*
X64736518Y-87853381D01*
X64736524Y-87853380D01*
X64914651Y-87810615D01*
X64962594Y-87799105D01*
X64967167Y-87797211D01*
X65177389Y-87710135D01*
X65177393Y-87710133D01*
X65181963Y-87708240D01*
X65281140Y-87647464D01*
X65380202Y-87586759D01*
X65380208Y-87586755D01*
X65384416Y-87584176D01*
X65564969Y-87429969D01*
X65568177Y-87426213D01*
X65568182Y-87426208D01*
X65669189Y-87307944D01*
X65728639Y-87269134D01*
X65799634Y-87268628D01*
X65860811Y-87307944D01*
X65961818Y-87426208D01*
X65961823Y-87426213D01*
X65965031Y-87429969D01*
X66145584Y-87584176D01*
X66149792Y-87586755D01*
X66149798Y-87586759D01*
X66248860Y-87647464D01*
X66348037Y-87708240D01*
X66352607Y-87710133D01*
X66352611Y-87710135D01*
X66562833Y-87797211D01*
X66567406Y-87799105D01*
X66615349Y-87810615D01*
X66793476Y-87853380D01*
X66793482Y-87853381D01*
X66798289Y-87854535D01*
X67035000Y-87873165D01*
X67271711Y-87854535D01*
X67276518Y-87853381D01*
X67276524Y-87853380D01*
X67454651Y-87810615D01*
X67502594Y-87799105D01*
X67507167Y-87797211D01*
X67717389Y-87710135D01*
X67717393Y-87710133D01*
X67721963Y-87708240D01*
X67821140Y-87647464D01*
X67920202Y-87586759D01*
X67920208Y-87586755D01*
X67924416Y-87584176D01*
X68104969Y-87429969D01*
X68108177Y-87426213D01*
X68108182Y-87426208D01*
X68209189Y-87307944D01*
X68268639Y-87269134D01*
X68339634Y-87268628D01*
X68400811Y-87307944D01*
X68501818Y-87426208D01*
X68501823Y-87426213D01*
X68505031Y-87429969D01*
X68685584Y-87584176D01*
X68689792Y-87586755D01*
X68689798Y-87586759D01*
X68788860Y-87647464D01*
X68888037Y-87708240D01*
X68892607Y-87710133D01*
X68892611Y-87710135D01*
X69102833Y-87797211D01*
X69107406Y-87799105D01*
X69155349Y-87810615D01*
X69333476Y-87853380D01*
X69333482Y-87853381D01*
X69338289Y-87854535D01*
X69575000Y-87873165D01*
X69811711Y-87854535D01*
X69816518Y-87853381D01*
X69816524Y-87853380D01*
X69994651Y-87810615D01*
X70042594Y-87799105D01*
X70047167Y-87797211D01*
X70257389Y-87710135D01*
X70257393Y-87710133D01*
X70261963Y-87708240D01*
X70361140Y-87647464D01*
X70460202Y-87586759D01*
X70460208Y-87586755D01*
X70464416Y-87584176D01*
X70644969Y-87429969D01*
X70799176Y-87249416D01*
X70801755Y-87245208D01*
X70801759Y-87245202D01*
X70920654Y-87051183D01*
X70923240Y-87046963D01*
X70993927Y-86876308D01*
X71038475Y-86821027D01*
X71105838Y-86798606D01*
X71174630Y-86816164D01*
X71223584Y-86869291D01*
X71261340Y-86946702D01*
X71263795Y-86950341D01*
X71263798Y-86950347D01*
X71325881Y-87042389D01*
X71418415Y-87179576D01*
X71606371Y-87388322D01*
X71821550Y-87568879D01*
X72059764Y-87717731D01*
X72193484Y-87777267D01*
X72275464Y-87813767D01*
X72316375Y-87831982D01*
X72586390Y-87909407D01*
X72590740Y-87910018D01*
X72590743Y-87910019D01*
X72693690Y-87924487D01*
X72864552Y-87948500D01*
X73075146Y-87948500D01*
X73077332Y-87948347D01*
X73077336Y-87948347D01*
X73280827Y-87934118D01*
X73280832Y-87934117D01*
X73285212Y-87933811D01*
X73559970Y-87875409D01*
X73564099Y-87873906D01*
X73564103Y-87873905D01*
X73819781Y-87780846D01*
X73819785Y-87780844D01*
X73823926Y-87779337D01*
X74071942Y-87647464D01*
X74118150Y-87613892D01*
X74295629Y-87484947D01*
X74295632Y-87484944D01*
X74299192Y-87482358D01*
X74350121Y-87433177D01*
X74498087Y-87290287D01*
X74501252Y-87287231D01*
X74674188Y-87065882D01*
X74676384Y-87062078D01*
X74676389Y-87062071D01*
X74812435Y-86826431D01*
X74814636Y-86822619D01*
X74919862Y-86562176D01*
X74934096Y-86505088D01*
X74986753Y-86293893D01*
X74986754Y-86293888D01*
X74987817Y-86289624D01*
X74989785Y-86270905D01*
X75016719Y-86014636D01*
X75016719Y-86014633D01*
X75017178Y-86010267D01*
X75017025Y-86005873D01*
X75007529Y-85733939D01*
X75007528Y-85733933D01*
X75007375Y-85729542D01*
X74983608Y-85594749D01*
X74959360Y-85457236D01*
X74958598Y-85452913D01*
X74871797Y-85185765D01*
X74866377Y-85174651D01*
X74788190Y-85014346D01*
X74748660Y-84933298D01*
X74746205Y-84929659D01*
X74746202Y-84929653D01*
X74658841Y-84800136D01*
X74591585Y-84700424D01*
X74403629Y-84491678D01*
X74188450Y-84311121D01*
X73950236Y-84162269D01*
X73693625Y-84048018D01*
X73423610Y-83970593D01*
X73419260Y-83969982D01*
X73419257Y-83969981D01*
X73316310Y-83955513D01*
X73145448Y-83931500D01*
X72934854Y-83931500D01*
X72932668Y-83931653D01*
X72932664Y-83931653D01*
X72729173Y-83945882D01*
X72729168Y-83945883D01*
X72724788Y-83946189D01*
X72450030Y-84004591D01*
X72445901Y-84006094D01*
X72445897Y-84006095D01*
X72190219Y-84099154D01*
X72190215Y-84099156D01*
X72186074Y-84100663D01*
X71938058Y-84232536D01*
X71934499Y-84235122D01*
X71934497Y-84235123D01*
X71829895Y-84311121D01*
X71710808Y-84397642D01*
X71508748Y-84592769D01*
X71335812Y-84814118D01*
X71333616Y-84817922D01*
X71333611Y-84817929D01*
X71260104Y-84945248D01*
X71195364Y-85057381D01*
X71090138Y-85317824D01*
X71089073Y-85322097D01*
X71089072Y-85322099D01*
X71051611Y-85472347D01*
X71015723Y-85533606D01*
X70952414Y-85565737D01*
X70881783Y-85558540D01*
X70826256Y-85514299D01*
X70821922Y-85507700D01*
X70801765Y-85474807D01*
X70801758Y-85474797D01*
X70799176Y-85470584D01*
X70644969Y-85290031D01*
X70464416Y-85135824D01*
X70460208Y-85133245D01*
X70460202Y-85133241D01*
X70266183Y-85014346D01*
X70261963Y-85011760D01*
X70257393Y-85009867D01*
X70257389Y-85009865D01*
X70047167Y-84922789D01*
X70047165Y-84922788D01*
X70042594Y-84920895D01*
X69962391Y-84901640D01*
X69816524Y-84866620D01*
X69816518Y-84866619D01*
X69811711Y-84865465D01*
X69575000Y-84846835D01*
X69338289Y-84865465D01*
X69333482Y-84866619D01*
X69333476Y-84866620D01*
X69187609Y-84901640D01*
X69107406Y-84920895D01*
X69102835Y-84922788D01*
X69102833Y-84922789D01*
X68892611Y-85009865D01*
X68892607Y-85009867D01*
X68888037Y-85011760D01*
X68883817Y-85014346D01*
X68689798Y-85133241D01*
X68689792Y-85133245D01*
X68685584Y-85135824D01*
X68505031Y-85290031D01*
X68501823Y-85293787D01*
X68501818Y-85293792D01*
X68400811Y-85412056D01*
X68341361Y-85450866D01*
X68270366Y-85451372D01*
X68209189Y-85412056D01*
X68108182Y-85293792D01*
X68108177Y-85293787D01*
X68104969Y-85290031D01*
X67924416Y-85135824D01*
X67920208Y-85133245D01*
X67920202Y-85133241D01*
X67726183Y-85014346D01*
X67721963Y-85011760D01*
X67717393Y-85009867D01*
X67717389Y-85009865D01*
X67507167Y-84922789D01*
X67507165Y-84922788D01*
X67502594Y-84920895D01*
X67422391Y-84901640D01*
X67276524Y-84866620D01*
X67276518Y-84866619D01*
X67271711Y-84865465D01*
X67035000Y-84846835D01*
X66798289Y-84865465D01*
X66793482Y-84866619D01*
X66793476Y-84866620D01*
X66647609Y-84901640D01*
X66567406Y-84920895D01*
X66562835Y-84922788D01*
X66562833Y-84922789D01*
X66352611Y-85009865D01*
X66352607Y-85009867D01*
X66348037Y-85011760D01*
X66343817Y-85014346D01*
X66149798Y-85133241D01*
X66149792Y-85133245D01*
X66145584Y-85135824D01*
X65965031Y-85290031D01*
X65961823Y-85293787D01*
X65961818Y-85293792D01*
X65860811Y-85412056D01*
X65801361Y-85450866D01*
X65730366Y-85451372D01*
X65669189Y-85412056D01*
X65568182Y-85293792D01*
X65568177Y-85293787D01*
X65564969Y-85290031D01*
X65384416Y-85135824D01*
X65380208Y-85133245D01*
X65380202Y-85133241D01*
X65186183Y-85014346D01*
X65181963Y-85011760D01*
X65177393Y-85009867D01*
X65177389Y-85009865D01*
X64967167Y-84922789D01*
X64967165Y-84922788D01*
X64962594Y-84920895D01*
X64882391Y-84901640D01*
X64736524Y-84866620D01*
X64736518Y-84866619D01*
X64731711Y-84865465D01*
X64495000Y-84846835D01*
X64258289Y-84865465D01*
X64253482Y-84866619D01*
X64253476Y-84866620D01*
X64107609Y-84901640D01*
X64027406Y-84920895D01*
X64022835Y-84922788D01*
X64022833Y-84922789D01*
X63812611Y-85009865D01*
X63812607Y-85009867D01*
X63808037Y-85011760D01*
X63803817Y-85014346D01*
X63609798Y-85133241D01*
X63609792Y-85133245D01*
X63605584Y-85135824D01*
X63425031Y-85290031D01*
X63421823Y-85293787D01*
X63421818Y-85293792D01*
X63320811Y-85412056D01*
X63261361Y-85450866D01*
X63190366Y-85451372D01*
X63129189Y-85412056D01*
X63028182Y-85293792D01*
X63028177Y-85293787D01*
X63024969Y-85290031D01*
X62844416Y-85135824D01*
X62840208Y-85133245D01*
X62840202Y-85133241D01*
X62646183Y-85014346D01*
X62641963Y-85011760D01*
X62637393Y-85009867D01*
X62637389Y-85009865D01*
X62427167Y-84922789D01*
X62427165Y-84922788D01*
X62422594Y-84920895D01*
X62342391Y-84901640D01*
X62196524Y-84866620D01*
X62196518Y-84866619D01*
X62191711Y-84865465D01*
X61955000Y-84846835D01*
X61718289Y-84865465D01*
X61713482Y-84866619D01*
X61713476Y-84866620D01*
X61567609Y-84901640D01*
X61487406Y-84920895D01*
X61482835Y-84922788D01*
X61482833Y-84922789D01*
X61272611Y-85009865D01*
X61272607Y-85009867D01*
X61268037Y-85011760D01*
X61263817Y-85014346D01*
X61069798Y-85133241D01*
X61069792Y-85133245D01*
X61065584Y-85135824D01*
X60885031Y-85290031D01*
X60881823Y-85293787D01*
X60881818Y-85293792D01*
X60780811Y-85412056D01*
X60721361Y-85450866D01*
X60650366Y-85451372D01*
X60589189Y-85412056D01*
X60488182Y-85293792D01*
X60488177Y-85293787D01*
X60484969Y-85290031D01*
X60304416Y-85135824D01*
X60300208Y-85133245D01*
X60300202Y-85133241D01*
X60108665Y-85015867D01*
X60061034Y-84963219D01*
X60048500Y-84908434D01*
X60048500Y-78784435D01*
X60068502Y-78716314D01*
X60122158Y-78669821D01*
X60124269Y-78668956D01*
X60126196Y-78668440D01*
X60204466Y-78631942D01*
X60322690Y-78576814D01*
X60322695Y-78576811D01*
X60327677Y-78574488D01*
X60429505Y-78503187D01*
X60505270Y-78450136D01*
X60505273Y-78450134D01*
X60509781Y-78446977D01*
X60666977Y-78289781D01*
X60794488Y-78107676D01*
X60796811Y-78102694D01*
X60796814Y-78102689D01*
X60886117Y-77911178D01*
X60886118Y-77911177D01*
X60888440Y-77906196D01*
X60945978Y-77691463D01*
X60965353Y-77470000D01*
X60945978Y-77248537D01*
X60888440Y-77033804D01*
X60881901Y-77019781D01*
X60796814Y-76837311D01*
X60796811Y-76837306D01*
X60794488Y-76832324D01*
X60666977Y-76650219D01*
X60509781Y-76493023D01*
X60505273Y-76489866D01*
X60505270Y-76489864D01*
X60399758Y-76415984D01*
X60327677Y-76365512D01*
X60322695Y-76363189D01*
X60322690Y-76363186D01*
X60131178Y-76273883D01*
X60131177Y-76273882D01*
X60126196Y-76271560D01*
X60120888Y-76270138D01*
X60120886Y-76270137D01*
X60055051Y-76252497D01*
X59911463Y-76214022D01*
X59690000Y-76194647D01*
X59468537Y-76214022D01*
X59324949Y-76252497D01*
X59259114Y-76270137D01*
X59259112Y-76270138D01*
X59253804Y-76271560D01*
X59248823Y-76273882D01*
X59248822Y-76273883D01*
X59057311Y-76363186D01*
X59057306Y-76363189D01*
X59052324Y-76365512D01*
X59047817Y-76368668D01*
X59047815Y-76368669D01*
X58874730Y-76489864D01*
X58874727Y-76489866D01*
X58870219Y-76493023D01*
X58713023Y-76650219D01*
X58585512Y-76832324D01*
X58583189Y-76837306D01*
X58583186Y-76837311D01*
X58498099Y-77019781D01*
X58491560Y-77033804D01*
X58434022Y-77248537D01*
X58414647Y-77470000D01*
X58434022Y-77691463D01*
X58491560Y-77906196D01*
X58493882Y-77911177D01*
X58493883Y-77911178D01*
X58583186Y-78102689D01*
X58583189Y-78102694D01*
X58585512Y-78107676D01*
X58713023Y-78289781D01*
X58744595Y-78321353D01*
X58778621Y-78383665D01*
X58781500Y-78410448D01*
X58781500Y-84908434D01*
X58761498Y-84976555D01*
X58721335Y-85015867D01*
X58529798Y-85133241D01*
X58529792Y-85133245D01*
X58525584Y-85135824D01*
X58345031Y-85290031D01*
X58341823Y-85293787D01*
X58341818Y-85293792D01*
X58240811Y-85412056D01*
X58181361Y-85450866D01*
X58110366Y-85451372D01*
X58049189Y-85412056D01*
X57948182Y-85293792D01*
X57948177Y-85293787D01*
X57944969Y-85290031D01*
X57764416Y-85135824D01*
X57760208Y-85133245D01*
X57760202Y-85133241D01*
X57566183Y-85014346D01*
X57561963Y-85011760D01*
X57557393Y-85009867D01*
X57557389Y-85009865D01*
X57347167Y-84922789D01*
X57347165Y-84922788D01*
X57342594Y-84920895D01*
X57262391Y-84901640D01*
X57116524Y-84866620D01*
X57116518Y-84866619D01*
X57111711Y-84865465D01*
X56875000Y-84846835D01*
X56638289Y-84865465D01*
X56633482Y-84866619D01*
X56633476Y-84866620D01*
X56487609Y-84901640D01*
X56407406Y-84920895D01*
X56402835Y-84922788D01*
X56402833Y-84922789D01*
X56192611Y-85009865D01*
X56192607Y-85009867D01*
X56188037Y-85011760D01*
X56183817Y-85014346D01*
X55989798Y-85133241D01*
X55989792Y-85133245D01*
X55985584Y-85135824D01*
X55805031Y-85290031D01*
X55801823Y-85293787D01*
X55801818Y-85293792D01*
X55700811Y-85412056D01*
X55641361Y-85450866D01*
X55570366Y-85451372D01*
X55509189Y-85412056D01*
X55408182Y-85293792D01*
X55408177Y-85293787D01*
X55404969Y-85290031D01*
X55224416Y-85135824D01*
X55220208Y-85133245D01*
X55220202Y-85133241D01*
X55026183Y-85014346D01*
X55021963Y-85011760D01*
X55017393Y-85009867D01*
X55017389Y-85009865D01*
X54807167Y-84922789D01*
X54807165Y-84922788D01*
X54802594Y-84920895D01*
X54722391Y-84901640D01*
X54576524Y-84866620D01*
X54576518Y-84866619D01*
X54571711Y-84865465D01*
X54335000Y-84846835D01*
X54098289Y-84865465D01*
X54093482Y-84866619D01*
X54093476Y-84866620D01*
X53947609Y-84901640D01*
X53867406Y-84920895D01*
X53862835Y-84922788D01*
X53862833Y-84922789D01*
X53652611Y-85009865D01*
X53652607Y-85009867D01*
X53648037Y-85011760D01*
X53643817Y-85014346D01*
X53449798Y-85133241D01*
X53449792Y-85133245D01*
X53445584Y-85135824D01*
X53265031Y-85290031D01*
X53261823Y-85293787D01*
X53261818Y-85293792D01*
X53160811Y-85412056D01*
X53101361Y-85450866D01*
X53030366Y-85451372D01*
X52969189Y-85412056D01*
X52868182Y-85293792D01*
X52868177Y-85293787D01*
X52864969Y-85290031D01*
X52684416Y-85135824D01*
X52680208Y-85133245D01*
X52680202Y-85133241D01*
X52486183Y-85014346D01*
X52481963Y-85011760D01*
X52477393Y-85009867D01*
X52477389Y-85009865D01*
X52267167Y-84922789D01*
X52267165Y-84922788D01*
X52262594Y-84920895D01*
X52182391Y-84901640D01*
X52036524Y-84866620D01*
X52036518Y-84866619D01*
X52031711Y-84865465D01*
X51795000Y-84846835D01*
X51558289Y-84865465D01*
X51553482Y-84866619D01*
X51553476Y-84866620D01*
X51407609Y-84901640D01*
X51327406Y-84920895D01*
X51322835Y-84922788D01*
X51322833Y-84922789D01*
X51112611Y-85009865D01*
X51112607Y-85009867D01*
X51108037Y-85011760D01*
X51103817Y-85014346D01*
X50909798Y-85133241D01*
X50909792Y-85133245D01*
X50905584Y-85135824D01*
X50725031Y-85290031D01*
X50721823Y-85293787D01*
X50721818Y-85293792D01*
X50620811Y-85412056D01*
X50561361Y-85450866D01*
X50490366Y-85451372D01*
X50429189Y-85412056D01*
X50328182Y-85293792D01*
X50328177Y-85293787D01*
X50324969Y-85290031D01*
X50144416Y-85135824D01*
X50140208Y-85133245D01*
X50140202Y-85133241D01*
X49946183Y-85014346D01*
X49941963Y-85011760D01*
X49937393Y-85009867D01*
X49937389Y-85009865D01*
X49727167Y-84922789D01*
X49727165Y-84922788D01*
X49722594Y-84920895D01*
X49642391Y-84901640D01*
X49496524Y-84866620D01*
X49496518Y-84866619D01*
X49491711Y-84865465D01*
X49255000Y-84846835D01*
X49018289Y-84865465D01*
X49013482Y-84866619D01*
X49013476Y-84866620D01*
X48867609Y-84901640D01*
X48787406Y-84920895D01*
X48782835Y-84922788D01*
X48782833Y-84922789D01*
X48572611Y-85009865D01*
X48572607Y-85009867D01*
X48568037Y-85011760D01*
X48563817Y-85014346D01*
X48369798Y-85133241D01*
X48369792Y-85133245D01*
X48365584Y-85135824D01*
X48185031Y-85290031D01*
X48181823Y-85293787D01*
X48181818Y-85293792D01*
X48080811Y-85412056D01*
X48021361Y-85450866D01*
X47950366Y-85451372D01*
X47889189Y-85412056D01*
X47788182Y-85293792D01*
X47788177Y-85293787D01*
X47784969Y-85290031D01*
X47604416Y-85135824D01*
X47600208Y-85133245D01*
X47600202Y-85133241D01*
X47406183Y-85014346D01*
X47401963Y-85011760D01*
X47397393Y-85009867D01*
X47397389Y-85009865D01*
X47187167Y-84922789D01*
X47187165Y-84922788D01*
X47182594Y-84920895D01*
X47102391Y-84901640D01*
X46956524Y-84866620D01*
X46956518Y-84866619D01*
X46951711Y-84865465D01*
X46715000Y-84846835D01*
X46478289Y-84865465D01*
X46473482Y-84866619D01*
X46473476Y-84866620D01*
X46327609Y-84901640D01*
X46247406Y-84920895D01*
X46242835Y-84922788D01*
X46242833Y-84922789D01*
X46032611Y-85009865D01*
X46032607Y-85009867D01*
X46028037Y-85011760D01*
X46023817Y-85014346D01*
X45829798Y-85133241D01*
X45829792Y-85133245D01*
X45825584Y-85135824D01*
X45645031Y-85290031D01*
X45641823Y-85293787D01*
X45641818Y-85293792D01*
X45540811Y-85412056D01*
X45481361Y-85450866D01*
X45410366Y-85451372D01*
X45349189Y-85412056D01*
X45248182Y-85293792D01*
X45248177Y-85293787D01*
X45244969Y-85290031D01*
X45064416Y-85135824D01*
X45060208Y-85133245D01*
X45060202Y-85133241D01*
X44866183Y-85014346D01*
X44861963Y-85011760D01*
X44857393Y-85009867D01*
X44857389Y-85009865D01*
X44647167Y-84922789D01*
X44647165Y-84922788D01*
X44642594Y-84920895D01*
X44562391Y-84901640D01*
X44416524Y-84866620D01*
X44416518Y-84866619D01*
X44411711Y-84865465D01*
X44175000Y-84846835D01*
X43938289Y-84865465D01*
X43933482Y-84866619D01*
X43933476Y-84866620D01*
X43787609Y-84901640D01*
X43707406Y-84920895D01*
X43702835Y-84922788D01*
X43702833Y-84922789D01*
X43492611Y-85009865D01*
X43492607Y-85009867D01*
X43488037Y-85011760D01*
X43483817Y-85014346D01*
X43289798Y-85133241D01*
X43289792Y-85133245D01*
X43285584Y-85135824D01*
X43105031Y-85290031D01*
X43101823Y-85293787D01*
X43101818Y-85293792D01*
X43000811Y-85412056D01*
X42941361Y-85450866D01*
X42870366Y-85451372D01*
X42809189Y-85412056D01*
X42708182Y-85293792D01*
X42708177Y-85293787D01*
X42704969Y-85290031D01*
X42524416Y-85135824D01*
X42520208Y-85133245D01*
X42520202Y-85133241D01*
X42326183Y-85014346D01*
X42321963Y-85011760D01*
X42317393Y-85009867D01*
X42317389Y-85009865D01*
X42107167Y-84922789D01*
X42107165Y-84922788D01*
X42102594Y-84920895D01*
X42022391Y-84901640D01*
X41876524Y-84866620D01*
X41876518Y-84866619D01*
X41871711Y-84865465D01*
X41635000Y-84846835D01*
X41398289Y-84865465D01*
X41393482Y-84866619D01*
X41393476Y-84866620D01*
X41247609Y-84901640D01*
X41167406Y-84920895D01*
X41162835Y-84922788D01*
X41162833Y-84922789D01*
X40952611Y-85009865D01*
X40952607Y-85009867D01*
X40948037Y-85011760D01*
X40943817Y-85014346D01*
X40749798Y-85133241D01*
X40749792Y-85133245D01*
X40745584Y-85135824D01*
X40565031Y-85290031D01*
X40561823Y-85293787D01*
X40561818Y-85293792D01*
X40460811Y-85412056D01*
X40401361Y-85450866D01*
X40330366Y-85451372D01*
X40269189Y-85412056D01*
X40168182Y-85293792D01*
X40168177Y-85293787D01*
X40164969Y-85290031D01*
X39984416Y-85135824D01*
X39980208Y-85133245D01*
X39980202Y-85133241D01*
X39786183Y-85014346D01*
X39781963Y-85011760D01*
X39777393Y-85009867D01*
X39777389Y-85009865D01*
X39567167Y-84922789D01*
X39567165Y-84922788D01*
X39562594Y-84920895D01*
X39482391Y-84901640D01*
X39336524Y-84866620D01*
X39336518Y-84866619D01*
X39331711Y-84865465D01*
X39095000Y-84846835D01*
X38858289Y-84865465D01*
X38853482Y-84866619D01*
X38853476Y-84866620D01*
X38707609Y-84901640D01*
X38627406Y-84920895D01*
X38622835Y-84922788D01*
X38622833Y-84922789D01*
X38412611Y-85009865D01*
X38412607Y-85009867D01*
X38408037Y-85011760D01*
X38403817Y-85014346D01*
X38209798Y-85133241D01*
X38209792Y-85133245D01*
X38205584Y-85135824D01*
X38025031Y-85290031D01*
X38021823Y-85293787D01*
X38021818Y-85293792D01*
X37891294Y-85446616D01*
X37831844Y-85485426D01*
X37797442Y-85487640D01*
X37778333Y-85495877D01*
X36927022Y-86347188D01*
X36919408Y-86361132D01*
X36252694Y-86361132D01*
X36255924Y-86315968D01*
X36284885Y-86270905D01*
X37416080Y-85139710D01*
X37422840Y-85127330D01*
X37417113Y-85119680D01*
X37245958Y-85014795D01*
X37237163Y-85010313D01*
X37027012Y-84923266D01*
X37017627Y-84920217D01*
X36796446Y-84867115D01*
X36786699Y-84865572D01*
X36559930Y-84847725D01*
X36550070Y-84847725D01*
X36323301Y-84865572D01*
X36313554Y-84867115D01*
X36092373Y-84920217D01*
X36082988Y-84923266D01*
X35872837Y-85010313D01*
X35864042Y-85014795D01*
X35670101Y-85133643D01*
X35662117Y-85139443D01*
X35654886Y-85145619D01*
X35590096Y-85174651D01*
X35519896Y-85164047D01*
X35467312Y-85117823D01*
X35465615Y-85113295D01*
X35460230Y-85106110D01*
X35460229Y-85106108D01*
X35383642Y-85003919D01*
X35378261Y-84996739D01*
X35261705Y-84909385D01*
X35125316Y-84858255D01*
X35063134Y-84851500D01*
X32966866Y-84851500D01*
X32904684Y-84858255D01*
X32768295Y-84909385D01*
X32651739Y-84996739D01*
X32564385Y-85113295D01*
X32513255Y-85249684D01*
X32506500Y-85311866D01*
X32506500Y-87408134D01*
X27426054Y-87408134D01*
X27548087Y-87290287D01*
X27551252Y-87287231D01*
X27724188Y-87065882D01*
X27726384Y-87062078D01*
X27726389Y-87062071D01*
X27862435Y-86826431D01*
X27864636Y-86822619D01*
X27969862Y-86562176D01*
X27984096Y-86505088D01*
X28036753Y-86293893D01*
X28036754Y-86293888D01*
X28037817Y-86289624D01*
X28039785Y-86270905D01*
X28066719Y-86014636D01*
X28066719Y-86014633D01*
X28067178Y-86010267D01*
X28067025Y-86005873D01*
X28057529Y-85733939D01*
X28057528Y-85733933D01*
X28057375Y-85729542D01*
X28033608Y-85594749D01*
X28009360Y-85457236D01*
X28008598Y-85452913D01*
X27921797Y-85185765D01*
X27916377Y-85174651D01*
X27838190Y-85014346D01*
X27798660Y-84933298D01*
X27796205Y-84929659D01*
X27796202Y-84929653D01*
X27708841Y-84800136D01*
X27641585Y-84700424D01*
X27453629Y-84491678D01*
X27238450Y-84311121D01*
X27000236Y-84162269D01*
X26743625Y-84048018D01*
X26473610Y-83970593D01*
X26469260Y-83969982D01*
X26469257Y-83969981D01*
X26366310Y-83955513D01*
X26195448Y-83931500D01*
X25984854Y-83931500D01*
X25982668Y-83931653D01*
X25982664Y-83931653D01*
X25779173Y-83945882D01*
X25779168Y-83945883D01*
X25774788Y-83946189D01*
X25500030Y-84004591D01*
X25495901Y-84006094D01*
X25495897Y-84006095D01*
X25240219Y-84099154D01*
X25240215Y-84099156D01*
X25236074Y-84100663D01*
X24988058Y-84232536D01*
X24984499Y-84235122D01*
X24984497Y-84235123D01*
X24879895Y-84311121D01*
X24760808Y-84397642D01*
X24558748Y-84592769D01*
X24385812Y-84814118D01*
X24383616Y-84817922D01*
X24383611Y-84817929D01*
X24310104Y-84945248D01*
X24245364Y-85057381D01*
X24140138Y-85317824D01*
X24139073Y-85322097D01*
X24139072Y-85322099D01*
X24080121Y-85558540D01*
X24072183Y-85590376D01*
X24042822Y-85869733D01*
X21590000Y-85869733D01*
X21590000Y-76200000D01*
X38094647Y-76200000D01*
X38114022Y-76421463D01*
X38171560Y-76636196D01*
X38173882Y-76641177D01*
X38173883Y-76641178D01*
X38263186Y-76832689D01*
X38263189Y-76832694D01*
X38265512Y-76837676D01*
X38393023Y-77019781D01*
X38550219Y-77176977D01*
X38554727Y-77180134D01*
X38554730Y-77180136D01*
X38630495Y-77233187D01*
X38732323Y-77304488D01*
X38737305Y-77306811D01*
X38737310Y-77306814D01*
X38928822Y-77396117D01*
X38933804Y-77398440D01*
X38939112Y-77399862D01*
X38939114Y-77399863D01*
X39004949Y-77417503D01*
X39148537Y-77455978D01*
X39370000Y-77475353D01*
X39591463Y-77455978D01*
X39735051Y-77417503D01*
X39800886Y-77399863D01*
X39800888Y-77399862D01*
X39806196Y-77398440D01*
X39811178Y-77396117D01*
X40002690Y-77306814D01*
X40002695Y-77306811D01*
X40007677Y-77304488D01*
X40109505Y-77233187D01*
X40185270Y-77180136D01*
X40185273Y-77180134D01*
X40189781Y-77176977D01*
X40346977Y-77019781D01*
X40474488Y-76837676D01*
X40476811Y-76832694D01*
X40476814Y-76832689D01*
X40566117Y-76641178D01*
X40566118Y-76641177D01*
X40568440Y-76636196D01*
X40625978Y-76421463D01*
X40645353Y-76200000D01*
X40625978Y-75978537D01*
X40615514Y-75939484D01*
X40617204Y-75868507D01*
X40648126Y-75817778D01*
X49755500Y-66710405D01*
X49817812Y-66676379D01*
X49844595Y-66673500D01*
X54706996Y-66673500D01*
X54775117Y-66693502D01*
X54810209Y-66727229D01*
X54903023Y-66859781D01*
X55060219Y-67016977D01*
X55064727Y-67020134D01*
X55064730Y-67020136D01*
X55140495Y-67073187D01*
X55242323Y-67144488D01*
X55247305Y-67146811D01*
X55247310Y-67146814D01*
X55438822Y-67236117D01*
X55443804Y-67238440D01*
X55449112Y-67239862D01*
X55449114Y-67239863D01*
X55514949Y-67257503D01*
X55658537Y-67295978D01*
X55880000Y-67315353D01*
X56101463Y-67295978D01*
X56245051Y-67257503D01*
X56310886Y-67239863D01*
X56310888Y-67239862D01*
X56316196Y-67238440D01*
X56321178Y-67236117D01*
X56512690Y-67146814D01*
X56512695Y-67146811D01*
X56517677Y-67144488D01*
X56619505Y-67073187D01*
X56695270Y-67020136D01*
X56695273Y-67020134D01*
X56699781Y-67016977D01*
X56856977Y-66859781D01*
X56984488Y-66677676D01*
X56986811Y-66672694D01*
X56986814Y-66672689D01*
X57076117Y-66481178D01*
X57076118Y-66481177D01*
X57078440Y-66476196D01*
X57135978Y-66261463D01*
X57155353Y-66040000D01*
X57135978Y-65818537D01*
X57082079Y-65617384D01*
X57079863Y-65609114D01*
X57079862Y-65609112D01*
X57078440Y-65603804D01*
X57067636Y-65580634D01*
X56986814Y-65407311D01*
X56986811Y-65407306D01*
X56984488Y-65402324D01*
X56981331Y-65397815D01*
X56860136Y-65224730D01*
X56860134Y-65224727D01*
X56856977Y-65220219D01*
X56699781Y-65063023D01*
X56695273Y-65059866D01*
X56695270Y-65059864D01*
X56619505Y-65006813D01*
X56517677Y-64935512D01*
X56512695Y-64933189D01*
X56512690Y-64933186D01*
X56321178Y-64843883D01*
X56321177Y-64843882D01*
X56316196Y-64841560D01*
X56310888Y-64840138D01*
X56310886Y-64840137D01*
X56245051Y-64822497D01*
X56101463Y-64784022D01*
X55880000Y-64764647D01*
X55658537Y-64784022D01*
X55514949Y-64822497D01*
X55449114Y-64840137D01*
X55449112Y-64840138D01*
X55443804Y-64841560D01*
X55438823Y-64843882D01*
X55438822Y-64843883D01*
X55247311Y-64933186D01*
X55247306Y-64933189D01*
X55242324Y-64935512D01*
X55237817Y-64938668D01*
X55237815Y-64938669D01*
X55064730Y-65059864D01*
X55064727Y-65059866D01*
X55060219Y-65063023D01*
X54903023Y-65220219D01*
X54899866Y-65224727D01*
X54899864Y-65224730D01*
X54810209Y-65352771D01*
X54754752Y-65397099D01*
X54706996Y-65406500D01*
X49608767Y-65406500D01*
X49597584Y-65405973D01*
X49590091Y-65404298D01*
X49582165Y-65404547D01*
X49582164Y-65404547D01*
X49522001Y-65406438D01*
X49518043Y-65406500D01*
X49490144Y-65406500D01*
X49486154Y-65407004D01*
X49474320Y-65407936D01*
X49430111Y-65409326D01*
X49422497Y-65411538D01*
X49422492Y-65411539D01*
X49410659Y-65414977D01*
X49391296Y-65418988D01*
X49371203Y-65421526D01*
X49363836Y-65424443D01*
X49363831Y-65424444D01*
X49330092Y-65437802D01*
X49318865Y-65441646D01*
X49276407Y-65453982D01*
X49269581Y-65458019D01*
X49258972Y-65464293D01*
X49241224Y-65472988D01*
X49222383Y-65480448D01*
X49215967Y-65485110D01*
X49215966Y-65485110D01*
X49186613Y-65506436D01*
X49176693Y-65512952D01*
X49145465Y-65531420D01*
X49145462Y-65531422D01*
X49138638Y-65535458D01*
X49124317Y-65549779D01*
X49109284Y-65562619D01*
X49092893Y-65574528D01*
X49087842Y-65580634D01*
X49064702Y-65608605D01*
X49056712Y-65617384D01*
X39752221Y-74921874D01*
X39689909Y-74955900D01*
X39630514Y-74954485D01*
X39596783Y-74945447D01*
X39596777Y-74945446D01*
X39591463Y-74944022D01*
X39370000Y-74924647D01*
X39148537Y-74944022D01*
X39039219Y-74973314D01*
X38939114Y-75000137D01*
X38939112Y-75000138D01*
X38933804Y-75001560D01*
X38928823Y-75003882D01*
X38928822Y-75003883D01*
X38737311Y-75093186D01*
X38737306Y-75093189D01*
X38732324Y-75095512D01*
X38727817Y-75098668D01*
X38727815Y-75098669D01*
X38554730Y-75219864D01*
X38554727Y-75219866D01*
X38550219Y-75223023D01*
X38393023Y-75380219D01*
X38265512Y-75562324D01*
X38263189Y-75567306D01*
X38263186Y-75567311D01*
X38173883Y-75758822D01*
X38171560Y-75763804D01*
X38114022Y-75978537D01*
X38094647Y-76200000D01*
X21590000Y-76200000D01*
X21590000Y-61359733D01*
X24042822Y-61359733D01*
X24042975Y-61364121D01*
X24042975Y-61364127D01*
X24045192Y-61427594D01*
X24052625Y-61640458D01*
X24053387Y-61644781D01*
X24053388Y-61644788D01*
X24077916Y-61783893D01*
X24101402Y-61917087D01*
X24188203Y-62184235D01*
X24190131Y-62188188D01*
X24190133Y-62188193D01*
X24217363Y-62244022D01*
X24311340Y-62436702D01*
X24313795Y-62440341D01*
X24313798Y-62440347D01*
X24369564Y-62523023D01*
X24468415Y-62669576D01*
X24656371Y-62878322D01*
X24871550Y-63058879D01*
X25109764Y-63207731D01*
X25366375Y-63321982D01*
X25636390Y-63399407D01*
X25640740Y-63400018D01*
X25640743Y-63400019D01*
X25743690Y-63414487D01*
X25914552Y-63438500D01*
X26125146Y-63438500D01*
X26127332Y-63438347D01*
X26127336Y-63438347D01*
X26330827Y-63424118D01*
X26330832Y-63424117D01*
X26335212Y-63423811D01*
X26609970Y-63365409D01*
X26614099Y-63363906D01*
X26614103Y-63363905D01*
X26869781Y-63270846D01*
X26869785Y-63270844D01*
X26873926Y-63269337D01*
X27121942Y-63137464D01*
X27125503Y-63134877D01*
X27345629Y-62974947D01*
X27345632Y-62974944D01*
X27349192Y-62972358D01*
X27551252Y-62777231D01*
X27724188Y-62555882D01*
X27726384Y-62552078D01*
X27726389Y-62552071D01*
X27862435Y-62316431D01*
X27864636Y-62312619D01*
X27969862Y-62052176D01*
X27974599Y-62033177D01*
X28036753Y-61783893D01*
X28036754Y-61783888D01*
X28037817Y-61779624D01*
X28051317Y-61651183D01*
X28066719Y-61504636D01*
X28066719Y-61504633D01*
X28067178Y-61500267D01*
X28064800Y-61432167D01*
X28057529Y-61223939D01*
X28057528Y-61223933D01*
X28057375Y-61219542D01*
X28053350Y-61196711D01*
X28012480Y-60964930D01*
X28011611Y-60960000D01*
X32501835Y-60960000D01*
X32520465Y-61196711D01*
X32521619Y-61201518D01*
X32521620Y-61201524D01*
X32551122Y-61324408D01*
X32575895Y-61427594D01*
X32577788Y-61432165D01*
X32577789Y-61432167D01*
X32664066Y-61640458D01*
X32666760Y-61646963D01*
X32669346Y-61651183D01*
X32788241Y-61845202D01*
X32788245Y-61845208D01*
X32790824Y-61849416D01*
X32945031Y-62029969D01*
X33125584Y-62184176D01*
X33129792Y-62186755D01*
X33129798Y-62186759D01*
X33241606Y-62255275D01*
X33328037Y-62308240D01*
X33332607Y-62310133D01*
X33332611Y-62310135D01*
X33542833Y-62397211D01*
X33547406Y-62399105D01*
X33627609Y-62418360D01*
X33773476Y-62453380D01*
X33773482Y-62453381D01*
X33778289Y-62454535D01*
X34015000Y-62473165D01*
X34251711Y-62454535D01*
X34256518Y-62453381D01*
X34256524Y-62453380D01*
X34402391Y-62418360D01*
X34482594Y-62399105D01*
X34487167Y-62397211D01*
X34697389Y-62310135D01*
X34697393Y-62310133D01*
X34701963Y-62308240D01*
X34788394Y-62255275D01*
X34890556Y-62192670D01*
X35687160Y-62192670D01*
X35692887Y-62200320D01*
X35864042Y-62305205D01*
X35872837Y-62309687D01*
X36082988Y-62396734D01*
X36092373Y-62399783D01*
X36313554Y-62452885D01*
X36323301Y-62454428D01*
X36550070Y-62472275D01*
X36559930Y-62472275D01*
X36786699Y-62454428D01*
X36796446Y-62452885D01*
X37017627Y-62399783D01*
X37027012Y-62396734D01*
X37237163Y-62309687D01*
X37245958Y-62305205D01*
X37413445Y-62202568D01*
X37422907Y-62192110D01*
X37419124Y-62183334D01*
X36567812Y-61332022D01*
X36553868Y-61324408D01*
X36552035Y-61324539D01*
X36545420Y-61328790D01*
X35693920Y-62180290D01*
X35687160Y-62192670D01*
X34890556Y-62192670D01*
X34900202Y-62186759D01*
X34900208Y-62186755D01*
X34904416Y-62184176D01*
X35084969Y-62029969D01*
X35088177Y-62026213D01*
X35088182Y-62026208D01*
X35218706Y-61873384D01*
X35278156Y-61834574D01*
X35312558Y-61832360D01*
X35331667Y-61824123D01*
X36182978Y-60972812D01*
X36190592Y-60958868D01*
X36190461Y-60957035D01*
X36186210Y-60950420D01*
X35334710Y-60098920D01*
X35317898Y-60089740D01*
X35254650Y-60075980D01*
X35219226Y-60047225D01*
X35188690Y-60011473D01*
X35159658Y-59946684D01*
X35158500Y-59929641D01*
X35158500Y-59727890D01*
X35687093Y-59727890D01*
X35690876Y-59736666D01*
X36542188Y-60587978D01*
X36556132Y-60595592D01*
X36557965Y-60595461D01*
X36564580Y-60591210D01*
X37416080Y-59739710D01*
X37422840Y-59727330D01*
X37417113Y-59719680D01*
X37245958Y-59614795D01*
X37237163Y-59610313D01*
X37027012Y-59523266D01*
X37017627Y-59520217D01*
X36796446Y-59467115D01*
X36786699Y-59465572D01*
X36559930Y-59447725D01*
X36550070Y-59447725D01*
X36323301Y-59465572D01*
X36313554Y-59467115D01*
X36092373Y-59520217D01*
X36082988Y-59523266D01*
X35872837Y-59610313D01*
X35864042Y-59614795D01*
X35696555Y-59717432D01*
X35687093Y-59727890D01*
X35158500Y-59727890D01*
X35158500Y-51600843D01*
X35178502Y-51532722D01*
X35195405Y-51511748D01*
X35777558Y-50929595D01*
X41822001Y-50929595D01*
X41822338Y-50936114D01*
X41832257Y-51031706D01*
X41835149Y-51045100D01*
X41886588Y-51199284D01*
X41892761Y-51212462D01*
X41978063Y-51350307D01*
X41987099Y-51361708D01*
X42101829Y-51476239D01*
X42113240Y-51485251D01*
X42251243Y-51570316D01*
X42264424Y-51576463D01*
X42418710Y-51627638D01*
X42432086Y-51630505D01*
X42526438Y-51640172D01*
X42532854Y-51640500D01*
X42907885Y-51640500D01*
X42923124Y-51636025D01*
X42924329Y-51634635D01*
X42926000Y-51626952D01*
X42926000Y-50554615D01*
X42921525Y-50539376D01*
X42920135Y-50538171D01*
X42912452Y-50536500D01*
X41840116Y-50536500D01*
X41824877Y-50540975D01*
X41823672Y-50542365D01*
X41822001Y-50550048D01*
X41822001Y-50929595D01*
X35777558Y-50929595D01*
X37784248Y-48922905D01*
X37846560Y-48888879D01*
X37873343Y-48886000D01*
X42000220Y-48886000D01*
X42068341Y-48906002D01*
X42114834Y-48959658D01*
X42124938Y-49029932D01*
X42095444Y-49094512D01*
X42089393Y-49101018D01*
X41986261Y-49204329D01*
X41977249Y-49215740D01*
X41892184Y-49353743D01*
X41886037Y-49366924D01*
X41834862Y-49521210D01*
X41831995Y-49534586D01*
X41822328Y-49628938D01*
X41822000Y-49635355D01*
X41822000Y-50010385D01*
X41826475Y-50025624D01*
X41827865Y-50026829D01*
X41835548Y-50028500D01*
X43308000Y-50028500D01*
X43376121Y-50048502D01*
X43422614Y-50102158D01*
X43434000Y-50154500D01*
X43434000Y-51622384D01*
X43438475Y-51637623D01*
X43439865Y-51638828D01*
X43447548Y-51640499D01*
X43827095Y-51640499D01*
X43833614Y-51640162D01*
X43929206Y-51630243D01*
X43942600Y-51627351D01*
X44096784Y-51575912D01*
X44109962Y-51569739D01*
X44247807Y-51484437D01*
X44259208Y-51475401D01*
X44373739Y-51360671D01*
X44382751Y-51349260D01*
X44467818Y-51211255D01*
X44476400Y-51192850D01*
X44523316Y-51139565D01*
X44591593Y-51120103D01*
X44659554Y-51140644D01*
X44685832Y-51163601D01*
X44711168Y-51192850D01*
X44762866Y-51252532D01*
X44762869Y-51252535D01*
X44766250Y-51256438D01*
X44938126Y-51399132D01*
X45131000Y-51511838D01*
X45135825Y-51513680D01*
X45135826Y-51513681D01*
X45208612Y-51541475D01*
X45339692Y-51591530D01*
X45344760Y-51592561D01*
X45344763Y-51592562D01*
X45452012Y-51614382D01*
X45558597Y-51636067D01*
X45563772Y-51636257D01*
X45563774Y-51636257D01*
X45776673Y-51644064D01*
X45776677Y-51644064D01*
X45781837Y-51644253D01*
X45786957Y-51643597D01*
X45786959Y-51643597D01*
X45998288Y-51616525D01*
X45998289Y-51616525D01*
X46003416Y-51615868D01*
X46008369Y-51614382D01*
X46212429Y-51553161D01*
X46212434Y-51553159D01*
X46217384Y-51551674D01*
X46417994Y-51453396D01*
X46599860Y-51323673D01*
X46758096Y-51165989D01*
X46777084Y-51139565D01*
X46888453Y-50984577D01*
X46889776Y-50985528D01*
X46936645Y-50942357D01*
X47006580Y-50930125D01*
X47072026Y-50957644D01*
X47099875Y-50989494D01*
X47115442Y-51014897D01*
X47159987Y-51087588D01*
X47306250Y-51256438D01*
X47478126Y-51399132D01*
X47671000Y-51511838D01*
X47675825Y-51513680D01*
X47675826Y-51513681D01*
X47748612Y-51541475D01*
X47879692Y-51591530D01*
X47884760Y-51592561D01*
X47884763Y-51592562D01*
X47992012Y-51614382D01*
X48098597Y-51636067D01*
X48103772Y-51636257D01*
X48103774Y-51636257D01*
X48316673Y-51644064D01*
X48316677Y-51644064D01*
X48321837Y-51644253D01*
X48326957Y-51643597D01*
X48326959Y-51643597D01*
X48538288Y-51616525D01*
X48538289Y-51616525D01*
X48543416Y-51615868D01*
X48548367Y-51614383D01*
X48548370Y-51614382D01*
X48589829Y-51601944D01*
X48660825Y-51601528D01*
X48715131Y-51633535D01*
X51936685Y-54855089D01*
X51970711Y-54917401D01*
X51965646Y-54988216D01*
X51923099Y-55045052D01*
X51878087Y-55064074D01*
X51878599Y-55065837D01*
X51859141Y-55071490D01*
X51839782Y-55075499D01*
X51838472Y-55075665D01*
X51819692Y-55078037D01*
X51812326Y-55080953D01*
X51812320Y-55080955D01*
X51778587Y-55094311D01*
X51767357Y-55098156D01*
X51732506Y-55108281D01*
X51724896Y-55110492D01*
X51718073Y-55114527D01*
X51707455Y-55120806D01*
X51689702Y-55129503D01*
X51682057Y-55132530D01*
X51670872Y-55136959D01*
X51664457Y-55141620D01*
X51635101Y-55162948D01*
X51625184Y-55169462D01*
X51587127Y-55191969D01*
X51572806Y-55206290D01*
X51557773Y-55219130D01*
X51541382Y-55231039D01*
X51536331Y-55237145D01*
X51513191Y-55265116D01*
X51505201Y-55273895D01*
X47293459Y-59485636D01*
X47231147Y-59519662D01*
X47174951Y-59519060D01*
X47122104Y-59506373D01*
X46956524Y-59466620D01*
X46956518Y-59466619D01*
X46951711Y-59465465D01*
X46715000Y-59446835D01*
X46478289Y-59465465D01*
X46473482Y-59466619D01*
X46473476Y-59466620D01*
X46327609Y-59501640D01*
X46247406Y-59520895D01*
X46242835Y-59522788D01*
X46242833Y-59522789D01*
X46032611Y-59609865D01*
X46032607Y-59609867D01*
X46028037Y-59611760D01*
X46023817Y-59614346D01*
X45829798Y-59733241D01*
X45829792Y-59733245D01*
X45825584Y-59735824D01*
X45645031Y-59890031D01*
X45641823Y-59893787D01*
X45641818Y-59893792D01*
X45540811Y-60012056D01*
X45481361Y-60050866D01*
X45410366Y-60051372D01*
X45349189Y-60012056D01*
X45248182Y-59893792D01*
X45248177Y-59893787D01*
X45244969Y-59890031D01*
X45064416Y-59735824D01*
X45060208Y-59733245D01*
X45060202Y-59733241D01*
X44866183Y-59614346D01*
X44861963Y-59611760D01*
X44857393Y-59609867D01*
X44857389Y-59609865D01*
X44647167Y-59522789D01*
X44647165Y-59522788D01*
X44642594Y-59520895D01*
X44562391Y-59501640D01*
X44416524Y-59466620D01*
X44416518Y-59466619D01*
X44411711Y-59465465D01*
X44175000Y-59446835D01*
X43938289Y-59465465D01*
X43933482Y-59466619D01*
X43933476Y-59466620D01*
X43787609Y-59501640D01*
X43707406Y-59520895D01*
X43702835Y-59522788D01*
X43702833Y-59522789D01*
X43492611Y-59609865D01*
X43492607Y-59609867D01*
X43488037Y-59611760D01*
X43483817Y-59614346D01*
X43289798Y-59733241D01*
X43289792Y-59733245D01*
X43285584Y-59735824D01*
X43105031Y-59890031D01*
X43101823Y-59893787D01*
X43101818Y-59893792D01*
X43000811Y-60012056D01*
X42941361Y-60050866D01*
X42870366Y-60051372D01*
X42809189Y-60012056D01*
X42708182Y-59893792D01*
X42708177Y-59893787D01*
X42704969Y-59890031D01*
X42524416Y-59735824D01*
X42520208Y-59733245D01*
X42520202Y-59733241D01*
X42326183Y-59614346D01*
X42321963Y-59611760D01*
X42317393Y-59609867D01*
X42317389Y-59609865D01*
X42107167Y-59522789D01*
X42107165Y-59522788D01*
X42102594Y-59520895D01*
X42022391Y-59501640D01*
X41876524Y-59466620D01*
X41876518Y-59466619D01*
X41871711Y-59465465D01*
X41635000Y-59446835D01*
X41398289Y-59465465D01*
X41393482Y-59466619D01*
X41393476Y-59466620D01*
X41247609Y-59501640D01*
X41167406Y-59520895D01*
X41162835Y-59522788D01*
X41162833Y-59522789D01*
X40952611Y-59609865D01*
X40952607Y-59609867D01*
X40948037Y-59611760D01*
X40943817Y-59614346D01*
X40749798Y-59733241D01*
X40749792Y-59733245D01*
X40745584Y-59735824D01*
X40565031Y-59890031D01*
X40561823Y-59893787D01*
X40561818Y-59893792D01*
X40460811Y-60012056D01*
X40401361Y-60050866D01*
X40330366Y-60051372D01*
X40269189Y-60012056D01*
X40168182Y-59893792D01*
X40168177Y-59893787D01*
X40164969Y-59890031D01*
X39984416Y-59735824D01*
X39980208Y-59733245D01*
X39980202Y-59733241D01*
X39786183Y-59614346D01*
X39781963Y-59611760D01*
X39777393Y-59609867D01*
X39777389Y-59609865D01*
X39567167Y-59522789D01*
X39567165Y-59522788D01*
X39562594Y-59520895D01*
X39482391Y-59501640D01*
X39336524Y-59466620D01*
X39336518Y-59466619D01*
X39331711Y-59465465D01*
X39095000Y-59446835D01*
X38858289Y-59465465D01*
X38853482Y-59466619D01*
X38853476Y-59466620D01*
X38707609Y-59501640D01*
X38627406Y-59520895D01*
X38622835Y-59522788D01*
X38622833Y-59522789D01*
X38412611Y-59609865D01*
X38412607Y-59609867D01*
X38408037Y-59611760D01*
X38403817Y-59614346D01*
X38209798Y-59733241D01*
X38209792Y-59733245D01*
X38205584Y-59735824D01*
X38025031Y-59890031D01*
X38021823Y-59893787D01*
X38021818Y-59893792D01*
X37891294Y-60046616D01*
X37831844Y-60085426D01*
X37797442Y-60087640D01*
X37778333Y-60095877D01*
X36927022Y-60947188D01*
X36919408Y-60961132D01*
X36919539Y-60962965D01*
X36923790Y-60969580D01*
X37775290Y-61821080D01*
X37792102Y-61830260D01*
X37855350Y-61844020D01*
X37890775Y-61872776D01*
X37932189Y-61921265D01*
X38025031Y-62029969D01*
X38205584Y-62184176D01*
X38209792Y-62186755D01*
X38209798Y-62186759D01*
X38321606Y-62255275D01*
X38408037Y-62308240D01*
X38412607Y-62310133D01*
X38412611Y-62310135D01*
X38622833Y-62397211D01*
X38627406Y-62399105D01*
X38707609Y-62418360D01*
X38853476Y-62453380D01*
X38853482Y-62453381D01*
X38858289Y-62454535D01*
X39095000Y-62473165D01*
X39331711Y-62454535D01*
X39336518Y-62453381D01*
X39336524Y-62453380D01*
X39482391Y-62418360D01*
X39562594Y-62399105D01*
X39567167Y-62397211D01*
X39777389Y-62310135D01*
X39777393Y-62310133D01*
X39781963Y-62308240D01*
X39868394Y-62255275D01*
X39980202Y-62186759D01*
X39980208Y-62186755D01*
X39984416Y-62184176D01*
X40164969Y-62029969D01*
X40168177Y-62026213D01*
X40168182Y-62026208D01*
X40269189Y-61907944D01*
X40328639Y-61869134D01*
X40399634Y-61868628D01*
X40460811Y-61907944D01*
X40561818Y-62026208D01*
X40561823Y-62026213D01*
X40565031Y-62029969D01*
X40745584Y-62184176D01*
X40749792Y-62186755D01*
X40749798Y-62186759D01*
X40861606Y-62255275D01*
X40948037Y-62308240D01*
X40952607Y-62310133D01*
X40952611Y-62310135D01*
X41162833Y-62397211D01*
X41167406Y-62399105D01*
X41247609Y-62418360D01*
X41393476Y-62453380D01*
X41393482Y-62453381D01*
X41398289Y-62454535D01*
X41635000Y-62473165D01*
X41871711Y-62454535D01*
X41876518Y-62453381D01*
X41876524Y-62453380D01*
X42022391Y-62418360D01*
X42102594Y-62399105D01*
X42107167Y-62397211D01*
X42317389Y-62310135D01*
X42317393Y-62310133D01*
X42321963Y-62308240D01*
X42408394Y-62255275D01*
X42520202Y-62186759D01*
X42520208Y-62186755D01*
X42524416Y-62184176D01*
X42704969Y-62029969D01*
X42708177Y-62026213D01*
X42708182Y-62026208D01*
X42809189Y-61907944D01*
X42868639Y-61869134D01*
X42939634Y-61868628D01*
X43000811Y-61907944D01*
X43101818Y-62026208D01*
X43101823Y-62026213D01*
X43105031Y-62029969D01*
X43285584Y-62184176D01*
X43289792Y-62186755D01*
X43289798Y-62186759D01*
X43401606Y-62255275D01*
X43488037Y-62308240D01*
X43492607Y-62310133D01*
X43492611Y-62310135D01*
X43702833Y-62397211D01*
X43707406Y-62399105D01*
X43787609Y-62418360D01*
X43933476Y-62453380D01*
X43933482Y-62453381D01*
X43938289Y-62454535D01*
X44175000Y-62473165D01*
X44411711Y-62454535D01*
X44416518Y-62453381D01*
X44416524Y-62453380D01*
X44562391Y-62418360D01*
X44642594Y-62399105D01*
X44647167Y-62397211D01*
X44857389Y-62310135D01*
X44857393Y-62310133D01*
X44861963Y-62308240D01*
X44948394Y-62255275D01*
X45060202Y-62186759D01*
X45060208Y-62186755D01*
X45064416Y-62184176D01*
X45244969Y-62029969D01*
X45248177Y-62026213D01*
X45248182Y-62026208D01*
X45349189Y-61907944D01*
X45408639Y-61869134D01*
X45479634Y-61868628D01*
X45540811Y-61907944D01*
X45641818Y-62026208D01*
X45641823Y-62026213D01*
X45645031Y-62029969D01*
X45825584Y-62184176D01*
X45829792Y-62186755D01*
X45829798Y-62186759D01*
X45941606Y-62255275D01*
X46028037Y-62308240D01*
X46032607Y-62310133D01*
X46032611Y-62310135D01*
X46242833Y-62397211D01*
X46247406Y-62399105D01*
X46327609Y-62418360D01*
X46473476Y-62453380D01*
X46473482Y-62453381D01*
X46478289Y-62454535D01*
X46715000Y-62473165D01*
X46951711Y-62454535D01*
X46956518Y-62453381D01*
X46956524Y-62453380D01*
X47102391Y-62418360D01*
X47182594Y-62399105D01*
X47187167Y-62397211D01*
X47397389Y-62310135D01*
X47397393Y-62310133D01*
X47401963Y-62308240D01*
X47488394Y-62255275D01*
X47600202Y-62186759D01*
X47600208Y-62186755D01*
X47604416Y-62184176D01*
X47784969Y-62029969D01*
X47788177Y-62026213D01*
X47788182Y-62026208D01*
X47889189Y-61907944D01*
X47948639Y-61869134D01*
X48019634Y-61868628D01*
X48080811Y-61907944D01*
X48181818Y-62026208D01*
X48181823Y-62026213D01*
X48185031Y-62029969D01*
X48365584Y-62184176D01*
X48369792Y-62186755D01*
X48369798Y-62186759D01*
X48481606Y-62255275D01*
X48568037Y-62308240D01*
X48572607Y-62310133D01*
X48572611Y-62310135D01*
X48782833Y-62397211D01*
X48787406Y-62399105D01*
X48867609Y-62418360D01*
X49013476Y-62453380D01*
X49013482Y-62453381D01*
X49018289Y-62454535D01*
X49255000Y-62473165D01*
X49491711Y-62454535D01*
X49496518Y-62453381D01*
X49496524Y-62453380D01*
X49642391Y-62418360D01*
X49722594Y-62399105D01*
X49727167Y-62397211D01*
X49937389Y-62310135D01*
X49937393Y-62310133D01*
X49941963Y-62308240D01*
X50028394Y-62255275D01*
X50140202Y-62186759D01*
X50140208Y-62186755D01*
X50144416Y-62184176D01*
X50324969Y-62029969D01*
X50328177Y-62026213D01*
X50328182Y-62026208D01*
X50429189Y-61907944D01*
X50488639Y-61869134D01*
X50559634Y-61868628D01*
X50620811Y-61907944D01*
X50721818Y-62026208D01*
X50721823Y-62026213D01*
X50725031Y-62029969D01*
X50905584Y-62184176D01*
X50909792Y-62186755D01*
X50909798Y-62186759D01*
X51021606Y-62255275D01*
X51108037Y-62308240D01*
X51112607Y-62310133D01*
X51112611Y-62310135D01*
X51322833Y-62397211D01*
X51327406Y-62399105D01*
X51407609Y-62418360D01*
X51553476Y-62453380D01*
X51553482Y-62453381D01*
X51558289Y-62454535D01*
X51795000Y-62473165D01*
X52031711Y-62454535D01*
X52036518Y-62453381D01*
X52036524Y-62453380D01*
X52182391Y-62418360D01*
X52262594Y-62399105D01*
X52267167Y-62397211D01*
X52477389Y-62310135D01*
X52477393Y-62310133D01*
X52481963Y-62308240D01*
X52568394Y-62255275D01*
X52680202Y-62186759D01*
X52680208Y-62186755D01*
X52684416Y-62184176D01*
X52864969Y-62029969D01*
X52868177Y-62026213D01*
X52868182Y-62026208D01*
X52969189Y-61907944D01*
X53028639Y-61869134D01*
X53099634Y-61868628D01*
X53160811Y-61907944D01*
X53261818Y-62026208D01*
X53261823Y-62026213D01*
X53265031Y-62029969D01*
X53445584Y-62184176D01*
X53449792Y-62186755D01*
X53449798Y-62186759D01*
X53561606Y-62255275D01*
X53648037Y-62308240D01*
X53652607Y-62310133D01*
X53652611Y-62310135D01*
X53862833Y-62397211D01*
X53867406Y-62399105D01*
X53947609Y-62418360D01*
X54093476Y-62453380D01*
X54093482Y-62453381D01*
X54098289Y-62454535D01*
X54335000Y-62473165D01*
X54571711Y-62454535D01*
X54576518Y-62453381D01*
X54576524Y-62453380D01*
X54722391Y-62418360D01*
X54802594Y-62399105D01*
X54807167Y-62397211D01*
X55017389Y-62310135D01*
X55017393Y-62310133D01*
X55021963Y-62308240D01*
X55108394Y-62255275D01*
X55220202Y-62186759D01*
X55220208Y-62186755D01*
X55224416Y-62184176D01*
X55404969Y-62029969D01*
X55408177Y-62026213D01*
X55408182Y-62026208D01*
X55509189Y-61907944D01*
X55568639Y-61869134D01*
X55639634Y-61868628D01*
X55700811Y-61907944D01*
X55801818Y-62026208D01*
X55801823Y-62026213D01*
X55805031Y-62029969D01*
X55985584Y-62184176D01*
X55989792Y-62186755D01*
X55989798Y-62186759D01*
X56101606Y-62255275D01*
X56188037Y-62308240D01*
X56192607Y-62310133D01*
X56192611Y-62310135D01*
X56402833Y-62397211D01*
X56407406Y-62399105D01*
X56487609Y-62418360D01*
X56633476Y-62453380D01*
X56633482Y-62453381D01*
X56638289Y-62454535D01*
X56875000Y-62473165D01*
X57111711Y-62454535D01*
X57116518Y-62453381D01*
X57116524Y-62453380D01*
X57262391Y-62418360D01*
X57342594Y-62399105D01*
X57348319Y-62396734D01*
X57408703Y-62371722D01*
X57479293Y-62364133D01*
X57542780Y-62395913D01*
X57579007Y-62456971D01*
X57576473Y-62527922D01*
X57546016Y-62577226D01*
X57443023Y-62680219D01*
X57439869Y-62684724D01*
X57439864Y-62684730D01*
X57318669Y-62857815D01*
X57315512Y-62862324D01*
X57313189Y-62867306D01*
X57313186Y-62867311D01*
X57306736Y-62881144D01*
X57221560Y-63063804D01*
X57164022Y-63278537D01*
X57144647Y-63500000D01*
X57164022Y-63721463D01*
X57221560Y-63936196D01*
X57223882Y-63941177D01*
X57223883Y-63941178D01*
X57313186Y-64132689D01*
X57313189Y-64132694D01*
X57315512Y-64137676D01*
X57318668Y-64142183D01*
X57318669Y-64142185D01*
X57319171Y-64142901D01*
X57443023Y-64319781D01*
X57600219Y-64476977D01*
X57604727Y-64480134D01*
X57604730Y-64480136D01*
X57680495Y-64533187D01*
X57782323Y-64604488D01*
X57787305Y-64606811D01*
X57787310Y-64606814D01*
X57978822Y-64696117D01*
X57983804Y-64698440D01*
X57989112Y-64699862D01*
X57989114Y-64699863D01*
X58054949Y-64717503D01*
X58198537Y-64755978D01*
X58420000Y-64775353D01*
X58641463Y-64755978D01*
X58785051Y-64717503D01*
X58850886Y-64699863D01*
X58850888Y-64699862D01*
X58856196Y-64698440D01*
X58861178Y-64696117D01*
X59052690Y-64606814D01*
X59052695Y-64606811D01*
X59057677Y-64604488D01*
X59159505Y-64533187D01*
X59235270Y-64480136D01*
X59235273Y-64480134D01*
X59239781Y-64476977D01*
X59396977Y-64319781D01*
X59489791Y-64187229D01*
X59545248Y-64142901D01*
X59593004Y-64133500D01*
X62326996Y-64133500D01*
X62395117Y-64153502D01*
X62430209Y-64187229D01*
X62523023Y-64319781D01*
X62680219Y-64476977D01*
X62684727Y-64480134D01*
X62684730Y-64480136D01*
X62760495Y-64533187D01*
X62862323Y-64604488D01*
X62867305Y-64606811D01*
X62867310Y-64606814D01*
X63058822Y-64696117D01*
X63063804Y-64698440D01*
X63069112Y-64699862D01*
X63069114Y-64699863D01*
X63134949Y-64717503D01*
X63278537Y-64755978D01*
X63500000Y-64775353D01*
X63721463Y-64755978D01*
X63865051Y-64717503D01*
X63930886Y-64699863D01*
X63930888Y-64699862D01*
X63936196Y-64698440D01*
X63941178Y-64696117D01*
X64132690Y-64606814D01*
X64132695Y-64606811D01*
X64137677Y-64604488D01*
X64239505Y-64533187D01*
X64315270Y-64480136D01*
X64315273Y-64480134D01*
X64319781Y-64476977D01*
X64476977Y-64319781D01*
X64600830Y-64142901D01*
X64601331Y-64142185D01*
X64601332Y-64142183D01*
X64604488Y-64137676D01*
X64606811Y-64132694D01*
X64606814Y-64132689D01*
X64696117Y-63941178D01*
X64696118Y-63941177D01*
X64698440Y-63936196D01*
X64755978Y-63721463D01*
X64775353Y-63500000D01*
X64755978Y-63278537D01*
X64698440Y-63063804D01*
X64613264Y-62881144D01*
X64606814Y-62867311D01*
X64606811Y-62867306D01*
X64604488Y-62862324D01*
X64600830Y-62857099D01*
X64542478Y-62773764D01*
X64476977Y-62680219D01*
X64473086Y-62676328D01*
X64471787Y-62674780D01*
X64443320Y-62609740D01*
X64454536Y-62539635D01*
X64501873Y-62486722D01*
X64558420Y-62468174D01*
X64649395Y-62461014D01*
X64731711Y-62454535D01*
X64736518Y-62453381D01*
X64736524Y-62453380D01*
X64882391Y-62418360D01*
X64962594Y-62399105D01*
X64967167Y-62397211D01*
X65177389Y-62310135D01*
X65177393Y-62310133D01*
X65181963Y-62308240D01*
X65268394Y-62255275D01*
X65380202Y-62186759D01*
X65380208Y-62186755D01*
X65384416Y-62184176D01*
X65564969Y-62029969D01*
X65568177Y-62026213D01*
X65568182Y-62026208D01*
X65669189Y-61907944D01*
X65728639Y-61869134D01*
X65799634Y-61868628D01*
X65860811Y-61907944D01*
X65961818Y-62026208D01*
X65961823Y-62026213D01*
X65965031Y-62029969D01*
X66145584Y-62184176D01*
X66149792Y-62186755D01*
X66149798Y-62186759D01*
X66261606Y-62255275D01*
X66348037Y-62308240D01*
X66352607Y-62310133D01*
X66352611Y-62310135D01*
X66562833Y-62397211D01*
X66567406Y-62399105D01*
X66647609Y-62418360D01*
X66793476Y-62453380D01*
X66793482Y-62453381D01*
X66798289Y-62454535D01*
X67035000Y-62473165D01*
X67271711Y-62454535D01*
X67276518Y-62453381D01*
X67276524Y-62453380D01*
X67422391Y-62418360D01*
X67502594Y-62399105D01*
X67507167Y-62397211D01*
X67717389Y-62310135D01*
X67717393Y-62310133D01*
X67721963Y-62308240D01*
X67808394Y-62255275D01*
X67920202Y-62186759D01*
X67920208Y-62186755D01*
X67924416Y-62184176D01*
X68104969Y-62029969D01*
X68108177Y-62026213D01*
X68108182Y-62026208D01*
X68209189Y-61907944D01*
X68268639Y-61869134D01*
X68339634Y-61868628D01*
X68400811Y-61907944D01*
X68501818Y-62026208D01*
X68501823Y-62026213D01*
X68505031Y-62029969D01*
X68685584Y-62184176D01*
X68689792Y-62186755D01*
X68689798Y-62186759D01*
X68801606Y-62255275D01*
X68888037Y-62308240D01*
X68892607Y-62310133D01*
X68892611Y-62310135D01*
X69102833Y-62397211D01*
X69107406Y-62399105D01*
X69187609Y-62418360D01*
X69333476Y-62453380D01*
X69333482Y-62453381D01*
X69338289Y-62454535D01*
X69575000Y-62473165D01*
X69811711Y-62454535D01*
X69816518Y-62453381D01*
X69816524Y-62453380D01*
X69962391Y-62418360D01*
X70042594Y-62399105D01*
X70047167Y-62397211D01*
X70257389Y-62310135D01*
X70257393Y-62310133D01*
X70261963Y-62308240D01*
X70348394Y-62255275D01*
X70460202Y-62186759D01*
X70460208Y-62186755D01*
X70464416Y-62184176D01*
X70644969Y-62029969D01*
X70799176Y-61849416D01*
X70802483Y-61844020D01*
X70812010Y-61828474D01*
X70864658Y-61780843D01*
X70934700Y-61769237D01*
X70999897Y-61797341D01*
X71039551Y-61856232D01*
X71043528Y-61872431D01*
X71050639Y-61912762D01*
X71050640Y-61912767D01*
X71051402Y-61917087D01*
X71138203Y-62184235D01*
X71140131Y-62188188D01*
X71140133Y-62188193D01*
X71167363Y-62244022D01*
X71261340Y-62436702D01*
X71263795Y-62440341D01*
X71263798Y-62440347D01*
X71319564Y-62523023D01*
X71418415Y-62669576D01*
X71606371Y-62878322D01*
X71821550Y-63058879D01*
X72059764Y-63207731D01*
X72316375Y-63321982D01*
X72586390Y-63399407D01*
X72590740Y-63400018D01*
X72590743Y-63400019D01*
X72693690Y-63414487D01*
X72864552Y-63438500D01*
X73075146Y-63438500D01*
X73077332Y-63438347D01*
X73077336Y-63438347D01*
X73280827Y-63424118D01*
X73280832Y-63424117D01*
X73285212Y-63423811D01*
X73559970Y-63365409D01*
X73564099Y-63363906D01*
X73564103Y-63363905D01*
X73819781Y-63270846D01*
X73819785Y-63270844D01*
X73823926Y-63269337D01*
X74071942Y-63137464D01*
X74075503Y-63134877D01*
X74295629Y-62974947D01*
X74295632Y-62974944D01*
X74299192Y-62972358D01*
X74501252Y-62777231D01*
X74674188Y-62555882D01*
X74676384Y-62552078D01*
X74676389Y-62552071D01*
X74812435Y-62316431D01*
X74814636Y-62312619D01*
X74919862Y-62052176D01*
X74924599Y-62033177D01*
X74986753Y-61783893D01*
X74986754Y-61783888D01*
X74987817Y-61779624D01*
X75001317Y-61651183D01*
X75016719Y-61504636D01*
X75016719Y-61504633D01*
X75017178Y-61500267D01*
X75014800Y-61432167D01*
X75007529Y-61223939D01*
X75007528Y-61223933D01*
X75007375Y-61219542D01*
X75003350Y-61196711D01*
X74962480Y-60964930D01*
X74958598Y-60942913D01*
X74871797Y-60675765D01*
X74748660Y-60423298D01*
X74746205Y-60419659D01*
X74746202Y-60419653D01*
X74647308Y-60273037D01*
X74591585Y-60190424D01*
X74403629Y-59981678D01*
X74188450Y-59801121D01*
X73950236Y-59652269D01*
X73737490Y-59557548D01*
X73697639Y-59539805D01*
X73697637Y-59539804D01*
X73693625Y-59538018D01*
X73423610Y-59460593D01*
X73419260Y-59459982D01*
X73419257Y-59459981D01*
X73316310Y-59445513D01*
X73145448Y-59421500D01*
X72934854Y-59421500D01*
X72932668Y-59421653D01*
X72932664Y-59421653D01*
X72729173Y-59435882D01*
X72729168Y-59435883D01*
X72724788Y-59436189D01*
X72450030Y-59494591D01*
X72445901Y-59496094D01*
X72445897Y-59496095D01*
X72190219Y-59589154D01*
X72190215Y-59589156D01*
X72186074Y-59590663D01*
X71938058Y-59722536D01*
X71934499Y-59725122D01*
X71934497Y-59725123D01*
X71829895Y-59801121D01*
X71710808Y-59887642D01*
X71707644Y-59890698D01*
X71707641Y-59890700D01*
X71704439Y-59893792D01*
X71508748Y-60082769D01*
X71335812Y-60304118D01*
X71333616Y-60307922D01*
X71333611Y-60307929D01*
X71230834Y-60485945D01*
X71179451Y-60534938D01*
X71109738Y-60548374D01*
X71043827Y-60521988D01*
X71005306Y-60471163D01*
X70925135Y-60277611D01*
X70925133Y-60277607D01*
X70923240Y-60273037D01*
X70874852Y-60194075D01*
X70801759Y-60074798D01*
X70801755Y-60074792D01*
X70799176Y-60070584D01*
X70644969Y-59890031D01*
X70464416Y-59735824D01*
X70460208Y-59733245D01*
X70460202Y-59733241D01*
X70266183Y-59614346D01*
X70261963Y-59611760D01*
X70257393Y-59609867D01*
X70257389Y-59609865D01*
X70047167Y-59522789D01*
X70047165Y-59522788D01*
X70042594Y-59520895D01*
X69962391Y-59501640D01*
X69816524Y-59466620D01*
X69816518Y-59466619D01*
X69811711Y-59465465D01*
X69575000Y-59446835D01*
X69338289Y-59465465D01*
X69333482Y-59466619D01*
X69333476Y-59466620D01*
X69187609Y-59501640D01*
X69107406Y-59520895D01*
X69102835Y-59522788D01*
X69102833Y-59522789D01*
X68892611Y-59609865D01*
X68892607Y-59609867D01*
X68888037Y-59611760D01*
X68883817Y-59614346D01*
X68689798Y-59733241D01*
X68689792Y-59733245D01*
X68685584Y-59735824D01*
X68505031Y-59890031D01*
X68501823Y-59893787D01*
X68501818Y-59893792D01*
X68400811Y-60012056D01*
X68341361Y-60050866D01*
X68270366Y-60051372D01*
X68209189Y-60012056D01*
X68108182Y-59893792D01*
X68108177Y-59893787D01*
X68104969Y-59890031D01*
X67924416Y-59735824D01*
X67920208Y-59733245D01*
X67920202Y-59733241D01*
X67726183Y-59614346D01*
X67721963Y-59611760D01*
X67717393Y-59609867D01*
X67717389Y-59609865D01*
X67507167Y-59522789D01*
X67507165Y-59522788D01*
X67502594Y-59520895D01*
X67422391Y-59501640D01*
X67276524Y-59466620D01*
X67276518Y-59466619D01*
X67271711Y-59465465D01*
X67035000Y-59446835D01*
X66798289Y-59465465D01*
X66793482Y-59466619D01*
X66793476Y-59466620D01*
X66647609Y-59501640D01*
X66567406Y-59520895D01*
X66562835Y-59522788D01*
X66562833Y-59522789D01*
X66352611Y-59609865D01*
X66352607Y-59609867D01*
X66348037Y-59611760D01*
X66343817Y-59614346D01*
X66149798Y-59733241D01*
X66149792Y-59733245D01*
X66145584Y-59735824D01*
X65965031Y-59890031D01*
X65961823Y-59893787D01*
X65961818Y-59893792D01*
X65860811Y-60012056D01*
X65801361Y-60050866D01*
X65730366Y-60051372D01*
X65669189Y-60012056D01*
X65568182Y-59893792D01*
X65568177Y-59893787D01*
X65564969Y-59890031D01*
X65384416Y-59735824D01*
X65380208Y-59733245D01*
X65380202Y-59733241D01*
X65186183Y-59614346D01*
X65181963Y-59611760D01*
X65177393Y-59609867D01*
X65177389Y-59609865D01*
X64967167Y-59522789D01*
X64967165Y-59522788D01*
X64962594Y-59520895D01*
X64882391Y-59501640D01*
X64736524Y-59466620D01*
X64736518Y-59466619D01*
X64731711Y-59465465D01*
X64495000Y-59446835D01*
X64258289Y-59465465D01*
X64253482Y-59466619D01*
X64253476Y-59466620D01*
X64107609Y-59501640D01*
X64027406Y-59520895D01*
X64022835Y-59522788D01*
X64022833Y-59522789D01*
X63812611Y-59609865D01*
X63812607Y-59609867D01*
X63808037Y-59611760D01*
X63803817Y-59614346D01*
X63609798Y-59733241D01*
X63609792Y-59733245D01*
X63605584Y-59735824D01*
X63425031Y-59890031D01*
X63421823Y-59893787D01*
X63421818Y-59893792D01*
X63320811Y-60012056D01*
X63261361Y-60050866D01*
X63190366Y-60051372D01*
X63129189Y-60012056D01*
X63028182Y-59893792D01*
X63028177Y-59893787D01*
X63024969Y-59890031D01*
X62844416Y-59735824D01*
X62840208Y-59733245D01*
X62840202Y-59733241D01*
X62646183Y-59614346D01*
X62641963Y-59611760D01*
X62637393Y-59609867D01*
X62637389Y-59609865D01*
X62427167Y-59522789D01*
X62427165Y-59522788D01*
X62422594Y-59520895D01*
X62342391Y-59501640D01*
X62196524Y-59466620D01*
X62196518Y-59466619D01*
X62191711Y-59465465D01*
X61955000Y-59446835D01*
X61718289Y-59465465D01*
X61713482Y-59466619D01*
X61713476Y-59466620D01*
X61567609Y-59501640D01*
X61487406Y-59520895D01*
X61482835Y-59522788D01*
X61482833Y-59522789D01*
X61272611Y-59609865D01*
X61272607Y-59609867D01*
X61268037Y-59611760D01*
X61263817Y-59614346D01*
X61069798Y-59733241D01*
X61069792Y-59733245D01*
X61065584Y-59735824D01*
X60885031Y-59890031D01*
X60881823Y-59893787D01*
X60881818Y-59893792D01*
X60780811Y-60012056D01*
X60721361Y-60050866D01*
X60650366Y-60051372D01*
X60589189Y-60012056D01*
X60488182Y-59893792D01*
X60488177Y-59893787D01*
X60484969Y-59890031D01*
X60304416Y-59735824D01*
X60300208Y-59733245D01*
X60300202Y-59733241D01*
X60106183Y-59614346D01*
X60101963Y-59611760D01*
X60097393Y-59609867D01*
X60097389Y-59609865D01*
X59887167Y-59522789D01*
X59887165Y-59522788D01*
X59882594Y-59520895D01*
X59802391Y-59501640D01*
X59656524Y-59466620D01*
X59656518Y-59466619D01*
X59651711Y-59465465D01*
X59557116Y-59458020D01*
X59478420Y-59451826D01*
X59412078Y-59426540D01*
X59369939Y-59369402D01*
X59365380Y-59298552D01*
X59391787Y-59245220D01*
X59393086Y-59243672D01*
X59396977Y-59239781D01*
X59524488Y-59057676D01*
X59526811Y-59052694D01*
X59526814Y-59052689D01*
X59616117Y-58861178D01*
X59616118Y-58861177D01*
X59618440Y-58856196D01*
X59675978Y-58641463D01*
X59695353Y-58420000D01*
X59675978Y-58198537D01*
X59618440Y-57983804D01*
X59607637Y-57960637D01*
X59526814Y-57787311D01*
X59526811Y-57787306D01*
X59524488Y-57782324D01*
X59521331Y-57777815D01*
X59400136Y-57604730D01*
X59400134Y-57604727D01*
X59396977Y-57600219D01*
X59239781Y-57443023D01*
X59235273Y-57439866D01*
X59235270Y-57439864D01*
X59159505Y-57386813D01*
X59057677Y-57315512D01*
X59052695Y-57313189D01*
X59052690Y-57313186D01*
X58861178Y-57223883D01*
X58861177Y-57223882D01*
X58856196Y-57221560D01*
X58850888Y-57220138D01*
X58850886Y-57220137D01*
X58785051Y-57202497D01*
X58641463Y-57164022D01*
X58420000Y-57144647D01*
X58198537Y-57164022D01*
X58054949Y-57202497D01*
X57989114Y-57220137D01*
X57989112Y-57220138D01*
X57983804Y-57221560D01*
X57978823Y-57223882D01*
X57978822Y-57223883D01*
X57787311Y-57313186D01*
X57787306Y-57313189D01*
X57782324Y-57315512D01*
X57777817Y-57318668D01*
X57777815Y-57318669D01*
X57604730Y-57439864D01*
X57604727Y-57439866D01*
X57600219Y-57443023D01*
X57443023Y-57600219D01*
X57439866Y-57604727D01*
X57439864Y-57604730D01*
X57350209Y-57732771D01*
X57294752Y-57777099D01*
X57246996Y-57786500D01*
X51873763Y-57786500D01*
X51862579Y-57785973D01*
X51855091Y-57784299D01*
X51847168Y-57784548D01*
X51787033Y-57786438D01*
X51783075Y-57786500D01*
X51755144Y-57786500D01*
X51751229Y-57786995D01*
X51751225Y-57786995D01*
X51751167Y-57787003D01*
X51751138Y-57787006D01*
X51739296Y-57787939D01*
X51695110Y-57789327D01*
X51677744Y-57794372D01*
X51675658Y-57794978D01*
X51656306Y-57798986D01*
X51644068Y-57800532D01*
X51644066Y-57800533D01*
X51636203Y-57801526D01*
X51595086Y-57817806D01*
X51583885Y-57821641D01*
X51541406Y-57833982D01*
X51534587Y-57838015D01*
X51534582Y-57838017D01*
X51523971Y-57844293D01*
X51506221Y-57852990D01*
X51487383Y-57860448D01*
X51480967Y-57865109D01*
X51480966Y-57865110D01*
X51451625Y-57886428D01*
X51441701Y-57892947D01*
X51410460Y-57911422D01*
X51410455Y-57911426D01*
X51403637Y-57915458D01*
X51389313Y-57929782D01*
X51374281Y-57942621D01*
X51357893Y-57954528D01*
X51333674Y-57983804D01*
X51329712Y-57988593D01*
X51321722Y-57997373D01*
X49833459Y-59485636D01*
X49771147Y-59519662D01*
X49714951Y-59519060D01*
X49662104Y-59506373D01*
X49496524Y-59466620D01*
X49496518Y-59466619D01*
X49491711Y-59465465D01*
X49406093Y-59458727D01*
X49339752Y-59433442D01*
X49297612Y-59376304D01*
X49293053Y-59305454D01*
X49326884Y-59244020D01*
X52203988Y-56366916D01*
X52266300Y-56332890D01*
X52293083Y-56330011D01*
X56251282Y-56330011D01*
X56262465Y-56330538D01*
X56269958Y-56332213D01*
X56277884Y-56331964D01*
X56277885Y-56331964D01*
X56338035Y-56330073D01*
X56341994Y-56330011D01*
X56369905Y-56330011D01*
X56373840Y-56329514D01*
X56373905Y-56329506D01*
X56385742Y-56328573D01*
X56418000Y-56327559D01*
X56422019Y-56327433D01*
X56429938Y-56327184D01*
X56449392Y-56321532D01*
X56468749Y-56317524D01*
X56480979Y-56315979D01*
X56480980Y-56315979D01*
X56488846Y-56314985D01*
X56496217Y-56312066D01*
X56496219Y-56312066D01*
X56529961Y-56298707D01*
X56541191Y-56294862D01*
X56576032Y-56284740D01*
X56576033Y-56284740D01*
X56583642Y-56282529D01*
X56590461Y-56278496D01*
X56590466Y-56278494D01*
X56601077Y-56272218D01*
X56618825Y-56263523D01*
X56637666Y-56256063D01*
X56673436Y-56230075D01*
X56683356Y-56223559D01*
X56714584Y-56205091D01*
X56714587Y-56205089D01*
X56721411Y-56201053D01*
X56735732Y-56186732D01*
X56750766Y-56173891D01*
X56760743Y-56166642D01*
X56767156Y-56161983D01*
X56772207Y-56155878D01*
X56772212Y-56155873D01*
X56795348Y-56127907D01*
X56803336Y-56119129D01*
X57542253Y-55380212D01*
X57550539Y-55372672D01*
X57557018Y-55368560D01*
X57603644Y-55318908D01*
X57606398Y-55316067D01*
X57626135Y-55296330D01*
X57628615Y-55293133D01*
X57636320Y-55284111D01*
X57666586Y-55251881D01*
X57670405Y-55244935D01*
X57670407Y-55244932D01*
X57676348Y-55234126D01*
X57687199Y-55217607D01*
X57687559Y-55217143D01*
X57699614Y-55201601D01*
X57702759Y-55194332D01*
X57702762Y-55194328D01*
X57717174Y-55161023D01*
X57722391Y-55150373D01*
X57743695Y-55111620D01*
X57748733Y-55091997D01*
X57755137Y-55073294D01*
X57760033Y-55061980D01*
X57760033Y-55061979D01*
X57763181Y-55054705D01*
X57764420Y-55046882D01*
X57764423Y-55046872D01*
X57770099Y-55011036D01*
X57772505Y-54999416D01*
X57781528Y-54964271D01*
X57781528Y-54964270D01*
X57783500Y-54956590D01*
X57783500Y-54936336D01*
X57785051Y-54916625D01*
X57786980Y-54904446D01*
X57788220Y-54896617D01*
X57784059Y-54852598D01*
X57783500Y-54840741D01*
X57783500Y-54171268D01*
X57784027Y-54160085D01*
X57785702Y-54152592D01*
X57783562Y-54084501D01*
X57783500Y-54080544D01*
X57783500Y-54052644D01*
X57782996Y-54048653D01*
X57782063Y-54036811D01*
X57780923Y-54000536D01*
X57780674Y-53992611D01*
X57778461Y-53984993D01*
X57775021Y-53973152D01*
X57771012Y-53953793D01*
X57770846Y-53952483D01*
X57768474Y-53933703D01*
X57765558Y-53926337D01*
X57765556Y-53926331D01*
X57752200Y-53892598D01*
X57748355Y-53881368D01*
X57738230Y-53846517D01*
X57738230Y-53846516D01*
X57736019Y-53838907D01*
X57725705Y-53821466D01*
X57717008Y-53803713D01*
X57712472Y-53792258D01*
X57709552Y-53784883D01*
X57683563Y-53749112D01*
X57677047Y-53739192D01*
X57658578Y-53707963D01*
X57654542Y-53701138D01*
X57640221Y-53686817D01*
X57627380Y-53671783D01*
X57620131Y-53661806D01*
X57615472Y-53655393D01*
X57581395Y-53627202D01*
X57572616Y-53619212D01*
X54691218Y-50737813D01*
X54657192Y-50675501D01*
X54659755Y-50612089D01*
X54670865Y-50575522D01*
X54672370Y-50570569D01*
X54701529Y-50349090D01*
X54701611Y-50345740D01*
X54703074Y-50285865D01*
X54703074Y-50285861D01*
X54703156Y-50282500D01*
X54684852Y-50059861D01*
X54630431Y-49843202D01*
X54541354Y-49638340D01*
X54501906Y-49577362D01*
X54422822Y-49455117D01*
X54422820Y-49455114D01*
X54420014Y-49450777D01*
X54269670Y-49285551D01*
X54265619Y-49282352D01*
X54265615Y-49282348D01*
X54098414Y-49150300D01*
X54098410Y-49150298D01*
X54094359Y-49147098D01*
X54053053Y-49124296D01*
X54003084Y-49073864D01*
X53988312Y-49004421D01*
X54013428Y-48938016D01*
X54040780Y-48911409D01*
X54094866Y-48872830D01*
X54219860Y-48783673D01*
X54378096Y-48625989D01*
X54508453Y-48444577D01*
X54529320Y-48402357D01*
X54605136Y-48248953D01*
X54605137Y-48248951D01*
X54607430Y-48244311D01*
X54672370Y-48030569D01*
X54701529Y-47809090D01*
X54703156Y-47742500D01*
X54684852Y-47519861D01*
X54630431Y-47303202D01*
X54541354Y-47098340D01*
X54447355Y-46953039D01*
X54422822Y-46915117D01*
X54422820Y-46915114D01*
X54420014Y-46910777D01*
X54269670Y-46745551D01*
X54265619Y-46742352D01*
X54265615Y-46742348D01*
X54098414Y-46610300D01*
X54098410Y-46610298D01*
X54094359Y-46607098D01*
X54079690Y-46599000D01*
X54042136Y-46578269D01*
X53898789Y-46499138D01*
X53893920Y-46497414D01*
X53893916Y-46497412D01*
X53693087Y-46426295D01*
X53693083Y-46426294D01*
X53688212Y-46424569D01*
X53683119Y-46423662D01*
X53683116Y-46423661D01*
X53473373Y-46386300D01*
X53473367Y-46386299D01*
X53468284Y-46385394D01*
X53394452Y-46384492D01*
X53250081Y-46382728D01*
X53250079Y-46382728D01*
X53244911Y-46382665D01*
X53024091Y-46416455D01*
X52811756Y-46485857D01*
X52781443Y-46501637D01*
X52621760Y-46584763D01*
X52613607Y-46589007D01*
X52609474Y-46592110D01*
X52609471Y-46592112D01*
X52439100Y-46720030D01*
X52434965Y-46723135D01*
X52280629Y-46884638D01*
X52173201Y-47042121D01*
X52118293Y-47087121D01*
X52047768Y-47095292D01*
X51984021Y-47064038D01*
X51963324Y-47039554D01*
X51882822Y-46915117D01*
X51882820Y-46915114D01*
X51880014Y-46910777D01*
X51729670Y-46745551D01*
X51725619Y-46742352D01*
X51725615Y-46742348D01*
X51558414Y-46610300D01*
X51558410Y-46610298D01*
X51554359Y-46607098D01*
X51539690Y-46599000D01*
X51502136Y-46578269D01*
X51358789Y-46499138D01*
X51353920Y-46497414D01*
X51353916Y-46497412D01*
X51153087Y-46426295D01*
X51153083Y-46426294D01*
X51148212Y-46424569D01*
X51143119Y-46423662D01*
X51143116Y-46423661D01*
X50933373Y-46386300D01*
X50933367Y-46386299D01*
X50928284Y-46385394D01*
X50854452Y-46384492D01*
X50710081Y-46382728D01*
X50710079Y-46382728D01*
X50704911Y-46382665D01*
X50484091Y-46416455D01*
X50271756Y-46485857D01*
X50241443Y-46501637D01*
X50081760Y-46584763D01*
X50073607Y-46589007D01*
X50069474Y-46592110D01*
X50069471Y-46592112D01*
X49899100Y-46720030D01*
X49894965Y-46723135D01*
X49740629Y-46884638D01*
X49633201Y-47042121D01*
X49578293Y-47087121D01*
X49507768Y-47095292D01*
X49444021Y-47064038D01*
X49423324Y-47039554D01*
X49342822Y-46915117D01*
X49342820Y-46915114D01*
X49340014Y-46910777D01*
X49189670Y-46745551D01*
X49185619Y-46742352D01*
X49185615Y-46742348D01*
X49018414Y-46610300D01*
X49018410Y-46610298D01*
X49014359Y-46607098D01*
X48999690Y-46599000D01*
X48962136Y-46578269D01*
X48818789Y-46499138D01*
X48813920Y-46497414D01*
X48813916Y-46497412D01*
X48613087Y-46426295D01*
X48613083Y-46426294D01*
X48608212Y-46424569D01*
X48603119Y-46423662D01*
X48603116Y-46423661D01*
X48393373Y-46386300D01*
X48393367Y-46386299D01*
X48388284Y-46385394D01*
X48314452Y-46384492D01*
X48170081Y-46382728D01*
X48170079Y-46382728D01*
X48164911Y-46382665D01*
X47944091Y-46416455D01*
X47731756Y-46485857D01*
X47701443Y-46501637D01*
X47541760Y-46584763D01*
X47533607Y-46589007D01*
X47529474Y-46592110D01*
X47529471Y-46592112D01*
X47359100Y-46720030D01*
X47354965Y-46723135D01*
X47200629Y-46884638D01*
X47093201Y-47042121D01*
X47038293Y-47087121D01*
X46967768Y-47095292D01*
X46904021Y-47064038D01*
X46883324Y-47039554D01*
X46802822Y-46915117D01*
X46802820Y-46915114D01*
X46800014Y-46910777D01*
X46649670Y-46745551D01*
X46645619Y-46742352D01*
X46645615Y-46742348D01*
X46478414Y-46610300D01*
X46478410Y-46610298D01*
X46474359Y-46607098D01*
X46459690Y-46599000D01*
X46422136Y-46578269D01*
X46278789Y-46499138D01*
X46273920Y-46497414D01*
X46273916Y-46497412D01*
X46073087Y-46426295D01*
X46073083Y-46426294D01*
X46068212Y-46424569D01*
X46063119Y-46423662D01*
X46063116Y-46423661D01*
X45853373Y-46386300D01*
X45853367Y-46386299D01*
X45848284Y-46385394D01*
X45774452Y-46384492D01*
X45630081Y-46382728D01*
X45630079Y-46382728D01*
X45624911Y-46382665D01*
X45404091Y-46416455D01*
X45191756Y-46485857D01*
X45161443Y-46501637D01*
X45001760Y-46584763D01*
X44993607Y-46589007D01*
X44989474Y-46592110D01*
X44989471Y-46592112D01*
X44819100Y-46720030D01*
X44814965Y-46723135D01*
X44660629Y-46884638D01*
X44553201Y-47042121D01*
X44498293Y-47087121D01*
X44427768Y-47095292D01*
X44364021Y-47064038D01*
X44343324Y-47039554D01*
X44262822Y-46915117D01*
X44262820Y-46915114D01*
X44260014Y-46910777D01*
X44109670Y-46745551D01*
X44105619Y-46742352D01*
X44105615Y-46742348D01*
X43938414Y-46610300D01*
X43938410Y-46610298D01*
X43934359Y-46607098D01*
X43919690Y-46599000D01*
X43882136Y-46578269D01*
X43738789Y-46499138D01*
X43733920Y-46497414D01*
X43733916Y-46497412D01*
X43533087Y-46426295D01*
X43533083Y-46426294D01*
X43528212Y-46424569D01*
X43523119Y-46423662D01*
X43523116Y-46423661D01*
X43313373Y-46386300D01*
X43313367Y-46386299D01*
X43308284Y-46385394D01*
X43234452Y-46384492D01*
X43090081Y-46382728D01*
X43090079Y-46382728D01*
X43084911Y-46382665D01*
X42864091Y-46416455D01*
X42651756Y-46485857D01*
X42626244Y-46499138D01*
X42461760Y-46584763D01*
X42403580Y-46599000D01*
X37390305Y-46599000D01*
X37382064Y-46598730D01*
X37372952Y-46598133D01*
X37317439Y-46594494D01*
X37229541Y-46604898D01*
X37226273Y-46605240D01*
X37138221Y-46613331D01*
X37132655Y-46614901D01*
X37128959Y-46615586D01*
X37118110Y-46617744D01*
X37114474Y-46618517D01*
X37108735Y-46619196D01*
X37024244Y-46645431D01*
X37021108Y-46646360D01*
X36959959Y-46663606D01*
X36935951Y-46670377D01*
X36930763Y-46672935D01*
X36927312Y-46674260D01*
X36916934Y-46678401D01*
X36913547Y-46679804D01*
X36908027Y-46681518D01*
X36902913Y-46684209D01*
X36902912Y-46684209D01*
X36829755Y-46722698D01*
X36826819Y-46724195D01*
X36747463Y-46763329D01*
X36742832Y-46766787D01*
X36739629Y-46768750D01*
X36730242Y-46774673D01*
X36727149Y-46776682D01*
X36722037Y-46779371D01*
X36652544Y-46834156D01*
X36649974Y-46836127D01*
X36583699Y-46885616D01*
X36583692Y-46885623D01*
X36579071Y-46889073D01*
X36575157Y-46893307D01*
X36575155Y-46893309D01*
X36523238Y-46949473D01*
X36519808Y-46953039D01*
X33236696Y-50236151D01*
X33230678Y-50241788D01*
X33181981Y-50284494D01*
X33178406Y-50289029D01*
X33178405Y-50289030D01*
X33127202Y-50353982D01*
X33125124Y-50356547D01*
X33072266Y-50420100D01*
X33072262Y-50420105D01*
X33068574Y-50424540D01*
X33065755Y-50429574D01*
X33063686Y-50432584D01*
X33057492Y-50441854D01*
X33055449Y-50444999D01*
X33051872Y-50449537D01*
X33049184Y-50454645D01*
X33049182Y-50454649D01*
X33010688Y-50527816D01*
X33009118Y-50530706D01*
X32965885Y-50607904D01*
X32964028Y-50613376D01*
X32962514Y-50616776D01*
X32958127Y-50626987D01*
X32956705Y-50630421D01*
X32954018Y-50635527D01*
X32952306Y-50641041D01*
X32952305Y-50641043D01*
X32927788Y-50719999D01*
X32926769Y-50723135D01*
X32898331Y-50806912D01*
X32897502Y-50812625D01*
X32896659Y-50816138D01*
X32894167Y-50827151D01*
X32893409Y-50830718D01*
X32891696Y-50836234D01*
X32891018Y-50841962D01*
X32891017Y-50841967D01*
X32881297Y-50924098D01*
X32880870Y-50927340D01*
X32868175Y-51014897D01*
X32869362Y-51045100D01*
X32871403Y-51097054D01*
X32871500Y-51102001D01*
X32871500Y-59929641D01*
X32851498Y-59997762D01*
X32841311Y-60011472D01*
X32794034Y-60066825D01*
X32794031Y-60066829D01*
X32790824Y-60070584D01*
X32788245Y-60074792D01*
X32788241Y-60074798D01*
X32715148Y-60194075D01*
X32666760Y-60273037D01*
X32575895Y-60492406D01*
X32574740Y-60497218D01*
X32530869Y-60679954D01*
X32520465Y-60723289D01*
X32501835Y-60960000D01*
X28011611Y-60960000D01*
X28008598Y-60942913D01*
X27921797Y-60675765D01*
X27798660Y-60423298D01*
X27796205Y-60419659D01*
X27796202Y-60419653D01*
X27697308Y-60273037D01*
X27641585Y-60190424D01*
X27453629Y-59981678D01*
X27238450Y-59801121D01*
X27000236Y-59652269D01*
X26787490Y-59557548D01*
X26747639Y-59539805D01*
X26747637Y-59539804D01*
X26743625Y-59538018D01*
X26473610Y-59460593D01*
X26469260Y-59459982D01*
X26469257Y-59459981D01*
X26366310Y-59445513D01*
X26195448Y-59421500D01*
X25984854Y-59421500D01*
X25982668Y-59421653D01*
X25982664Y-59421653D01*
X25779173Y-59435882D01*
X25779168Y-59435883D01*
X25774788Y-59436189D01*
X25500030Y-59494591D01*
X25495901Y-59496094D01*
X25495897Y-59496095D01*
X25240219Y-59589154D01*
X25240215Y-59589156D01*
X25236074Y-59590663D01*
X24988058Y-59722536D01*
X24984499Y-59725122D01*
X24984497Y-59725123D01*
X24879895Y-59801121D01*
X24760808Y-59887642D01*
X24757644Y-59890698D01*
X24757641Y-59890700D01*
X24754439Y-59893792D01*
X24558748Y-60082769D01*
X24385812Y-60304118D01*
X24383616Y-60307922D01*
X24383611Y-60307929D01*
X24289368Y-60471163D01*
X24245364Y-60547381D01*
X24140138Y-60807824D01*
X24139073Y-60812097D01*
X24139072Y-60812099D01*
X24099002Y-60972812D01*
X24072183Y-61080376D01*
X24071724Y-61084744D01*
X24071723Y-61084749D01*
X24059956Y-61196711D01*
X24042822Y-61359733D01*
X21590000Y-61359733D01*
X21590000Y-53466000D01*
X21610002Y-53397879D01*
X21663658Y-53351386D01*
X21716000Y-53340000D01*
X31750000Y-53340000D01*
X31750000Y-43306000D01*
X31770002Y-43237879D01*
X31823658Y-43191386D01*
X31876000Y-43180000D01*
X107824000Y-43180000D01*
X107892121Y-43200002D01*
G37*
%TD.AperFunction*%
%TD*%
M02*
