M48
; DRILL file {KiCad (6.0.1)} date Sat Feb 12 14:44:06 2022
; FORMAT={-:-/ absolute / inch / decimal}
; #@! TF.CreationDate,2022-02-12T14:44:06-06:00
; #@! TF.GenerationSoftware,Kicad,Pcbnew,(6.0.1)
; #@! TF.FileFunction,Plated,1,2,PTH
FMAT,2
INCH
; #@! TA.AperFunction,Plated,PTH,ViaDrill
T1C0.0300
; #@! TA.AperFunction,Plated,PTH,ComponentDrill
T2C0.0315
; #@! TA.AperFunction,Plated,PTH,ComponentDrill
T3C0.0394
; #@! TA.AperFunction,Plated,PTH,ComponentDrill
T4C0.0402
; #@! TA.AperFunction,Plated,PTH,ComponentDrill
T5C0.0472
%
G90
G05
T1
X1.25Y-3.6
X1.55Y-3.0
X1.8Y-3.6
X2.2Y-2.15
X2.2Y-2.6
X2.3Y-2.3
X2.3Y-2.5
X2.35Y-3.05
X2.5Y-2.5
X2.55Y-2.05
X3.2Y-4.1
X3.35Y-3.25
X3.35Y-3.85
X3.45Y-4.1
X3.6Y-3.3
X3.6Y-3.85
T2
X2.0Y-3.6996
X2.0Y-4.1996
X2.1Y-3.6996
X2.1Y-4.1996
X2.2Y-3.6996
X2.2Y-4.1996
X2.3Y-3.6996
X2.3Y-4.1996
X2.4Y-3.6996
X2.4Y-4.1996
X2.5Y-3.6996
X2.5Y-4.1996
X2.6Y-3.6996
X2.6Y-4.1996
X2.7Y-3.6996
X2.7Y-4.1996
T3
X1.7Y-1.8796
X1.7Y-1.9796
X1.8Y-1.8796
X1.8Y-1.9796
X1.9Y-1.8796
X1.9Y-1.9796
X2.0Y-1.8796
X2.0Y-1.9796
X2.1Y-1.8796
X2.1Y-1.9796
X3.1Y-3.5964
X3.1Y-3.7932
T4
X1.3392Y-2.4
X1.3392Y-3.4
X1.4392Y-2.4
X1.4392Y-3.4
X1.5392Y-2.4
X1.5392Y-3.4
X1.6392Y-2.4
X1.6392Y-3.4
X1.7392Y-2.4
X1.7392Y-3.4
X1.8392Y-2.4
X1.8392Y-3.4
X1.9392Y-2.4
X1.9392Y-3.4
X2.0392Y-2.4
X2.0392Y-3.4
X2.1392Y-2.4
X2.1392Y-3.4
X2.2392Y-2.4
X2.2392Y-3.4
X2.3392Y-2.4
X2.3392Y-3.4
X2.4392Y-2.4
X2.4392Y-3.4
X2.5392Y-2.4
X2.5392Y-3.4
X2.6392Y-2.4
X2.6392Y-3.4
X2.7392Y-2.4
X2.7392Y-3.4
T5
X1.35Y-4.8
X1.5Y-4.8
X1.75Y-4.8
X1.9Y-4.8
X2.15Y-4.8
X2.3Y-4.8
X2.45Y-4.8
X2.6Y-4.8
X2.85Y-4.8
X3.0Y-4.8
X3.15Y-4.8
X3.4Y-4.8
X3.55Y-4.8
X3.7Y-4.8
X3.95Y-4.8
X4.15Y-4.05
X4.15Y-4.8
X4.25Y-4.05
X4.35Y-4.05
T0
M30
